G04*
G04 #@! TF.GenerationSoftware,Altium Limited,Altium Designer,25.3.3 (18)*
G04*
G04 Layer_Physical_Order=1*
G04 Layer_Color=255*
%FSLAX44Y44*%
%MOMM*%
G71*
G04*
G04 #@! TF.SameCoordinates,5CFDE4A5-D111-4E67-9A72-851D34BF8442*
G04*
G04*
G04 #@! TF.FilePolarity,Positive*
G04*
G01*
G75*
%ADD17R,0.7200X0.7200*%
%ADD18R,0.7200X0.7200*%
%ADD19R,1.7000X1.6800*%
G04:AMPARAMS|DCode=20|XSize=0.65mm|YSize=1.65mm|CornerRadius=0.0488mm|HoleSize=0mm|Usage=FLASHONLY|Rotation=180.000|XOffset=0mm|YOffset=0mm|HoleType=Round|Shape=RoundedRectangle|*
%AMROUNDEDRECTD20*
21,1,0.6500,1.5525,0,0,180.0*
21,1,0.5525,1.6500,0,0,180.0*
1,1,0.0975,-0.2763,0.7763*
1,1,0.0975,0.2763,0.7763*
1,1,0.0975,0.2763,-0.7763*
1,1,0.0975,-0.2763,-0.7763*
%
%ADD20ROUNDEDRECTD20*%
%ADD21R,0.8581X1.5621*%
%ADD22R,1.1500X1.8000*%
%ADD23R,1.2500X1.5000*%
%ADD24R,1.8000X1.1500*%
%ADD25R,1.5000X1.2500*%
%ADD26R,0.9000X1.2000*%
%ADD27R,1.0500X1.6000*%
%ADD28R,1.6000X1.0500*%
%ADD29R,1.9800X0.5300*%
%ADD30R,0.9000X0.8000*%
%ADD45C,1.5700*%
%ADD49C,0.5080*%
%ADD50C,0.4064*%
%ADD51C,0.6350*%
%ADD52C,1.6500*%
%ADD53R,1.6500X1.6500*%
%ADD54C,2.5000*%
%ADD55R,1.6500X1.6500*%
%ADD56C,0.6350*%
%ADD57C,0.5080*%
G36*
X1129030Y693420D02*
Y322580D01*
X1126490Y320040D01*
X1123950Y322580D01*
X600710D01*
Y695960D01*
X1129030Y693420D01*
D02*
G37*
%LPC*%
G36*
X846396Y669344D02*
X842704D01*
X839137Y668388D01*
X835939Y666542D01*
X833328Y663931D01*
X831482Y660733D01*
X830526Y657166D01*
Y653474D01*
X831482Y649907D01*
X833328Y646709D01*
X835939Y644098D01*
X839137Y642252D01*
X842704Y641296D01*
X846396D01*
X849963Y642252D01*
X853161Y644098D01*
X855772Y646709D01*
X857618Y649907D01*
X858574Y653474D01*
Y657166D01*
X857618Y660733D01*
X855772Y663931D01*
X853161Y666542D01*
X849963Y668388D01*
X846396Y669344D01*
D02*
G37*
G36*
X1025466Y668074D02*
X1021774D01*
X1018207Y667118D01*
X1015009Y665272D01*
X1012398Y662661D01*
X1010552Y659463D01*
X1009596Y655896D01*
Y652204D01*
X1010552Y648637D01*
X1012398Y645439D01*
X1015009Y642828D01*
X1018207Y640982D01*
X1021774Y640026D01*
X1025466D01*
X1029033Y640982D01*
X1032231Y642828D01*
X1034842Y645439D01*
X1036688Y648637D01*
X1037644Y652204D01*
Y655896D01*
X1036688Y659463D01*
X1034842Y662661D01*
X1032231Y665272D01*
X1029033Y667118D01*
X1025466Y668074D01*
D02*
G37*
G36*
X906797Y640964D02*
X904223D01*
X901737Y640298D01*
X899509Y639011D01*
X897689Y637191D01*
X896402Y634963D01*
X895736Y632477D01*
Y629903D01*
X896402Y627417D01*
X897689Y625189D01*
X899509Y623369D01*
X901737Y622082D01*
X904223Y621416D01*
X906797D01*
X909283Y622082D01*
X911511Y623369D01*
X913331Y625189D01*
X914618Y627417D01*
X915284Y629903D01*
Y632477D01*
X914618Y634963D01*
X913331Y637191D01*
X911511Y639011D01*
X909283Y640298D01*
X906797Y640964D01*
D02*
G37*
G36*
X966084D02*
X946536D01*
Y627276D01*
X924114Y604854D01*
X891540D01*
X891540Y604854D01*
X891540Y604854D01*
X836404D01*
X834818Y604538D01*
X833732Y603812D01*
X832553Y604991D01*
X830416Y606225D01*
X828032Y606864D01*
X825564D01*
X823179Y606225D01*
X821042Y604991D01*
X819297Y603246D01*
X818062Y601108D01*
X817424Y598724D01*
Y596256D01*
X818062Y593872D01*
X819297Y591734D01*
X821042Y589989D01*
X823179Y588755D01*
X825564Y588116D01*
X828032D01*
X830416Y588755D01*
X832553Y589989D01*
X834299Y591734D01*
X835533Y593872D01*
X835708Y594526D01*
X836829Y595275D01*
X838120Y596566D01*
X881536D01*
X878780Y593810D01*
X877882Y592466D01*
X877566Y590880D01*
Y577331D01*
X877497Y577285D01*
X877053Y576620D01*
X876897Y575835D01*
Y561961D01*
X873823Y565034D01*
Y567733D01*
X873876Y567997D01*
Y578231D01*
X873784Y578694D01*
Y579166D01*
X873603Y579602D01*
X873511Y580064D01*
X873249Y580457D01*
X873069Y580893D01*
X872735Y581227D01*
X872473Y581619D01*
X872081Y581881D01*
X871747Y582215D01*
X871311Y582395D01*
X870919Y582657D01*
X870456Y582749D01*
X870020Y582930D01*
X869548D01*
X869085Y583022D01*
X868622Y582930D01*
X868150D01*
X867714Y582749D01*
X867252Y582657D01*
X866859Y582395D01*
X866423Y582215D01*
X866090Y581881D01*
X865697Y581619D01*
X865435Y581227D01*
X865101Y580893D01*
X864921Y580457D01*
X864659Y580064D01*
X864567Y579602D01*
X864386Y579166D01*
Y578694D01*
X864294Y578231D01*
Y576324D01*
X864197Y575835D01*
Y560310D01*
X864353Y559525D01*
X864797Y558859D01*
X865463Y558415D01*
X866247Y558259D01*
X867048D01*
X869866Y555441D01*
X870187Y554959D01*
X873486Y551661D01*
X875041Y550622D01*
X875345Y550561D01*
X876874Y550257D01*
X921561D01*
X923394Y550622D01*
X924949Y551661D01*
X927987Y554699D01*
X928309Y555180D01*
X931312Y558184D01*
X932113D01*
X932897Y558340D01*
X933563Y558785D01*
X934007Y559450D01*
X934163Y560235D01*
Y575760D01*
X934007Y576545D01*
X933563Y577210D01*
X932897Y577655D01*
X932113Y577811D01*
X926588D01*
X925803Y577655D01*
X925137Y577210D01*
X924693Y576545D01*
X924537Y575760D01*
Y564960D01*
X921463Y561886D01*
Y575760D01*
X921307Y576545D01*
X920863Y577210D01*
X920197Y577655D01*
X919413Y577811D01*
X913887D01*
X913103Y577655D01*
X912437Y577210D01*
X911993Y576545D01*
X911837Y575760D01*
Y560235D01*
X911915Y559839D01*
X899130D01*
X899223Y560310D01*
Y575835D01*
X899067Y576620D01*
X898623Y577285D01*
X897957Y577729D01*
X897172Y577886D01*
X891647D01*
X890863Y577729D01*
X890197Y577285D01*
X889753Y576620D01*
X889597Y575835D01*
Y560310D01*
X889690Y559839D01*
X886430D01*
X886523Y560310D01*
Y575835D01*
X886367Y576620D01*
X885923Y577285D01*
X885854Y577331D01*
Y589164D01*
X893256Y596566D01*
X925830D01*
X927416Y596882D01*
X928760Y597780D01*
X952396Y621416D01*
X966084D01*
Y627729D01*
X966488Y628334D01*
X966804Y629920D01*
X966488Y631506D01*
X966084Y632111D01*
Y640964D01*
D02*
G37*
G36*
X712568Y606020D02*
X712470D01*
Y596900D01*
X721590D01*
Y596998D01*
X720882Y599640D01*
X719514Y602010D01*
X717580Y603944D01*
X715210Y605312D01*
X712568Y606020D01*
D02*
G37*
G36*
X709930D02*
X709832D01*
X707190Y605312D01*
X704820Y603944D01*
X702886Y602010D01*
X701518Y599640D01*
X700810Y596998D01*
Y596900D01*
X709930D01*
Y606020D01*
D02*
G37*
G36*
X795753Y597418D02*
X795290Y597326D01*
X794818D01*
X794382Y597145D01*
X793919Y597053D01*
X793527Y596791D01*
X793091Y596610D01*
X792757Y596277D01*
X792365Y596014D01*
X789079Y592729D01*
X787424Y594384D01*
X786247Y595170D01*
X784860Y595446D01*
X784860Y595446D01*
X735250D01*
X735250Y595446D01*
X733863Y595170D01*
X732686Y594384D01*
X715596Y577294D01*
X701676D01*
Y575021D01*
X688250D01*
X686721Y574717D01*
X686416Y574656D01*
X684862Y573618D01*
X681142Y569898D01*
X680104Y568344D01*
X679739Y566510D01*
Y476569D01*
X680104Y474735D01*
X681142Y473181D01*
X696995Y457328D01*
Y444556D01*
X709767D01*
X722101Y432222D01*
X723655Y431184D01*
X725489Y430819D01*
X754380D01*
X754843Y430911D01*
X755315D01*
X755415Y430952D01*
X761290D01*
Y425246D01*
X757866Y421822D01*
X735801D01*
X733967Y421457D01*
X732413Y420419D01*
X720315Y408321D01*
X716462D01*
X715403Y410155D01*
X713394Y412164D01*
X710934Y413585D01*
X708189Y414320D01*
X708039D01*
Y403530D01*
Y392740D01*
X708189D01*
X710934Y393475D01*
X713394Y394896D01*
X715403Y396905D01*
X716462Y398739D01*
X722300D01*
X724134Y399104D01*
X725688Y400142D01*
X737785Y412240D01*
X759851D01*
X761684Y412604D01*
X763239Y413643D01*
X769199Y419604D01*
X773570D01*
Y424473D01*
X767430D01*
Y427014D01*
X773570D01*
Y431884D01*
X772554D01*
Y440868D01*
X762306D01*
Y440535D01*
X754513D01*
X753842Y440401D01*
X727473D01*
X716543Y451332D01*
Y464104D01*
X703770D01*
X689321Y478553D01*
Y564526D01*
X690234Y565439D01*
X701676D01*
Y564077D01*
X700151D01*
X700151Y564077D01*
X698764Y563801D01*
X697587Y563015D01*
X697587Y563015D01*
X690856Y556284D01*
X690070Y555107D01*
X689794Y553720D01*
X689794Y553720D01*
Y526401D01*
X689794Y526401D01*
X690070Y525013D01*
X690856Y523837D01*
X693237Y521456D01*
X693237Y521456D01*
X694413Y520670D01*
X695801Y520394D01*
X695801Y520394D01*
X701676D01*
Y517246D01*
X720724D01*
Y530794D01*
X701676D01*
Y527646D01*
X697302D01*
X697046Y527902D01*
Y552218D01*
X701653Y556825D01*
X720270D01*
X719455Y554857D01*
Y553301D01*
X714965Y548810D01*
X712470D01*
Y541020D01*
Y533230D01*
X721740D01*
Y534854D01*
X726737D01*
X726737Y534854D01*
X727156Y534938D01*
X726416Y534198D01*
X725630Y533022D01*
X725354Y531634D01*
X725354Y531634D01*
Y520932D01*
X714604Y510182D01*
X713818Y509006D01*
X713542Y507618D01*
X713542Y507618D01*
Y501294D01*
X701676D01*
Y487746D01*
X720724D01*
Y497388D01*
X720794Y497738D01*
X720794Y497738D01*
Y506116D01*
X731544Y516866D01*
X731544Y516866D01*
X732015Y517571D01*
X732330Y518042D01*
X732606Y519430D01*
Y530133D01*
X732862Y530390D01*
X742222D01*
X742222Y530389D01*
X742572Y530459D01*
X754264D01*
Y538807D01*
X732191D01*
X735527Y542143D01*
X741570D01*
Y547333D01*
Y552523D01*
X730860D01*
X730885Y552583D01*
Y554857D01*
X730243Y556408D01*
X731416D01*
Y555859D01*
X754264D01*
Y564207D01*
X731416D01*
Y563659D01*
X729558D01*
X729345Y563801D01*
X727958Y564077D01*
X727958Y564077D01*
X720724D01*
Y572166D01*
X736752Y588194D01*
X783358D01*
X787339Y584213D01*
X787349Y584207D01*
Y576907D01*
X780716D01*
Y568559D01*
X801925D01*
Y564207D01*
X780716D01*
Y555859D01*
X802824D01*
Y551507D01*
X780716D01*
Y543159D01*
X802824D01*
Y538807D01*
X780716D01*
Y530459D01*
X789234D01*
Y515461D01*
X787104Y514231D01*
X785359Y512486D01*
X784129Y510356D01*
X776394D01*
Y516254D01*
X762846D01*
Y497206D01*
X776394D01*
Y503104D01*
X784129D01*
X785359Y500974D01*
X787104Y499229D01*
X787588Y498950D01*
X781074D01*
X779687Y498674D01*
X778510Y497888D01*
X778510Y497888D01*
X774676Y494054D01*
X774355Y493573D01*
X773357Y492576D01*
X744911D01*
Y496190D01*
X747910D01*
Y505460D01*
X740120D01*
X732330D01*
Y496190D01*
X735329D01*
Y491331D01*
Y488950D01*
Y470938D01*
X735694Y469104D01*
X736732Y467550D01*
X744381Y459901D01*
X745936Y458863D01*
X747769Y458498D01*
X750059D01*
X762510Y446046D01*
X762799Y445349D01*
X764228Y443919D01*
X765836Y443254D01*
Y448226D01*
X767106D01*
Y449496D01*
X772078D01*
X771413Y451104D01*
X771183Y451333D01*
X772160Y451139D01*
X784899D01*
X786733Y451504D01*
X788287Y452542D01*
X801557Y465812D01*
X801879Y466294D01*
X804882Y469297D01*
X805683D01*
X806467Y469453D01*
X807133Y469898D01*
X807577Y470563D01*
X807733Y471348D01*
Y473921D01*
X807786Y474186D01*
Y484516D01*
X810539Y487269D01*
X810885D01*
X810807Y486873D01*
Y471348D01*
X810963Y470563D01*
X811407Y469898D01*
X811476Y469852D01*
Y467110D01*
X811792Y465524D01*
X812690Y464180D01*
X820003Y456867D01*
X821347Y455969D01*
X822933Y455653D01*
X837913D01*
X839499Y455969D01*
X840011Y456311D01*
X840405D01*
X842132Y457026D01*
X843454Y458348D01*
X844169Y460075D01*
Y461945D01*
X843604Y463309D01*
X843816Y463167D01*
X845649Y462803D01*
X855471D01*
X857304Y463167D01*
X858859Y464206D01*
X861897Y467244D01*
X862219Y467726D01*
X863260Y468767D01*
X864437Y467590D01*
X865992Y466551D01*
X867825Y466187D01*
X869659Y466551D01*
X871213Y467590D01*
X872252Y469144D01*
X872591Y470850D01*
X873197Y470729D01*
X878723D01*
X879507Y470886D01*
X880173Y471330D01*
X880617Y471995D01*
X880773Y472780D01*
Y484496D01*
X883847Y487569D01*
Y472780D01*
X884003Y471995D01*
X884447Y471330D01*
X885113Y470886D01*
X885898Y470729D01*
X891423D01*
X892207Y470886D01*
X892873Y471330D01*
X893317Y471995D01*
X893473Y472780D01*
Y488305D01*
X893317Y489090D01*
X892873Y489756D01*
X892207Y490200D01*
X891423Y490356D01*
X886633D01*
X888148Y491871D01*
X888665D01*
X890392Y492586D01*
X891714Y493908D01*
X892429Y495635D01*
Y497505D01*
X891714Y499232D01*
X890392Y500554D01*
X888665Y501269D01*
X886795D01*
X885068Y500554D01*
X883746Y499232D01*
X883716Y499159D01*
X874913Y490356D01*
X873197D01*
X872413Y490200D01*
X871747Y489756D01*
X871303Y489090D01*
X871147Y488305D01*
Y474432D01*
X868073Y477505D01*
Y488305D01*
X867917Y489090D01*
X867473Y489756D01*
X866807Y490200D01*
X866023Y490356D01*
X860498D01*
X859713Y490200D01*
X859047Y489756D01*
X858603Y489090D01*
X858447Y488305D01*
Y477505D01*
X855373Y474432D01*
Y488305D01*
X855217Y489090D01*
X854773Y489756D01*
X854107Y490200D01*
X853323Y490356D01*
X847797D01*
X847013Y490200D01*
X846347Y489756D01*
X845903Y489090D01*
X845747Y488305D01*
Y474272D01*
X844231Y475787D01*
Y485850D01*
X843927Y487380D01*
X843866Y487684D01*
X842828Y489238D01*
X838458Y493608D01*
X838458Y493608D01*
X836618Y495448D01*
X835064Y496486D01*
X833231Y496851D01*
X808555D01*
X806721Y496486D01*
X806205Y496141D01*
X806041Y496032D01*
X808310Y498301D01*
Y498190D01*
X814080D01*
Y506730D01*
X815350D01*
Y508000D01*
X822390D01*
Y515270D01*
X816508D01*
Y516808D01*
X816232Y518195D01*
X815446Y519372D01*
X815446Y519372D01*
X811481Y523336D01*
X822294D01*
Y538384D01*
X820365D01*
Y545363D01*
X823232D01*
Y556411D01*
X820834D01*
Y562284D01*
X820557Y563672D01*
X820243Y564143D01*
X819772Y564848D01*
X819771Y564848D01*
X819259Y565360D01*
X821659D01*
Y571500D01*
X824199D01*
Y565360D01*
X826954D01*
Y563880D01*
X826954Y563880D01*
X827230Y562492D01*
X828016Y561316D01*
X830764Y558568D01*
Y556411D01*
X828184D01*
Y545363D01*
X835104D01*
X842083Y538384D01*
X831246D01*
Y523336D01*
X832666D01*
Y514254D01*
X830326D01*
Y499206D01*
X836514D01*
X840810Y494910D01*
X842154Y494012D01*
X843740Y493696D01*
X872240D01*
X873825Y494012D01*
X875170Y494910D01*
X879254Y498994D01*
X880152Y500339D01*
X880251Y500836D01*
X881167Y501752D01*
X881202Y501759D01*
X884473D01*
X885257Y501915D01*
X885923Y502360D01*
X886367Y503025D01*
X886523Y503810D01*
Y519335D01*
X886367Y520120D01*
X885923Y520785D01*
X885257Y521230D01*
X884473Y521386D01*
X878948D01*
X878163Y521230D01*
X877497Y520785D01*
X877053Y520120D01*
X876897Y519335D01*
Y509066D01*
X876487Y508792D01*
X873823Y506129D01*
Y519335D01*
X873667Y520120D01*
X873223Y520785D01*
X872557Y521230D01*
X872265Y521288D01*
Y529630D01*
X872265Y529630D01*
X871989Y531018D01*
X871203Y532194D01*
X871203Y532194D01*
X862354Y541044D01*
X861178Y541830D01*
X859790Y542106D01*
X859790Y542106D01*
X848616D01*
X840232Y550490D01*
Y556411D01*
X838016D01*
Y560070D01*
X838016Y560070D01*
X837740Y561457D01*
X836954Y562634D01*
X834206Y565382D01*
Y566376D01*
X838053D01*
Y576624D01*
X829069D01*
Y577640D01*
X822458D01*
X822362Y578127D01*
X821576Y579303D01*
X821576Y579303D01*
X819195Y581684D01*
X818019Y582470D01*
X816631Y582746D01*
X816631Y582746D01*
X808831D01*
X807443Y582470D01*
X806972Y582155D01*
X806267Y581684D01*
X806267Y581684D01*
X803032Y578449D01*
X802246Y577273D01*
X802174Y576907D01*
X796931D01*
Y587029D01*
X799140Y589239D01*
X799403Y589631D01*
X799736Y589965D01*
X799917Y590401D01*
X800179Y590793D01*
X800271Y591256D01*
X800452Y591692D01*
Y592164D01*
X800544Y592627D01*
X800452Y593089D01*
Y593561D01*
X800271Y593997D01*
X800179Y594460D01*
X799917Y594852D01*
X799736Y595288D01*
X799403Y595622D01*
X799140Y596014D01*
X798748Y596277D01*
X798415Y596610D01*
X797978Y596791D01*
X797586Y597053D01*
X797123Y597145D01*
X796687Y597326D01*
X796215D01*
X795753Y597418D01*
D02*
G37*
G36*
X680026Y616004D02*
X676334D01*
X672767Y615048D01*
X669569Y613202D01*
X666958Y610591D01*
X665112Y607393D01*
X664156Y603826D01*
Y600134D01*
X665112Y596567D01*
X666958Y593369D01*
X669569Y590758D01*
X672767Y588912D01*
X676334Y587956D01*
X680026D01*
X683593Y588912D01*
X686791Y590758D01*
X689402Y593369D01*
X691248Y596567D01*
X692204Y600134D01*
Y603826D01*
X691248Y607393D01*
X689402Y610591D01*
X686791Y613202D01*
X683593Y615048D01*
X680026Y616004D01*
D02*
G37*
G36*
X721590Y594360D02*
X712470D01*
Y585240D01*
X712568D01*
X715210Y585948D01*
X717580Y587316D01*
X719514Y589250D01*
X720882Y591620D01*
X721590Y594262D01*
Y594360D01*
D02*
G37*
G36*
X709930D02*
X700810D01*
Y594262D01*
X701518Y591620D01*
X702886Y589250D01*
X704820Y587316D01*
X707190Y585948D01*
X709832Y585240D01*
X709930D01*
Y594360D01*
D02*
G37*
G36*
X982980Y575890D02*
Y571500D01*
X987370D01*
X986555Y573467D01*
X984947Y575075D01*
X982980Y575890D01*
D02*
G37*
G36*
X754264Y576907D02*
X731416D01*
Y568559D01*
X754264D01*
Y576907D01*
D02*
G37*
G36*
X859072Y577886D02*
X853548D01*
X852763Y577729D01*
X852097Y577285D01*
X851653Y576620D01*
X851497Y575835D01*
Y560310D01*
X851653Y559525D01*
X852097Y558859D01*
X852763Y558415D01*
X853548Y558259D01*
X859072D01*
X859857Y558415D01*
X860523Y558859D01*
X860967Y559525D01*
X861123Y560310D01*
Y575835D01*
X860967Y576620D01*
X860523Y577285D01*
X859857Y577729D01*
X859072Y577886D01*
D02*
G37*
G36*
X957513Y577811D02*
X951988D01*
X951203Y577655D01*
X950537Y577210D01*
X950093Y576545D01*
X949937Y575760D01*
Y560235D01*
X950093Y559450D01*
X950537Y558785D01*
X951203Y558340D01*
X951988Y558184D01*
X957513D01*
X958297Y558340D01*
X958963Y558785D01*
X959407Y559450D01*
X959563Y560235D01*
Y575760D01*
X959407Y576545D01*
X958963Y577210D01*
X958297Y577655D01*
X957513Y577811D01*
D02*
G37*
G36*
X980440Y575890D02*
X978473Y575075D01*
X976865Y573467D01*
X975995Y571367D01*
Y571291D01*
X972518Y567813D01*
X971479Y566259D01*
X971115Y564426D01*
Y561531D01*
X967959D01*
Y552450D01*
X981621D01*
Y561531D01*
X980697D01*
Y562441D01*
X982771Y564515D01*
X982847D01*
X984947Y565385D01*
X986555Y566993D01*
X987370Y568960D01*
X981710D01*
Y570230D01*
X980440D01*
Y575890D01*
D02*
G37*
G36*
X709930Y548810D02*
X700660D01*
Y542290D01*
X709930D01*
Y548810D01*
D02*
G37*
G36*
X981621Y549910D02*
X976060D01*
Y540829D01*
X981621D01*
Y549910D01*
D02*
G37*
G36*
X709930Y539750D02*
X700660D01*
Y533230D01*
X709930D01*
Y539750D01*
D02*
G37*
G36*
X991574Y588054D02*
X945026D01*
X943440Y587738D01*
X942096Y586840D01*
X939120Y583864D01*
X938222Y582520D01*
X937906Y580934D01*
Y577256D01*
X937837Y577210D01*
X937393Y576545D01*
X937237Y575760D01*
Y560235D01*
X937393Y559450D01*
X937837Y558785D01*
X938503Y558340D01*
X939287Y558184D01*
X944812D01*
X945597Y558340D01*
X946263Y558785D01*
X946707Y559450D01*
X946863Y560235D01*
Y575760D01*
X946707Y576545D01*
X946263Y577210D01*
X946194Y577256D01*
Y579218D01*
X946742Y579766D01*
X989858D01*
X992121Y577503D01*
X992760Y577076D01*
X993375Y574783D01*
X994609Y572645D01*
X996354Y570900D01*
X997576Y570194D01*
Y560515D01*
X995515D01*
Y541845D01*
X997186D01*
Y532814D01*
X992776D01*
Y531933D01*
X985654D01*
Y535564D01*
X973466D01*
X970346Y538684D01*
X970399Y538813D01*
Y540682D01*
X970338Y540829D01*
X973520D01*
Y549910D01*
X967959D01*
Y543898D01*
X966635Y544446D01*
X964765D01*
X963038Y543731D01*
X961716Y542409D01*
X961001Y540682D01*
Y538813D01*
X961716Y537086D01*
X961855Y536947D01*
X962115Y535641D01*
X963013Y534296D01*
X967606Y529704D01*
Y520016D01*
X985654D01*
Y523646D01*
X992776D01*
Y518266D01*
X1013824D01*
Y532814D01*
X1005474D01*
Y541845D01*
X1007145D01*
Y560515D01*
X1005863D01*
Y569744D01*
X1007866Y570900D01*
X1009611Y572645D01*
X1010845Y574783D01*
X1011484Y577167D01*
Y579635D01*
X1010845Y582019D01*
X1009611Y584157D01*
X1007866Y585902D01*
X1005728Y587136D01*
X1003344Y587775D01*
X1000876D01*
X998492Y587136D01*
X996354Y585902D01*
X995898Y585446D01*
X994504Y586840D01*
X993160Y587738D01*
X991574Y588054D01*
D02*
G37*
G36*
X947944Y526929D02*
X947944Y526929D01*
X899223D01*
X899223Y526929D01*
X897836Y526653D01*
X896660Y525867D01*
X896660Y525867D01*
X893064Y522272D01*
X892472Y521386D01*
X891647D01*
X890863Y521230D01*
X890197Y520785D01*
X889753Y520120D01*
X889597Y519335D01*
Y503810D01*
X889753Y503025D01*
X890197Y502360D01*
X890863Y501915D01*
X891647Y501759D01*
X895476D01*
X895628Y501729D01*
X895628Y501729D01*
X896826D01*
X900661Y497894D01*
Y497388D01*
X901376Y495661D01*
X902698Y494339D01*
X904425Y493623D01*
X906295D01*
X908022Y494339D01*
X909344Y495661D01*
X910059Y497388D01*
Y499257D01*
X909344Y500984D01*
X908022Y502306D01*
X906295Y503021D01*
X905788D01*
X900892Y507918D01*
X899715Y508704D01*
X899223Y508802D01*
Y512638D01*
X899254Y512790D01*
X899254Y512790D01*
Y518206D01*
X900725Y519678D01*
X911920D01*
X911837Y519260D01*
Y503735D01*
X911993Y502950D01*
X912437Y502285D01*
X913103Y501840D01*
X913887Y501684D01*
X919413D01*
X920197Y501840D01*
X920863Y502285D01*
X921307Y502950D01*
X921463Y503735D01*
Y519260D01*
X921380Y519678D01*
X924620D01*
X924537Y519260D01*
Y503735D01*
X924693Y502950D01*
X925137Y502285D01*
X925382Y502121D01*
Y498958D01*
X924386Y497962D01*
X923671Y496235D01*
Y494365D01*
X924386Y492638D01*
X925708Y491316D01*
X927049Y490761D01*
X929686Y488124D01*
X927854D01*
X919914Y496063D01*
X919654Y496692D01*
X918332Y498014D01*
X916605Y498729D01*
X914735D01*
X913008Y498014D01*
X911686Y496692D01*
X910971Y494965D01*
Y493095D01*
X911686Y491368D01*
X913008Y490046D01*
X914735Y489331D01*
X914926D01*
X916213Y488044D01*
X904826D01*
Y466996D01*
X909226D01*
Y456862D01*
X900376D01*
Y441478D01*
X900296Y441078D01*
Y433716D01*
X897839Y431259D01*
X896498Y430704D01*
X895176Y429382D01*
X894461Y427655D01*
Y425785D01*
X895176Y424058D01*
X896498Y422736D01*
X898225Y422021D01*
X900095D01*
X901822Y422736D01*
X903144Y424058D01*
X903699Y425399D01*
X906545Y428245D01*
X906572Y428110D01*
X907470Y426766D01*
X910446Y423790D01*
X911790Y422892D01*
X913376Y422576D01*
X928204D01*
X934555Y416225D01*
Y405031D01*
X919645D01*
Y422085D01*
X908015D01*
Y408543D01*
X903757Y404284D01*
X902635Y404749D01*
X900765D01*
X899038Y404034D01*
X897716Y402712D01*
X897001Y400985D01*
Y399115D01*
X897716Y397388D01*
X899038Y396066D01*
X900765Y395351D01*
X902635D01*
X904362Y396066D01*
X905174Y396879D01*
X906475Y397138D01*
X907651Y397924D01*
X913143Y403415D01*
X914519D01*
X911012Y399908D01*
X909974Y398354D01*
X909609Y396521D01*
Y395161D01*
X908269D01*
Y386080D01*
X921931D01*
Y395161D01*
X919816D01*
X920104Y395449D01*
X958884D01*
X960718Y395814D01*
X962272Y396852D01*
X968162Y402743D01*
Y398358D01*
X967949Y398145D01*
X967873D01*
X965773Y397275D01*
X964165Y395667D01*
X963350Y393700D01*
X969010D01*
Y392430D01*
X970280D01*
Y386770D01*
X972247Y387585D01*
X973855Y389193D01*
X974725Y391293D01*
Y391369D01*
X976341Y392985D01*
X977380Y394540D01*
X977744Y396373D01*
Y406019D01*
X981243D01*
Y416289D01*
X972953D01*
X964663D01*
Y412795D01*
X956900Y405031D01*
X946185D01*
Y422085D01*
X940415D01*
X932850Y429650D01*
X931506Y430548D01*
X929920Y430864D01*
X915092D01*
X914544Y431412D01*
Y437014D01*
X920424D01*
Y456862D01*
X917514D01*
Y466996D01*
X919374D01*
Y484883D01*
X923207Y481050D01*
X924552Y480152D01*
X926137Y479836D01*
X934826D01*
Y466996D01*
X937956D01*
Y456862D01*
X936176D01*
Y437014D01*
X956224D01*
Y456862D01*
X946244D01*
Y466996D01*
X949374D01*
Y484883D01*
X954454Y479804D01*
X955798Y478905D01*
X957384Y478590D01*
X965576D01*
Y474287D01*
X959269D01*
X958515Y474599D01*
X956645D01*
X954918Y473884D01*
X953596Y472562D01*
X952881Y470835D01*
Y468965D01*
X953596Y467238D01*
X954918Y465916D01*
X956645Y465201D01*
X958515D01*
X960242Y465916D01*
X960325Y465999D01*
X965576D01*
Y462146D01*
X981124D01*
Y480194D01*
X969394D01*
X974600Y485400D01*
X974678Y485516D01*
X979794D01*
X992110Y473200D01*
X993454Y472302D01*
X995040Y471986D01*
X995040Y471986D01*
X1000076D01*
Y462146D01*
X1015624D01*
Y480194D01*
X1004540D01*
X1004140Y480274D01*
X996756D01*
X987394Y489636D01*
X992776D01*
Y488266D01*
X1013824D01*
Y502814D01*
X992776D01*
Y497924D01*
X985654D01*
Y501064D01*
X968952D01*
X973637Y505749D01*
X986039D01*
X986093Y505695D01*
X988060Y504880D01*
Y510540D01*
Y516200D01*
X986093Y515385D01*
X986039Y515331D01*
X971652D01*
X970123Y515027D01*
X969819Y514966D01*
X968265Y513928D01*
X959563Y505227D01*
Y519260D01*
X959407Y520045D01*
X958963Y520710D01*
X958297Y521155D01*
X957513Y521311D01*
X955064D01*
X950508Y525867D01*
X949332Y526653D01*
X947944Y526929D01*
D02*
G37*
G36*
X990600Y516200D02*
Y511810D01*
X994990D01*
X994175Y513777D01*
X992567Y515385D01*
X990600Y516200D01*
D02*
G37*
G36*
X755280Y552523D02*
X744110D01*
Y547333D01*
Y542143D01*
X755280D01*
Y543708D01*
X756848D01*
X757104Y543451D01*
Y531592D01*
X742783Y517270D01*
X741390D01*
Y508000D01*
X747910D01*
Y512142D01*
X763294Y527526D01*
X763294Y527526D01*
X763765Y528231D01*
X764080Y528703D01*
X764356Y530090D01*
Y544952D01*
X764356Y544953D01*
X764080Y546340D01*
X763294Y547516D01*
X763294Y547516D01*
X760913Y549897D01*
X759737Y550683D01*
X758349Y550959D01*
X758349Y550959D01*
X755280D01*
Y552523D01*
D02*
G37*
G36*
X738850Y517270D02*
X732330D01*
Y508000D01*
X738850D01*
Y517270D01*
D02*
G37*
G36*
X994990Y509270D02*
X990600D01*
Y504880D01*
X992567Y505695D01*
X994175Y507303D01*
X994990Y509270D01*
D02*
G37*
G36*
X822390Y505460D02*
X816620D01*
Y498190D01*
X822390D01*
Y505460D01*
D02*
G37*
G36*
X990513Y462547D02*
Y458157D01*
X994903D01*
X994088Y460124D01*
X992480Y461732D01*
X990513Y462547D01*
D02*
G37*
G36*
X972820Y456040D02*
X965800D01*
Y445770D01*
X972820D01*
Y456040D01*
D02*
G37*
G36*
X772078Y446956D02*
X768376D01*
Y443254D01*
X769984Y443919D01*
X771413Y445349D01*
X772078Y446956D01*
D02*
G37*
G36*
X987973Y462547D02*
X986006Y461732D01*
X984398Y460124D01*
X983528Y458024D01*
Y457948D01*
X981620Y456040D01*
X975360D01*
Y444500D01*
X974090D01*
Y443230D01*
X965800D01*
Y432960D01*
X968162D01*
Y429099D01*
X964663D01*
Y418829D01*
X972953D01*
X981243D01*
Y429099D01*
X977744D01*
Y432960D01*
X982380D01*
Y443248D01*
X990304Y451172D01*
X990380D01*
X992480Y452042D01*
X994088Y453650D01*
X994903Y455617D01*
X989243D01*
Y456887D01*
X987973D01*
Y462547D01*
D02*
G37*
G36*
X886279Y443046D02*
X886279Y443046D01*
X831850D01*
X830462Y442770D01*
X829991Y442455D01*
X829286Y441984D01*
X829286Y441984D01*
X825756Y438454D01*
X824970Y437277D01*
X824694Y435890D01*
X824694Y435890D01*
Y432216D01*
X824107Y431823D01*
X823663Y431158D01*
X823507Y430373D01*
Y414848D01*
X823663Y414063D01*
X824107Y413398D01*
X824554Y413099D01*
Y408290D01*
X824056Y407792D01*
X823341Y406065D01*
Y404195D01*
X824056Y402468D01*
X825378Y401146D01*
X827105Y400431D01*
X828975D01*
X829003Y400443D01*
X824387Y395827D01*
X824214D01*
Y396004D01*
X812022D01*
X812178Y396108D01*
X818250Y402180D01*
X819148Y403524D01*
X819463Y405110D01*
Y413151D01*
X819833Y413398D01*
X820277Y414063D01*
X820433Y414848D01*
Y430373D01*
X820277Y431158D01*
X819833Y431823D01*
X819167Y432268D01*
X818382Y432424D01*
X812858D01*
X812073Y432268D01*
X811407Y431823D01*
X810963Y431158D01*
X810807Y430373D01*
Y414848D01*
X810963Y414063D01*
X811176Y413744D01*
Y406826D01*
X811149Y406799D01*
Y408605D01*
X810434Y410332D01*
X809112Y411654D01*
X807764Y412212D01*
Y417119D01*
X807764Y417119D01*
X807733Y417271D01*
Y430373D01*
X807577Y431158D01*
X807133Y431823D01*
X806467Y432268D01*
X805683Y432424D01*
X800157D01*
X799373Y432268D01*
X798707Y431823D01*
X798263Y431158D01*
X798107Y430373D01*
Y418657D01*
X795033Y415584D01*
Y430373D01*
X794877Y431158D01*
X794433Y431823D01*
X793767Y432268D01*
X792982Y432424D01*
X787458D01*
X786673Y432268D01*
X786007Y431823D01*
X785563Y431158D01*
X785407Y430373D01*
Y414848D01*
X785563Y414063D01*
X786007Y413398D01*
X786673Y412953D01*
X787458Y412797D01*
X792247D01*
X790031Y410581D01*
X764578D01*
X762992Y410266D01*
X761648Y409368D01*
X757800Y405520D01*
X756902Y404176D01*
X756586Y402590D01*
Y367030D01*
X756902Y365444D01*
X757800Y364100D01*
X765039Y356861D01*
X766383Y355963D01*
X767969Y355647D01*
X830961D01*
X832547Y355963D01*
X833891Y356861D01*
X851346Y374316D01*
X872636D01*
X874221Y374632D01*
X875566Y375530D01*
X878100Y378064D01*
X878998Y379409D01*
X879314Y380994D01*
Y389409D01*
X879234Y389810D01*
Y400495D01*
X867605D01*
Y382604D01*
X852694D01*
Y394635D01*
X855319Y397260D01*
X856217Y398604D01*
X856533Y400190D01*
Y405252D01*
X856217Y406837D01*
X855319Y408182D01*
X849272Y414229D01*
X853323D01*
X854107Y414385D01*
X854773Y414830D01*
X855217Y415495D01*
X855373Y416280D01*
Y431805D01*
X855217Y432590D01*
X854773Y433256D01*
X854107Y433700D01*
X853323Y433856D01*
X847797D01*
X847013Y433700D01*
X846347Y433256D01*
X845903Y432590D01*
X845747Y431805D01*
Y423420D01*
X844169Y424997D01*
Y425115D01*
X843454Y426842D01*
X842132Y428164D01*
X840405Y428879D01*
X838535D01*
X836808Y428164D01*
X835486Y426842D01*
X834771Y425115D01*
Y423245D01*
X835486Y421518D01*
X836808Y420196D01*
X837562Y419884D01*
X839102Y418344D01*
Y414395D01*
X839291Y413446D01*
X837722D01*
X835995Y412731D01*
X834673Y411409D01*
X833957Y409682D01*
Y407812D01*
X834270Y407058D01*
Y405710D01*
X832727Y404167D01*
X832739Y404195D01*
Y406065D01*
X832024Y407792D01*
X831806Y408010D01*
Y412941D01*
X831867Y412953D01*
X832533Y413398D01*
X832977Y414063D01*
X833133Y414848D01*
Y430373D01*
X832977Y431158D01*
X832533Y431823D01*
X831946Y432216D01*
Y434388D01*
X833352Y435794D01*
X884778D01*
X885034Y435538D01*
Y433648D01*
X884447Y433256D01*
X884003Y432590D01*
X883847Y431805D01*
Y416280D01*
X884003Y415495D01*
X884447Y414830D01*
X885113Y414385D01*
X885898Y414229D01*
X891423D01*
X892207Y414385D01*
X892873Y414830D01*
X893317Y415495D01*
X893473Y416280D01*
Y431805D01*
X893317Y432590D01*
X892873Y433256D01*
X892286Y433648D01*
Y437039D01*
X892286Y437039D01*
X892010Y438427D01*
X891224Y439603D01*
X891224Y439603D01*
X888843Y441984D01*
X887667Y442770D01*
X886279Y443046D01*
D02*
G37*
G36*
X705499Y414320D02*
X705348D01*
X702604Y413585D01*
X700144Y412164D01*
X698135Y410155D01*
X696714Y407695D01*
X695979Y404950D01*
Y404800D01*
X705499D01*
Y414320D01*
D02*
G37*
G36*
X878723Y433856D02*
X873197D01*
X872413Y433700D01*
X871747Y433256D01*
X871303Y432590D01*
X871147Y431805D01*
Y416280D01*
X871303Y415495D01*
X871747Y414830D01*
X872413Y414385D01*
X872526Y414363D01*
Y409840D01*
X872842Y408254D01*
X873740Y406910D01*
X874301Y406349D01*
X874856Y405008D01*
X876178Y403686D01*
X877905Y402971D01*
X879775D01*
X881502Y403686D01*
X882824Y405008D01*
X883539Y406735D01*
Y408605D01*
X882824Y410332D01*
X881502Y411654D01*
X880814Y411939D01*
Y427583D01*
X880814Y427583D01*
X880773Y427785D01*
Y431805D01*
X880617Y432590D01*
X880173Y433256D01*
X879507Y433700D01*
X878723Y433856D01*
D02*
G37*
G36*
X866023D02*
X860498D01*
X859713Y433700D01*
X859047Y433256D01*
X858603Y432590D01*
X858447Y431805D01*
Y416280D01*
X858603Y415495D01*
X859047Y414830D01*
X859116Y414784D01*
Y409125D01*
X858901Y408605D01*
Y406735D01*
X859616Y405008D01*
X860938Y403686D01*
X862665Y402971D01*
X864535D01*
X866262Y403686D01*
X867584Y405008D01*
X868299Y406735D01*
Y408605D01*
X867584Y410332D01*
X867404Y410512D01*
Y414784D01*
X867473Y414830D01*
X867917Y415495D01*
X868073Y416280D01*
Y431805D01*
X867917Y432590D01*
X867473Y433256D01*
X866807Y433700D01*
X866023Y433856D01*
D02*
G37*
G36*
X1011364Y455024D02*
X996816D01*
Y433976D01*
X999946D01*
Y428083D01*
X995679D01*
Y407035D01*
X998810D01*
Y404300D01*
X992471Y397962D01*
X990673Y398443D01*
X988205D01*
X985821Y397805D01*
X983683Y396571D01*
X981938Y394825D01*
X980704Y392688D01*
X980065Y390303D01*
Y387835D01*
X980547Y386037D01*
X973303Y378794D01*
X955189D01*
X953603Y378478D01*
X952259Y377580D01*
X947122Y372444D01*
X869686D01*
X868345Y372999D01*
X866475D01*
X864748Y372284D01*
X863426Y370962D01*
X862711Y369235D01*
Y367365D01*
X863426Y365638D01*
X864748Y364316D01*
X866475Y363601D01*
X868345D01*
X869686Y364156D01*
X948839D01*
X950424Y364472D01*
X951769Y365370D01*
X956905Y370506D01*
X975020D01*
X976605Y370822D01*
X977950Y371720D01*
X986407Y380177D01*
X988205Y379695D01*
X990673D01*
X993057Y380334D01*
X995195Y381568D01*
X996940Y383314D01*
X998174Y385451D01*
X998813Y387835D01*
Y390303D01*
X998331Y392102D01*
X1005883Y399654D01*
X1006781Y400998D01*
X1007097Y402584D01*
Y407035D01*
X1010227D01*
Y428083D01*
X1008234D01*
Y433976D01*
X1011364D01*
Y455024D01*
D02*
G37*
G36*
X705499Y402260D02*
X695979D01*
Y402109D01*
X696714Y399365D01*
X698135Y396905D01*
X700144Y394896D01*
X702604Y393475D01*
X705348Y392740D01*
X705499D01*
Y402260D01*
D02*
G37*
G36*
X967740Y391160D02*
X963350D01*
X964165Y389193D01*
X965773Y387585D01*
X967740Y386770D01*
Y391160D01*
D02*
G37*
G36*
X947455Y394145D02*
X935825D01*
Y375475D01*
X947455D01*
Y384476D01*
X952765D01*
X954105Y383921D01*
X955975D01*
X957702Y384636D01*
X959024Y385958D01*
X959739Y387685D01*
Y389555D01*
X959024Y391282D01*
X957702Y392604D01*
X955975Y393319D01*
X954105D01*
X952765Y392764D01*
X947455D01*
Y394145D01*
D02*
G37*
G36*
X921931Y383540D02*
X916370D01*
Y374459D01*
X921931D01*
Y383540D01*
D02*
G37*
G36*
X913830D02*
X908269D01*
Y374459D01*
X913830D01*
Y383540D01*
D02*
G37*
G36*
X1024196Y379784D02*
X1020504D01*
X1016937Y378828D01*
X1013739Y376982D01*
X1011128Y374371D01*
X1009282Y371173D01*
X1008326Y367606D01*
Y363914D01*
X1009282Y360347D01*
X1011128Y357149D01*
X1013739Y354538D01*
X1016937Y352692D01*
X1020504Y351736D01*
X1024196D01*
X1027763Y352692D01*
X1030961Y354538D01*
X1033572Y357149D01*
X1035418Y360347D01*
X1036374Y363914D01*
Y367606D01*
X1035418Y371173D01*
X1033572Y374371D01*
X1030961Y376982D01*
X1027763Y378828D01*
X1024196Y379784D01*
D02*
G37*
G36*
X683836Y377244D02*
X680144D01*
X676577Y376288D01*
X673379Y374442D01*
X670768Y371831D01*
X668922Y368633D01*
X667966Y365066D01*
Y361374D01*
X668922Y357807D01*
X670768Y354609D01*
X673379Y351998D01*
X676577Y350152D01*
X680144Y349196D01*
X683836D01*
X687403Y350152D01*
X690601Y351998D01*
X693212Y354609D01*
X695058Y357807D01*
X696014Y361374D01*
Y365066D01*
X695058Y368633D01*
X693212Y371831D01*
X690601Y374442D01*
X687403Y376288D01*
X683836Y377244D01*
D02*
G37*
%LPD*%
G36*
X936201Y519260D02*
Y512767D01*
X942050D01*
X947899D01*
Y518221D01*
X949937Y516183D01*
Y505227D01*
X947899Y507264D01*
Y510227D01*
X942050D01*
X936201D01*
Y503735D01*
X936436Y502554D01*
X937105Y501552D01*
X938106Y500883D01*
X939287Y500648D01*
X940964D01*
X946451Y495161D01*
X947100Y494728D01*
X934802D01*
X933571Y495959D01*
X933670Y496456D01*
X933670Y496456D01*
Y502445D01*
X934007Y502950D01*
X934163Y503735D01*
Y519260D01*
X934080Y519678D01*
X936284D01*
X936201Y519260D01*
D02*
G37*
D17*
X822929Y571500D02*
D03*
X832929D02*
D03*
D18*
X767430Y425743D02*
D03*
Y435743D02*
D03*
D19*
X814190Y386080D02*
D03*
X778390D02*
D03*
X946200Y446938D02*
D03*
X910400D02*
D03*
D20*
X790220Y422611D02*
D03*
X802920D02*
D03*
X815620D02*
D03*
X828320D02*
D03*
X790220Y479111D02*
D03*
X802920D02*
D03*
X815620D02*
D03*
X828320D02*
D03*
X888660Y480543D02*
D03*
X875960D02*
D03*
X863260D02*
D03*
X850560D02*
D03*
X888660Y424043D02*
D03*
X875960D02*
D03*
X863260D02*
D03*
X850560D02*
D03*
X954750Y567997D02*
D03*
X942050D02*
D03*
X929350D02*
D03*
X916650D02*
D03*
X954750Y511497D02*
D03*
X942050D02*
D03*
X929350D02*
D03*
X916650D02*
D03*
X894410Y568072D02*
D03*
X881710D02*
D03*
X869010D02*
D03*
X856310D02*
D03*
X894410Y511572D02*
D03*
X881710D02*
D03*
X869010D02*
D03*
X856310D02*
D03*
D21*
X846879Y391160D02*
D03*
X873419D02*
D03*
X940370Y412750D02*
D03*
X913830D02*
D03*
X915100Y384810D02*
D03*
X941640D02*
D03*
X974790Y551180D02*
D03*
X1001330D02*
D03*
D22*
X1004090Y444500D02*
D03*
X974090D02*
D03*
X1002953Y417559D02*
D03*
X972953D02*
D03*
X912100Y477520D02*
D03*
X942100D02*
D03*
D23*
X1007850Y471170D02*
D03*
X973350Y471170D02*
D03*
D24*
X1003300Y495540D02*
D03*
Y525540D02*
D03*
D25*
X976630Y493290D02*
D03*
X976630Y527790D02*
D03*
D26*
X837270Y530860D02*
D03*
X816270D02*
D03*
X815350Y506730D02*
D03*
X836350D02*
D03*
D27*
X769620D02*
D03*
X740120D02*
D03*
D28*
X711200Y524020D02*
D03*
Y494520D02*
D03*
Y570520D02*
D03*
Y541020D02*
D03*
D29*
X742840Y572733D02*
D03*
Y560033D02*
D03*
Y547333D02*
D03*
Y534633D02*
D03*
X792140D02*
D03*
Y547333D02*
D03*
Y560033D02*
D03*
Y572733D02*
D03*
D30*
X817208Y550887D02*
D03*
X834208D02*
D03*
D45*
X989439Y389069D02*
D03*
X711200Y595630D02*
D03*
X1002110Y578401D02*
D03*
X792860Y506730D02*
D03*
X826798Y597490D02*
D03*
D49*
X1004090Y418696D02*
Y444500D01*
X1002953Y402584D02*
Y417559D01*
X1004090Y418696D01*
X975380Y527790D02*
X996530D01*
X965943Y537226D02*
Y539504D01*
X965700Y539747D02*
X965943Y539504D01*
Y537226D02*
X975380Y527790D01*
X957384Y482734D02*
X966074D01*
X949533Y490584D02*
X957384Y482734D01*
X966074D02*
X971670Y488330D01*
X933086Y490584D02*
X949533D01*
X971670Y488330D02*
Y489580D01*
X957823Y470143D02*
X972324D01*
X957580Y469900D02*
X957823Y470143D01*
X971670Y489580D02*
X975380Y493290D01*
X972324Y470143D02*
X973350Y471170D01*
X928370Y495300D02*
X933086Y490584D01*
X975380Y493290D02*
X976630D01*
X973522Y441166D02*
Y443932D01*
Y440597D02*
Y441166D01*
X764578Y406438D02*
X791747D01*
X760730Y402590D02*
X764578Y406438D01*
X760730Y367030D02*
Y402590D01*
Y367030D02*
X767969Y359791D01*
X830961D01*
X819793Y391683D02*
X826103D01*
X814190Y386080D02*
X819793Y391683D01*
X826103D02*
X838413Y403993D01*
Y408504D01*
X838656Y408747D01*
X778390Y386080D02*
X778490D01*
X788473Y396063D01*
X792480D01*
X840549Y385889D02*
X844359D01*
X830580Y375920D02*
X840549Y385889D01*
X867410Y368300D02*
X948839D01*
X955189Y374650D01*
X872636Y378460D02*
X875170Y380994D01*
X849630Y378460D02*
X872636D01*
X873419Y391160D02*
X875170Y389409D01*
Y380994D02*
Y389409D01*
X852389Y400190D02*
Y405252D01*
X846879Y394680D02*
X852389Y400190D01*
X846879Y391160D02*
Y394680D01*
X802920Y417611D02*
Y418337D01*
X809248Y399038D02*
X815320Y405110D01*
X795456Y399038D02*
X809248D01*
X792480Y396063D02*
X795456Y399038D01*
X792480Y369914D02*
Y396063D01*
X795020Y367030D02*
Y367374D01*
X792480Y369914D02*
X795020Y367374D01*
X830961Y359791D02*
X849630Y378460D01*
X955189Y374650D02*
X975020D01*
X989439Y389069D01*
X843246Y414395D02*
Y420060D01*
X839470Y423836D02*
X843246Y420060D01*
Y414395D02*
X852389Y405252D01*
X839470Y423836D02*
Y424180D01*
X886744Y496327D02*
X887487D01*
X875960Y476293D02*
Y485543D01*
X887487Y496327D02*
X887730Y496570D01*
X875960Y485543D02*
X886744Y496327D01*
X989439Y389069D02*
X1002953Y402584D01*
X943391Y388620D02*
X955040D01*
X941640Y386869D02*
X943391Y388620D01*
X941640Y384810D02*
Y386869D01*
X863260Y408010D02*
X863600Y407670D01*
X863260Y408010D02*
Y428293D01*
X875960D02*
X876670Y427583D01*
Y409840D02*
Y427583D01*
Y409840D02*
X878840Y407670D01*
X928370Y495300D02*
X929526Y496456D01*
Y515571D01*
X833899Y598205D02*
X836404Y600710D01*
X822897Y597490D02*
X823612Y598205D01*
X836404Y600710D02*
X891540D01*
X823612Y598205D02*
X833899D01*
X881710Y568072D02*
Y590880D01*
X891540Y600710D02*
X925830D01*
X881710Y590880D02*
X891540Y600710D01*
X942100Y476250D02*
X943370Y477520D01*
X916087Y494030D02*
X926137Y483980D01*
X915670Y494030D02*
X916087D01*
X872240Y497840D02*
X876324Y501925D01*
X836350Y505230D02*
X843740Y497840D01*
X872240D01*
X942100Y451038D02*
Y476250D01*
Y451038D02*
X946200Y446938D01*
X876324Y502769D02*
X879417Y505862D01*
X881000D02*
X881710Y506572D01*
X876324Y501925D02*
Y502769D01*
X879417Y505862D02*
X881000D01*
X881710Y506572D02*
Y515906D01*
X802210Y416901D02*
X802210D01*
X791747Y406438D02*
X802210Y416901D01*
X802210D02*
X802920Y417611D01*
X815320Y405110D02*
Y418311D01*
X942050Y580934D02*
X945026Y583910D01*
X942050Y567997D02*
Y580934D01*
X945026Y583910D02*
X991574D01*
X995051Y580433D01*
X1000078D01*
X1002110Y578401D01*
X836350Y505230D02*
Y506730D01*
X1001330Y526240D02*
X1003300Y524270D01*
X1001330Y526240D02*
Y551180D01*
X1001720Y551570D01*
Y578011D01*
X1002110Y578401D01*
X925830Y600710D02*
X956310Y631190D01*
X961390Y628650D02*
X962660Y629920D01*
X899160Y426720D02*
X904440Y432000D01*
Y441078D01*
X910300Y446938D01*
X976630Y493290D02*
X977120Y493780D01*
X976630Y493290D02*
X977880D01*
X929920Y426720D02*
X940370Y416270D01*
X913376Y426720D02*
X929920D01*
X815320Y418311D02*
X815620Y418612D01*
X839126Y461010D02*
X839470D01*
X815620Y467110D02*
X822933Y459797D01*
X837913D01*
X839126Y461010D01*
X910300Y446938D02*
X910400D01*
X942100Y477520D02*
Y480770D01*
X938890Y483980D02*
X942100Y480770D01*
X926137Y483980D02*
X938890D01*
X977880Y493290D02*
X995040Y476130D01*
X1004140D01*
X1007850Y472420D01*
Y471170D02*
Y472420D01*
X1002810Y493780D02*
X1003300Y494270D01*
X977120Y493780D02*
X1002810D01*
X1000050Y524270D02*
X1003300D01*
X996530Y527790D02*
X1000050Y524270D01*
X836810Y530400D02*
X837270Y530860D01*
X836810Y507190D02*
Y530400D01*
X973522Y443932D02*
X974090Y444500D01*
X910400Y429696D02*
Y446938D01*
Y429696D02*
X913376Y426720D01*
X940370Y412750D02*
Y416270D01*
X910400Y446938D02*
X913370Y449908D01*
Y480060D01*
X815620Y467110D02*
Y474861D01*
D50*
X828180Y405270D02*
Y422471D01*
X828040Y405130D02*
X828180Y405270D01*
Y422471D02*
X828320Y422611D01*
X894410Y506572D02*
X895628Y505354D01*
X898328D02*
X905360Y498322D01*
X895628Y505354D02*
X898328D01*
X894410Y506572D02*
Y511572D01*
X805551Y564202D02*
X806450Y563302D01*
X805551Y568565D02*
X805596Y568610D01*
X805551Y564202D02*
Y568565D01*
X806450Y523240D02*
Y563302D01*
X805596Y568610D02*
Y575885D01*
X812281Y567210D02*
X817208Y562284D01*
X805596Y575885D02*
X808831Y579120D01*
X817208Y550887D02*
Y562284D01*
X806450Y523240D02*
X812882Y516808D01*
X693420Y553720D02*
X700151Y560451D01*
X727958D01*
X728376Y560033D02*
X742840D01*
X727958Y560451D02*
X728376Y560033D01*
X812882Y507698D02*
X815350Y505230D01*
X902137Y400487D02*
X905087D01*
X913830Y409230D01*
X901700Y400050D02*
X902137Y400487D01*
X800100Y497840D02*
X802722D01*
X797585Y495324D02*
X800100Y497840D01*
X781074Y495324D02*
X797585D01*
X807644Y502762D02*
X812882D01*
X802722Y497840D02*
X807644Y502762D01*
X894410Y511572D02*
X895628Y512790D01*
Y519708D01*
X899223Y523303D01*
X947944D01*
X954750Y511497D02*
Y516497D01*
X947944Y523303D02*
X954750Y516497D01*
X784860Y591820D02*
X789903Y586777D01*
X828320Y435890D02*
X831850Y439420D01*
X828320Y422611D02*
Y435890D01*
X831850Y439420D02*
X886279D01*
X888660Y424043D02*
Y437039D01*
X886279Y439420D02*
X888660Y437039D01*
X806450Y407670D02*
Y408289D01*
X804138Y410601D02*
Y417119D01*
X802920Y418337D02*
X804138Y417119D01*
Y410601D02*
X806450Y408289D01*
X774859Y488950D02*
X777240Y491331D01*
X740120D02*
X742501Y488950D01*
X812882Y502762D02*
X815350Y505230D01*
X777240Y491490D02*
X781074Y495324D01*
X777240Y491331D02*
Y491490D01*
X742501Y488950D02*
X774859D01*
X735250Y591820D02*
X784860D01*
X713950Y570520D02*
X735250Y591820D01*
X693420Y526401D02*
X695801Y524020D01*
X693420Y526401D02*
Y553720D01*
X695801Y524020D02*
X711200D01*
X913830Y409230D02*
Y412750D01*
X740120Y506730D02*
Y509480D01*
X760730Y530090D01*
Y544953D01*
X758349Y547333D02*
X760730Y544953D01*
X742840Y547333D02*
X758349D01*
X726737Y538480D02*
X735590Y547333D01*
X711200Y541020D02*
X713740Y538480D01*
X726737D01*
X717168Y497738D02*
Y507618D01*
X728980Y519430D02*
Y531634D01*
X717168Y507618D02*
X728980Y519430D01*
X731361Y534015D02*
X742222D01*
X728980Y531634D02*
X731361Y534015D01*
X868640Y516277D02*
Y529630D01*
X859790Y538480D02*
X868640Y529630D01*
X819012Y573068D02*
Y576739D01*
X808831Y579120D02*
X816631D01*
X819012Y573068D02*
X820580Y571500D01*
X816631Y579120D02*
X819012Y576739D01*
X812882Y507698D02*
Y516808D01*
X816270Y530860D02*
X816739Y531329D01*
Y550418D01*
X817208Y550887D01*
X868640Y516277D02*
X869010Y515906D01*
X847114Y538480D02*
X859790D01*
X834708Y550887D02*
X847114Y538480D01*
X834208Y550887D02*
X834708D01*
X834208D02*
X834390Y551069D01*
Y560070D01*
X830580Y563880D02*
X834390Y560070D01*
X830580Y563880D02*
Y571500D01*
X769620Y506730D02*
X792860D01*
Y534015D01*
X792242Y534633D02*
X792860Y534015D01*
X792140Y534633D02*
X792242D01*
X742222Y534015D02*
X742840Y534633D01*
X713950Y494520D02*
X717168Y497738D01*
X711200Y494520D02*
X713950D01*
X735590Y547333D02*
X742840D01*
X792140Y572733D02*
Y575383D01*
X711200Y570520D02*
X713950D01*
D51*
X971652Y510540D02*
X989330D01*
X959661Y498548D02*
X971652Y510540D01*
X949839Y498548D02*
X959661D01*
X942225Y506163D02*
X949839Y498548D01*
X942225Y506163D02*
Y507922D01*
X740120Y488950D02*
Y491331D01*
X713950Y541020D02*
X725170Y552240D01*
Y553720D01*
X740120Y470938D02*
Y488950D01*
X752043Y463289D02*
X767106Y448226D01*
X747769Y463289D02*
X752043D01*
X973522Y441166D02*
X989243Y456887D01*
X725489Y435610D02*
X754380D01*
X754513Y435743D02*
X767430D01*
X754380Y435610D02*
X754513Y435743D01*
X772160Y455930D02*
X784899D01*
X767080Y461010D02*
X772160Y455930D01*
X972953Y440597D02*
X973522Y441166D01*
X735801Y417031D02*
X759851D01*
X767080Y424260D01*
X722300Y403530D02*
X735801Y417031D01*
X706769Y403530D02*
X722300D01*
X706769Y454330D02*
X725489Y435610D01*
X684530Y476569D02*
Y566510D01*
X740120Y470938D02*
X747769Y463289D01*
X684530Y476569D02*
X706769Y454330D01*
X798169Y469360D02*
X802995Y474186D01*
X798169Y469200D02*
Y469360D01*
X802995Y474186D02*
Y486500D01*
X784899Y455930D02*
X798169Y469200D01*
X688250Y570230D02*
X710910D01*
X684530Y566510D02*
X688250Y570230D01*
X802995Y486500D02*
X808555Y492060D01*
X833231D02*
X835070Y490220D01*
X808555Y492060D02*
X833231D01*
X835070Y490220D02*
X839440Y485850D01*
X835070Y490220D02*
X835070D01*
X792140Y575383D02*
Y589014D01*
X795753Y592627D01*
X869085Y567997D02*
Y578231D01*
X929350Y562997D02*
Y567997D01*
X924599Y558246D02*
X929350Y562997D01*
X924599Y558087D02*
Y558246D01*
X921561Y555048D02*
X924599Y558087D01*
X876874Y555048D02*
X921561D01*
X873575Y558347D02*
X876874Y555048D01*
X873575Y558347D02*
Y558507D01*
X869010Y563072D02*
X873575Y558507D01*
X869010Y563072D02*
Y568072D01*
X863260Y475543D02*
X867825Y470978D01*
X863260Y475543D02*
Y480543D01*
X858509Y470792D02*
X863260Y475543D01*
X858509Y470632D02*
Y470792D01*
X855471Y467594D02*
X858509Y470632D01*
X845649Y467594D02*
X855471D01*
X839440Y473803D02*
X845649Y467594D01*
X839440Y473803D02*
Y485850D01*
X975906Y564426D02*
X981710Y570230D01*
X975906Y552296D02*
Y564426D01*
X974790Y551180D02*
X975906Y552296D01*
X972953Y396373D02*
Y414309D01*
X969010Y392430D02*
X972953Y396373D01*
Y417559D02*
Y440597D01*
X710910Y570230D02*
X711200Y570520D01*
Y541020D02*
X713950D01*
X740120Y491331D02*
Y506730D01*
X972953Y414309D02*
Y417559D01*
X958884Y400240D02*
X972953Y414309D01*
X918120Y400240D02*
X958884D01*
X914400Y396521D02*
X918120Y400240D01*
X914400Y385510D02*
Y396521D01*
Y385510D02*
X915100Y384810D01*
D52*
X706769Y403530D02*
D03*
X905510Y631190D02*
D03*
D53*
X706769Y454330D02*
D03*
D54*
X1023620Y654050D02*
D03*
X844550Y655320D02*
D03*
X1022350Y365760D02*
D03*
X681990Y363220D02*
D03*
X678180Y601980D02*
D03*
D55*
X956310Y631190D02*
D03*
D56*
X828040Y405130D02*
D03*
X989330Y510540D02*
D03*
X965700Y539747D02*
D03*
X957580Y469900D02*
D03*
X905360Y498322D02*
D03*
X812281Y567210D02*
D03*
X725170Y553720D02*
D03*
X754380Y435610D02*
D03*
X767080Y461010D02*
D03*
X838656Y408747D02*
D03*
X830580Y375920D02*
D03*
X867410Y368300D02*
D03*
X795020Y367030D02*
D03*
X765810Y473710D02*
D03*
X901700Y400050D02*
D03*
X839470Y424180D02*
D03*
X887730Y496570D02*
D03*
X955040Y388620D02*
D03*
X863600Y407670D02*
D03*
X878840D02*
D03*
X928370Y495300D02*
D03*
X795753Y592627D02*
D03*
X869085Y578231D02*
D03*
X915670Y494030D02*
D03*
X989243Y456887D02*
D03*
X806450Y407670D02*
D03*
X981710Y570230D02*
D03*
X899160Y426720D02*
D03*
X969010Y392430D02*
D03*
X839470Y461010D02*
D03*
D57*
X767106Y448226D02*
D03*
M02*
