G04*
G04 #@! TF.GenerationSoftware,Altium Limited,Altium Designer,25.3.3 (18)*
G04*
G04 Layer_Color=16711935*
%FSLAX44Y44*%
%MOMM*%
G71*
G04*
G04 #@! TF.SameCoordinates,5CFDE4A5-D111-4E67-9A72-851D34BF8442*
G04*
G04*
G04 #@! TF.FilePolarity,Positive*
G04*
G01*
G75*
%ADD58C,0.1000*%
D58*
X805812Y436891D02*
X810810D01*
X811810Y437890D01*
Y439890D01*
X810810Y440889D01*
X805812D01*
Y446888D02*
Y442889D01*
X808811D01*
X807811Y444888D01*
Y445888D01*
X808811Y446888D01*
X810810D01*
X811810Y445888D01*
Y443888D01*
X810810Y442889D01*
X866152Y438323D02*
X871150D01*
X872150Y439322D01*
Y441322D01*
X871150Y442322D01*
X866152D01*
X872150Y447320D02*
X866152D01*
X869151Y444321D01*
Y448320D01*
X932242Y525777D02*
X937240D01*
X938240Y526777D01*
Y528776D01*
X937240Y529776D01*
X932242D01*
X933242Y531776D02*
X932242Y532775D01*
Y534775D01*
X933242Y535774D01*
X934241D01*
X935241Y534775D01*
Y533775D01*
Y534775D01*
X936241Y535774D01*
X937240D01*
X938240Y534775D01*
Y532775D01*
X937240Y531776D01*
X871902Y525852D02*
X876900D01*
X877900Y526852D01*
Y528851D01*
X876900Y529851D01*
X871902D01*
X877900Y535849D02*
Y531850D01*
X873901Y535849D01*
X872902D01*
X871902Y534849D01*
Y532850D01*
X872902Y531850D01*
M02*
