G04*
G04 #@! TF.GenerationSoftware,Altium Limited,Altium Designer,25.3.3 (18)*
G04*
G04 Layer_Color=0*
%FSLAX44Y44*%
%MOMM*%
G71*
G04*
G04 #@! TF.SameCoordinates,5CFDE4A5-D111-4E67-9A72-851D34BF8442*
G04*
G04*
G04 #@! TF.FilePolarity,Positive*
G04*
G01*
G75*
%ADD58C,0.1000*%
D58*
X796290Y381080D02*
Y391080D01*
X791290Y386080D02*
X801290D01*
X860149Y386160D02*
Y396160D01*
X855149Y391160D02*
X865149D01*
X984439Y389069D02*
X994439D01*
X989439Y384069D02*
Y394069D01*
X922100Y412750D02*
X932100D01*
X927100Y407750D02*
Y417750D01*
X923300Y446938D02*
X933300D01*
X928300Y441938D02*
Y451938D01*
X706200Y595630D02*
X716200D01*
X711200Y590630D02*
Y600630D01*
X923370Y384810D02*
X933370D01*
X928370Y379810D02*
Y389810D01*
X985600Y471170D02*
X995600D01*
X990600Y466170D02*
Y476170D01*
X983060Y551180D02*
X993060D01*
X988060Y546180D02*
Y556180D01*
X976630Y505540D02*
Y515540D01*
X971630Y510540D02*
X981630D01*
X997110Y578401D02*
X1007110D01*
X1002110Y573401D02*
Y583401D01*
X821770Y530860D02*
X831770D01*
X826770Y525860D02*
Y535860D01*
X820850Y506730D02*
X830850D01*
X825850Y501730D02*
Y511730D01*
X749870Y506730D02*
X759870D01*
X754870Y501730D02*
Y511730D01*
X787860Y506730D02*
X797860D01*
X792860Y501730D02*
Y511730D01*
X821798Y597490D02*
X831798D01*
X826798Y592490D02*
Y602490D01*
X711200Y504270D02*
Y514270D01*
X706200Y509270D02*
X716200D01*
X762490Y553683D02*
X772490D01*
X767490Y548683D02*
Y558683D01*
X711200Y550770D02*
Y560770D01*
X706200Y555770D02*
X716200D01*
X825708Y545887D02*
Y555887D01*
X820708Y550887D02*
X830708D01*
M02*
