G04*
G04 #@! TF.GenerationSoftware,Altium Limited,Altium Designer,25.3.3 (18)*
G04*
G04 Layer_Physical_Order=2*
G04 Layer_Color=16711680*
%FSLAX44Y44*%
%MOMM*%
G71*
G04*
G04 #@! TF.SameCoordinates,5CFDE4A5-D111-4E67-9A72-851D34BF8442*
G04*
G04*
G04 #@! TF.FilePolarity,Positive*
G04*
G01*
G75*
%ADD45C,1.5700*%
%ADD49C,0.5080*%
%ADD50C,0.4064*%
%ADD51C,0.6350*%
%ADD52C,1.6500*%
%ADD53R,1.6500X1.6500*%
%ADD54C,2.5000*%
%ADD55R,1.6500X1.6500*%
%ADD56C,0.6350*%
%ADD57C,0.5080*%
G36*
X600710Y695960D02*
X1129030Y693420D01*
Y322580D01*
X600710D01*
X600233Y323057D01*
Y696245D01*
X600710Y695960D01*
D02*
G37*
%LPC*%
G36*
X846396Y669344D02*
X842704D01*
X839137Y668388D01*
X835939Y666542D01*
X833328Y663931D01*
X831482Y660733D01*
X830526Y657166D01*
Y653474D01*
X831482Y649907D01*
X833328Y646709D01*
X835939Y644098D01*
X839137Y642252D01*
X842704Y641296D01*
X846396D01*
X849963Y642252D01*
X853161Y644098D01*
X855772Y646709D01*
X857618Y649907D01*
X858574Y653474D01*
Y657166D01*
X857618Y660733D01*
X855772Y663931D01*
X853161Y666542D01*
X849963Y668388D01*
X846396Y669344D01*
D02*
G37*
G36*
X1025466Y668074D02*
X1021774D01*
X1018207Y667118D01*
X1015009Y665272D01*
X1012398Y662661D01*
X1010552Y659463D01*
X1009596Y655896D01*
Y652204D01*
X1010552Y648637D01*
X1012398Y645439D01*
X1015009Y642828D01*
X1018207Y640982D01*
X1021774Y640026D01*
X1025466D01*
X1029033Y640982D01*
X1032231Y642828D01*
X1034842Y645439D01*
X1036688Y648637D01*
X1037644Y652204D01*
Y655896D01*
X1036688Y659463D01*
X1034842Y662661D01*
X1032231Y665272D01*
X1029033Y667118D01*
X1025466Y668074D01*
D02*
G37*
G36*
X966084Y640964D02*
X946536D01*
Y621416D01*
X966084D01*
Y640964D01*
D02*
G37*
G36*
X712568Y606020D02*
X712470D01*
Y596900D01*
X721590D01*
Y596998D01*
X720882Y599640D01*
X719514Y602010D01*
X717580Y603944D01*
X715210Y605312D01*
X712568Y606020D01*
D02*
G37*
G36*
X709930D02*
X709832D01*
X707190Y605312D01*
X704820Y603944D01*
X702886Y602010D01*
X701518Y599640D01*
X700810Y596998D01*
Y596900D01*
X709930D01*
Y606020D01*
D02*
G37*
G36*
X680026Y616004D02*
X676334D01*
X672767Y615048D01*
X669569Y613202D01*
X666958Y610591D01*
X665112Y607393D01*
X664156Y603826D01*
Y600134D01*
X665112Y596567D01*
X666958Y593369D01*
X669569Y590758D01*
X672767Y588912D01*
X676334Y587956D01*
X680026D01*
X683593Y588912D01*
X686791Y590758D01*
X689402Y593369D01*
X691248Y596567D01*
X692204Y600134D01*
Y603826D01*
X691248Y607393D01*
X689402Y610591D01*
X686791Y613202D01*
X683593Y615048D01*
X680026Y616004D01*
D02*
G37*
G36*
X709930Y594360D02*
X700810D01*
Y594262D01*
X701518Y591620D01*
X702886Y589250D01*
X704820Y587316D01*
X707190Y585948D01*
X709832Y585240D01*
X709930D01*
Y594360D01*
D02*
G37*
G36*
X862330Y619471D02*
X802640D01*
X800807Y619106D01*
X799252Y618068D01*
X792365Y611180D01*
X791326Y609626D01*
X790962Y607793D01*
Y592627D01*
X791054Y592164D01*
Y591692D01*
X791234Y591256D01*
X791326Y590793D01*
X791589Y590401D01*
X791769Y589965D01*
X792103Y589631D01*
X792365Y589239D01*
X792757Y588977D01*
X793091Y588643D01*
X793527Y588462D01*
X793919Y588200D01*
X794382Y588108D01*
X794818Y587928D01*
X795290D01*
X795753Y587836D01*
X796216Y587928D01*
X796687D01*
X797123Y588108D01*
X797586Y588200D01*
X797979Y588462D01*
X798415Y588643D01*
X798748Y588977D01*
X799140Y589239D01*
X799403Y589631D01*
X799736Y589965D01*
X799917Y590401D01*
X800179Y590793D01*
X800271Y591256D01*
X800452Y591692D01*
Y592164D01*
X800544Y592627D01*
Y605808D01*
X804624Y609889D01*
X860346D01*
X864294Y605940D01*
Y578231D01*
X864386Y577768D01*
Y577296D01*
X864567Y576860D01*
X864659Y576398D01*
X864921Y576005D01*
X865101Y575569D01*
X865435Y575235D01*
X865697Y574843D01*
X866090Y574581D01*
X866423Y574247D01*
X866859Y574067D01*
X867252Y573805D01*
X867714Y573713D01*
X868150Y573532D01*
X868622D01*
X869085Y573440D01*
X869548Y573532D01*
X870020D01*
X870456Y573713D01*
X870919Y573805D01*
X871311Y574067D01*
X871747Y574247D01*
X872081Y574581D01*
X872473Y574843D01*
X872735Y575235D01*
X873069Y575569D01*
X873249Y576005D01*
X873511Y576398D01*
X873603Y576860D01*
X873784Y577296D01*
Y577768D01*
X873876Y578231D01*
Y607925D01*
X873511Y609758D01*
X873167Y610274D01*
X872473Y611313D01*
X865718Y618068D01*
X864164Y619106D01*
X862330Y619471D01*
D02*
G37*
G36*
X982980Y575890D02*
Y571500D01*
X987370D01*
X986555Y573467D01*
X984947Y575075D01*
X982980Y575890D01*
D02*
G37*
G36*
X980440D02*
X978473Y575075D01*
X976865Y573467D01*
X976050Y571500D01*
X980440D01*
Y575890D01*
D02*
G37*
G36*
X828032Y606864D02*
X825564D01*
X823179Y606225D01*
X821042Y604991D01*
X819297Y603246D01*
X818062Y601108D01*
X817424Y598724D01*
Y596256D01*
X818062Y593872D01*
X819271Y591779D01*
Y572827D01*
X817717Y571273D01*
X814752D01*
X813216Y571909D01*
X811347D01*
X809620Y571194D01*
X808298Y569872D01*
X807582Y568145D01*
Y566276D01*
X808298Y564549D01*
X809620Y563227D01*
X811347Y562511D01*
X813216D01*
X814943Y563227D01*
X815739Y564022D01*
X819219D01*
X819219Y564022D01*
X820606Y564298D01*
X821783Y565084D01*
X825460Y568762D01*
X825460Y568762D01*
X825931Y569467D01*
X826246Y569938D01*
X826522Y571325D01*
Y588116D01*
X828032D01*
X830416Y588755D01*
X832553Y589989D01*
X834299Y591734D01*
X835533Y593872D01*
X836172Y596256D01*
Y598724D01*
X835533Y601108D01*
X834299Y603246D01*
X832553Y604991D01*
X830416Y606225D01*
X828032Y606864D01*
D02*
G37*
G36*
X1003344Y587775D02*
X1000876D01*
X998492Y587136D01*
X996354Y585902D01*
X994609Y584157D01*
X993375Y582019D01*
X992736Y579635D01*
Y577167D01*
X993375Y574783D01*
X994609Y572645D01*
X996354Y570900D01*
X998492Y569666D01*
X1000876Y569027D01*
X1003344D01*
X1005728Y569666D01*
X1007866Y570900D01*
X1009611Y572645D01*
X1010845Y574783D01*
X1011484Y577167D01*
Y579635D01*
X1010845Y582019D01*
X1009611Y584157D01*
X1007866Y585902D01*
X1005728Y587136D01*
X1003344Y587775D01*
D02*
G37*
G36*
X721590Y594360D02*
X712470D01*
Y585240D01*
X712568D01*
X715210Y585948D01*
X715316Y586009D01*
X721649Y579675D01*
Y558281D01*
X720325Y556957D01*
X719510Y554990D01*
X725170D01*
Y553720D01*
X726440D01*
Y548060D01*
X728407Y548875D01*
X730015Y550483D01*
X730885Y552583D01*
Y553250D01*
X731231Y554990D01*
Y581660D01*
X730927Y583189D01*
X730866Y583493D01*
X729828Y585048D01*
X721384Y593492D01*
X721590Y594262D01*
Y594360D01*
D02*
G37*
G36*
X723900Y552450D02*
X719510D01*
X720325Y550483D01*
X721933Y548875D01*
X723900Y548060D01*
Y552450D01*
D02*
G37*
G36*
X990600Y516200D02*
Y511810D01*
X994990D01*
X994175Y513777D01*
X992567Y515385D01*
X990600Y516200D01*
D02*
G37*
G36*
X994990Y509270D02*
X990600D01*
Y504880D01*
X992567Y505695D01*
X994175Y507303D01*
X994990Y509270D01*
D02*
G37*
G36*
X906797Y640964D02*
X904223D01*
X901737Y640298D01*
X899509Y639011D01*
X897689Y637191D01*
X896402Y634963D01*
X895736Y632477D01*
Y629903D01*
X896402Y627417D01*
X897689Y625189D01*
X899509Y623369D01*
X901737Y622082D01*
X904223Y621416D01*
X906797D01*
X907281Y621546D01*
Y509054D01*
X907596Y507468D01*
X908494Y506124D01*
X915889Y498729D01*
X914735D01*
X913008Y498014D01*
X911686Y496692D01*
X911374Y495938D01*
X910663Y495227D01*
X908910D01*
X909344Y495661D01*
X910059Y497388D01*
Y499257D01*
X909344Y500984D01*
X908022Y502306D01*
X906487Y502942D01*
X903647Y505781D01*
X903220Y506420D01*
X903220Y506420D01*
X900347Y509294D01*
X899170Y510080D01*
X897783Y510356D01*
X897783Y510356D01*
X801591D01*
X800361Y512486D01*
X798616Y514231D01*
X796478Y515465D01*
X794094Y516104D01*
X791626D01*
X789242Y515465D01*
X787104Y514231D01*
X785359Y512486D01*
X784125Y510348D01*
X783486Y507964D01*
Y505496D01*
X784123Y503120D01*
X763684Y482681D01*
X762898Y481505D01*
X762622Y480117D01*
X762622Y480117D01*
Y477167D01*
X761826Y476372D01*
X761111Y474645D01*
Y472775D01*
X761826Y471048D01*
X763148Y469726D01*
X764875Y469011D01*
X766745D01*
X768472Y469726D01*
X768830Y470084D01*
X782088D01*
X825106Y427066D01*
Y418823D01*
X824690Y418200D01*
X824414Y416812D01*
X824414Y416812D01*
Y408150D01*
X824056Y407792D01*
X823341Y406065D01*
Y404195D01*
X824056Y402468D01*
X825008Y401517D01*
X817731D01*
X811149Y408098D01*
Y408605D01*
X810434Y410332D01*
X809112Y411654D01*
X807385Y412369D01*
X805515D01*
X803788Y411654D01*
X802466Y410332D01*
X801751Y408605D01*
Y406735D01*
X802466Y405008D01*
X803357Y404117D01*
X769033D01*
X770494Y405578D01*
X771532Y407132D01*
X771897Y408966D01*
Y446518D01*
X772078Y446956D01*
X767106D01*
Y449496D01*
X772078D01*
X771413Y451104D01*
X769984Y452533D01*
X768116Y453306D01*
X766152D01*
X770468Y457622D01*
X770730Y458014D01*
X771064Y458348D01*
X771244Y458784D01*
X771506Y459177D01*
X771598Y459639D01*
X771779Y460075D01*
Y460547D01*
X771871Y461010D01*
X771779Y461473D01*
Y461945D01*
X771598Y462381D01*
X771506Y462844D01*
X771244Y463236D01*
X771064Y463672D01*
X770730Y464005D01*
X770468Y464398D01*
X770075Y464660D01*
X769742Y464994D01*
X769306Y465174D01*
X768913Y465436D01*
X768451Y465528D01*
X768015Y465709D01*
X767543D01*
X767080Y465801D01*
X766617Y465709D01*
X766145D01*
X765709Y465528D01*
X765247Y465436D01*
X764854Y465174D01*
X764418Y464994D01*
X764084Y464660D01*
X763692Y464398D01*
X750992Y451698D01*
X749954Y450144D01*
X749589Y448310D01*
Y435610D01*
X749681Y435147D01*
Y434675D01*
X749862Y434239D01*
X749954Y433777D01*
X750216Y433384D01*
X750396Y432948D01*
X750730Y432615D01*
X750992Y432222D01*
X751385Y431960D01*
X751718Y431626D01*
X752154Y431446D01*
X752547Y431184D01*
X753009Y431092D01*
X753445Y430911D01*
X753917D01*
X754380Y430819D01*
X754843Y430911D01*
X755315D01*
X755751Y431092D01*
X756213Y431184D01*
X756606Y431446D01*
X757042Y431626D01*
X757375Y431960D01*
X757768Y432222D01*
X758030Y432615D01*
X758364Y432948D01*
X758544Y433384D01*
X758806Y433777D01*
X758898Y434239D01*
X759079Y434675D01*
Y435147D01*
X759171Y435610D01*
Y446325D01*
X762026Y449180D01*
Y447216D01*
X762315Y446518D01*
Y410950D01*
X759686Y408321D01*
X716462D01*
X715403Y410155D01*
X713394Y412164D01*
X710934Y413585D01*
X708189Y414320D01*
X708039D01*
Y403530D01*
Y392740D01*
X708189D01*
X710934Y393475D01*
X713394Y394896D01*
X715403Y396905D01*
X716462Y398739D01*
X726601D01*
X729402Y395938D01*
X730956Y394900D01*
X732790Y394535D01*
X803290D01*
X810053Y387772D01*
X811092Y387078D01*
X811608Y386734D01*
X813441Y386369D01*
X906858D01*
X908691Y386734D01*
X910245Y387772D01*
X914811Y392338D01*
X952113D01*
X951056Y391282D01*
X950341Y389555D01*
Y387685D01*
X951056Y385958D01*
X952378Y384636D01*
X953132Y384324D01*
X955976Y381480D01*
Y377636D01*
X943164Y364824D01*
X870579D01*
X871394Y365638D01*
X872109Y367365D01*
Y369235D01*
X871394Y370962D01*
X870072Y372284D01*
X868686Y372858D01*
X862694Y378850D01*
X861349Y379748D01*
X859764Y380064D01*
X832856D01*
X831515Y380619D01*
X829645D01*
X827918Y379904D01*
X826596Y378582D01*
X825881Y376855D01*
Y374985D01*
X826596Y373258D01*
X827918Y371936D01*
X829645Y371221D01*
X831515D01*
X832856Y371776D01*
X858047D01*
X862890Y366934D01*
X863426Y365638D01*
X864241Y364824D01*
X860159D01*
X855023Y369960D01*
X853678Y370858D01*
X852093Y371174D01*
X797296D01*
X795955Y371729D01*
X794085D01*
X792358Y371014D01*
X791036Y369692D01*
X790321Y367965D01*
Y366095D01*
X791036Y364368D01*
X792358Y363046D01*
X794085Y362331D01*
X795955D01*
X797296Y362886D01*
X850376D01*
X855512Y357750D01*
X856857Y356852D01*
X858443Y356536D01*
X944880D01*
X946466Y356852D01*
X947810Y357750D01*
X963050Y372990D01*
X963948Y374334D01*
X964264Y375920D01*
Y383196D01*
X963948Y384782D01*
X963050Y386126D01*
X959739Y389437D01*
Y389555D01*
X959024Y391282D01*
X957967Y392338D01*
X962327D01*
X963295Y391369D01*
Y391293D01*
X964165Y389193D01*
X965773Y387585D01*
X967740Y386770D01*
Y392430D01*
X969010D01*
Y393700D01*
X974670D01*
X973855Y395667D01*
X972247Y397275D01*
X970147Y398145D01*
X970071D01*
X967699Y400517D01*
X966144Y401555D01*
X964311Y401920D01*
X943360D01*
Y408964D01*
X943758Y409362D01*
X944796Y410917D01*
X945161Y412750D01*
Y416270D01*
X944796Y418103D01*
X943758Y419658D01*
X942203Y420696D01*
X940370Y421061D01*
X938537Y420696D01*
X936982Y419658D01*
X935944Y418103D01*
X935579Y416270D01*
Y414734D01*
X935181Y414337D01*
X934142Y412782D01*
X933778Y410949D01*
Y401920D01*
X912827D01*
X911297Y401616D01*
X910993Y401555D01*
X909439Y400517D01*
X904873Y395951D01*
X904083D01*
X904362Y396066D01*
X905684Y397388D01*
X906399Y399115D01*
Y400985D01*
X905684Y402712D01*
X904362Y404034D01*
X902635Y404749D01*
X900765D01*
X899038Y404034D01*
X898680Y403676D01*
X896101D01*
X896936Y403842D01*
X898280Y404740D01*
X958901Y465361D01*
X960242Y465916D01*
X961564Y467238D01*
X962119Y468579D01*
X964320Y470780D01*
X965218Y472124D01*
X965534Y473710D01*
Y479301D01*
X984452Y460382D01*
Y460178D01*
X984398Y460124D01*
X983583Y458157D01*
X994903D01*
X994088Y460124D01*
X994034Y460178D01*
Y462367D01*
X993669Y464200D01*
X992631Y465755D01*
X973420Y484966D01*
Y487988D01*
X975641Y490209D01*
X976679Y491763D01*
X977044Y493597D01*
Y498604D01*
X984189Y505749D01*
X986039D01*
X986093Y505695D01*
X988060Y504880D01*
Y510540D01*
Y516200D01*
X986501Y515554D01*
Y566939D01*
X986555Y566993D01*
X987370Y568960D01*
X976050D01*
X976865Y566993D01*
X976919Y566939D01*
Y512030D01*
X968865Y503976D01*
X967827Y502422D01*
X967462Y500588D01*
Y495581D01*
X965534Y493653D01*
Y534420D01*
X966162Y535048D01*
X966635D01*
X968362Y535764D01*
X969684Y537086D01*
X970399Y538813D01*
Y540682D01*
X969684Y542409D01*
X968362Y543731D01*
X966635Y544446D01*
X964765D01*
X963038Y543731D01*
X961716Y542409D01*
X961656Y542262D01*
X958460Y539067D01*
X957562Y537722D01*
X957246Y536137D01*
Y475426D01*
X956259Y474439D01*
X954918Y473884D01*
X953596Y472562D01*
X953041Y471221D01*
X893634Y411814D01*
X881115D01*
X879775Y412369D01*
X877905D01*
X876178Y411654D01*
X874856Y410332D01*
X874141Y408605D01*
Y406735D01*
X874856Y405008D01*
X875300Y404565D01*
X867140D01*
X867584Y405008D01*
X868139Y406349D01*
X884366Y422576D01*
X896885D01*
X898225Y422021D01*
X900095D01*
X901822Y422736D01*
X903144Y424058D01*
X903859Y425785D01*
Y427655D01*
X903144Y429382D01*
X901822Y430704D01*
X900095Y431419D01*
X898225D01*
X896885Y430864D01*
X882650D01*
X881064Y430548D01*
X879720Y429650D01*
X862279Y412209D01*
X860938Y411654D01*
X859616Y410332D01*
X858901Y408605D01*
Y406735D01*
X859616Y405008D01*
X860060Y404565D01*
X859735D01*
X859735Y404565D01*
X858347Y404289D01*
X857171Y403503D01*
X857171Y403503D01*
X855185Y401517D01*
X831072D01*
X832024Y402468D01*
X832739Y404195D01*
Y406065D01*
X832024Y407792D01*
X831666Y408150D01*
Y415494D01*
X832082Y416117D01*
X832358Y417504D01*
Y428568D01*
X832082Y429955D01*
X831767Y430426D01*
X831296Y431132D01*
X831296Y431132D01*
X786154Y476274D01*
X784977Y477060D01*
X783590Y477336D01*
X783590Y477336D01*
X769873D01*
Y478616D01*
X789250Y497993D01*
X791626Y497356D01*
X794094D01*
X796478Y497995D01*
X798616Y499229D01*
X800361Y500974D01*
X801591Y503104D01*
X896281D01*
X897666Y501720D01*
X898093Y501081D01*
X899652Y499522D01*
X898704Y500155D01*
X897118Y500471D01*
X890475D01*
X890392Y500554D01*
X888665Y501269D01*
X886795D01*
X885068Y500554D01*
X883746Y499232D01*
X883191Y497891D01*
X876903Y491603D01*
X871198D01*
X869612Y491287D01*
X868268Y490389D01*
X859400Y481521D01*
X858502Y480177D01*
X858186Y478591D01*
Y430976D01*
X840714Y413504D01*
X839614D01*
X839321Y413446D01*
X837722D01*
X835995Y412731D01*
X834673Y411409D01*
X833957Y409682D01*
Y407812D01*
X834673Y406085D01*
X835995Y404763D01*
X837722Y404048D01*
X839591D01*
X841318Y404763D01*
X841772Y405217D01*
X842431D01*
X844016Y405532D01*
X845361Y406431D01*
X865260Y426330D01*
X866158Y427674D01*
X866474Y429260D01*
Y476875D01*
X872914Y483315D01*
X878619D01*
X880205Y483631D01*
X881549Y484529D01*
X889051Y492031D01*
X889419Y492183D01*
X895401D01*
X899432Y488153D01*
X900776Y487255D01*
X902362Y486940D01*
X902362Y486940D01*
X912380D01*
X913965Y487255D01*
X915310Y488153D01*
X916487Y489331D01*
X916605D01*
X918332Y490046D01*
X919654Y491368D01*
X920369Y493095D01*
Y494249D01*
X922248Y492370D01*
X923592Y491472D01*
X925178Y491156D01*
X926095D01*
X927435Y490601D01*
X929305D01*
X931032Y491316D01*
X932354Y492638D01*
X933069Y494365D01*
Y496235D01*
X932354Y497962D01*
X931032Y499284D01*
X929305Y499999D01*
X927435D01*
X926660Y499678D01*
X915568Y510770D01*
Y628154D01*
X915688Y628334D01*
X916004Y629920D01*
X915688Y631506D01*
X915284Y632111D01*
Y632477D01*
X914618Y634963D01*
X913331Y637191D01*
X911511Y639011D01*
X909283Y640298D01*
X906797Y640964D01*
D02*
G37*
G36*
X994903Y455617D02*
X990513D01*
Y451227D01*
X992480Y452042D01*
X994088Y453650D01*
X994903Y455617D01*
D02*
G37*
G36*
X987973D02*
X983583D01*
X984398Y453650D01*
X986006Y452042D01*
X987973Y451227D01*
Y455617D01*
D02*
G37*
G36*
X716543Y464104D02*
X696995D01*
Y444556D01*
X716543D01*
Y464104D01*
D02*
G37*
G36*
X840405Y465709D02*
X838535D01*
X836808Y464994D01*
X835486Y463672D01*
X834771Y461945D01*
Y460075D01*
X835326Y458735D01*
Y426455D01*
X834771Y425115D01*
Y423245D01*
X835486Y421518D01*
X836808Y420196D01*
X838535Y419481D01*
X840405D01*
X842132Y420196D01*
X843454Y421518D01*
X844169Y423245D01*
Y425115D01*
X843614Y426455D01*
Y458735D01*
X844169Y460075D01*
Y461945D01*
X843454Y463672D01*
X842132Y464994D01*
X840405Y465709D01*
D02*
G37*
G36*
X705499Y414320D02*
X705348D01*
X702604Y413585D01*
X700144Y412164D01*
X698135Y410155D01*
X696714Y407695D01*
X695979Y404950D01*
Y404800D01*
X705499D01*
Y414320D01*
D02*
G37*
G36*
Y402260D02*
X695979D01*
Y402109D01*
X696714Y399365D01*
X698135Y396905D01*
X700144Y394896D01*
X702604Y393475D01*
X705348Y392740D01*
X705499D01*
Y402260D01*
D02*
G37*
G36*
X974670Y391160D02*
X970280D01*
Y386770D01*
X972247Y387585D01*
X973855Y389193D01*
X974670Y391160D01*
D02*
G37*
G36*
X990673Y398443D02*
X988205D01*
X985821Y397805D01*
X983683Y396571D01*
X981938Y394825D01*
X980704Y392688D01*
X980065Y390303D01*
Y387835D01*
X980704Y385451D01*
X981938Y383314D01*
X983683Y381568D01*
X985821Y380334D01*
X988205Y379695D01*
X990673D01*
X993057Y380334D01*
X995195Y381568D01*
X996940Y383314D01*
X998174Y385451D01*
X998813Y387835D01*
Y390303D01*
X998174Y392688D01*
X996940Y394825D01*
X995195Y396571D01*
X993057Y397805D01*
X990673Y398443D01*
D02*
G37*
G36*
X1024196Y379784D02*
X1020504D01*
X1016937Y378828D01*
X1013739Y376982D01*
X1011128Y374371D01*
X1009282Y371173D01*
X1008326Y367606D01*
Y363914D01*
X1009282Y360347D01*
X1011128Y357149D01*
X1013739Y354538D01*
X1016937Y352692D01*
X1020504Y351736D01*
X1024196D01*
X1027763Y352692D01*
X1030961Y354538D01*
X1033572Y357149D01*
X1035418Y360347D01*
X1036374Y363914D01*
Y367606D01*
X1035418Y371173D01*
X1033572Y374371D01*
X1030961Y376982D01*
X1027763Y378828D01*
X1024196Y379784D01*
D02*
G37*
G36*
X683836Y377244D02*
X680144D01*
X676577Y376288D01*
X673379Y374442D01*
X670768Y371831D01*
X668922Y368633D01*
X667966Y365066D01*
Y361374D01*
X668922Y357807D01*
X670768Y354609D01*
X673379Y351998D01*
X676577Y350152D01*
X680144Y349196D01*
X683836D01*
X687403Y350152D01*
X690601Y351998D01*
X693212Y354609D01*
X695058Y357807D01*
X696014Y361374D01*
Y365066D01*
X695058Y368633D01*
X693212Y371831D01*
X690601Y374442D01*
X687403Y376288D01*
X683836Y377244D01*
D02*
G37*
%LPD*%
D45*
X989439Y389069D02*
D03*
X711200Y595630D02*
D03*
X1002110Y578401D02*
D03*
X792860Y506730D02*
D03*
X826798Y597490D02*
D03*
D49*
X965457Y539504D02*
X965700Y539747D01*
X961390Y536137D02*
X964758Y539504D01*
X895350Y407670D02*
X961390Y473710D01*
Y536137D01*
X964758Y539504D02*
X965457D01*
X878840Y407670D02*
X895350D01*
X887973Y496327D02*
X897118D01*
X887730Y496570D02*
X887973Y496327D01*
X897118D02*
X902362Y491083D01*
X912380D01*
X915326Y494030D01*
X830580Y375920D02*
X859764D01*
X867384Y368300D01*
X867410D01*
X858443Y360680D02*
X944880D01*
X852093Y367030D02*
X858443Y360680D01*
X795020Y367030D02*
X852093D01*
X915326Y494030D02*
X915670D01*
X871198Y487459D02*
X878619D01*
X862330Y478591D02*
X871198Y487459D01*
X878619D02*
X887730Y496570D01*
X839470Y424180D02*
Y461010D01*
X839614Y409361D02*
X842431D01*
X839000Y408747D02*
X839614Y409361D01*
X842431D02*
X862330Y429260D01*
X838656Y408747D02*
X839000D01*
X944880Y360680D02*
X960120Y375920D01*
Y383196D01*
X955040Y388276D02*
X960120Y383196D01*
X955040Y388276D02*
Y388620D01*
X863600Y407670D02*
X882650Y426720D01*
X899160D01*
X862330Y429260D02*
Y478591D01*
X911424Y509054D02*
X925178Y495300D01*
X911424Y629484D02*
X911860Y629920D01*
X925178Y495300D02*
X928370D01*
X911424Y509054D02*
Y629484D01*
D50*
X828040Y416812D02*
X828732Y417504D01*
X828040Y405130D02*
Y416812D01*
X828732Y417504D02*
Y428568D01*
X897783Y506730D02*
X900657Y503856D01*
X792860Y506730D02*
X897783D01*
X905360Y498322D02*
Y498941D01*
X900657Y503644D02*
Y503856D01*
Y503644D02*
X905360Y498941D01*
X812281Y567210D02*
X812719Y567648D01*
X819219D01*
X822897Y571325D01*
Y597490D01*
X806450Y407670D02*
X816229Y397891D01*
X856687D01*
X859735Y400939D01*
X766247Y480117D02*
X792860Y506730D01*
X783590Y473710D02*
X828732Y428568D01*
X765810Y473710D02*
X766247Y474147D01*
X765810Y473710D02*
X783590D01*
X766247Y474147D02*
Y480117D01*
X880853Y400050D02*
X901700D01*
X879964Y400939D02*
X880853Y400050D01*
X859735Y400939D02*
X879964D01*
D51*
X982205Y510540D02*
X989330D01*
X972253Y500588D02*
X982205Y510540D01*
X981710Y510045D02*
Y570230D01*
X972253Y493597D02*
Y500588D01*
X968629Y489973D02*
X972253Y493597D01*
X968629Y482981D02*
Y489973D01*
Y482981D02*
X989243Y462367D01*
Y456887D02*
Y462367D01*
X726440Y554990D02*
Y581660D01*
X725170Y553720D02*
X726440Y554990D01*
X767106Y408966D02*
Y448226D01*
X761670Y403530D02*
X767106Y408966D01*
X728586Y403530D02*
X761670D01*
X706769D02*
X728586D01*
X754380Y448310D02*
X767080Y461010D01*
X754380Y435610D02*
Y448310D01*
X711200Y596900D02*
X726440Y581660D01*
X906858Y391160D02*
X912827Y397129D01*
X805275Y399326D02*
X813441Y391160D01*
X906858D01*
X728586Y403530D02*
X732790Y399326D01*
X805275D01*
X938569Y397129D02*
X964311D01*
X969010Y392430D01*
X940370Y412750D02*
Y416270D01*
X938569Y410949D02*
X940370Y412750D01*
X938569Y397129D02*
Y410949D01*
X802640Y614680D02*
X862330D01*
X869085Y578231D02*
Y607925D01*
X862330Y614680D02*
X869085Y607925D01*
X795753Y592627D02*
Y607793D01*
X802640Y614680D01*
X912827Y397129D02*
X938569D01*
D52*
X706769Y403530D02*
D03*
X905510Y631190D02*
D03*
D53*
X706769Y454330D02*
D03*
D54*
X1023620Y654050D02*
D03*
X844550Y655320D02*
D03*
X1022350Y365760D02*
D03*
X681990Y363220D02*
D03*
X678180Y601980D02*
D03*
D55*
X956310Y631190D02*
D03*
D56*
X828040Y405130D02*
D03*
X989330Y510540D02*
D03*
X965700Y539747D02*
D03*
X957580Y469900D02*
D03*
X905360Y498322D02*
D03*
X812281Y567210D02*
D03*
X725170Y553720D02*
D03*
X754380Y435610D02*
D03*
X767080Y461010D02*
D03*
X838656Y408747D02*
D03*
X830580Y375920D02*
D03*
X867410Y368300D02*
D03*
X795020Y367030D02*
D03*
X765810Y473710D02*
D03*
X901700Y400050D02*
D03*
X839470Y424180D02*
D03*
X887730Y496570D02*
D03*
X955040Y388620D02*
D03*
X863600Y407670D02*
D03*
X878840D02*
D03*
X928370Y495300D02*
D03*
X795753Y592627D02*
D03*
X869085Y578231D02*
D03*
X915670Y494030D02*
D03*
X989243Y456887D02*
D03*
X806450Y407670D02*
D03*
X981710Y570230D02*
D03*
X899160Y426720D02*
D03*
X969010Y392430D02*
D03*
X839470Y461010D02*
D03*
D57*
X767106Y448226D02*
D03*
M02*
