G04*
G04 #@! TF.GenerationSoftware,Altium Limited,Altium Designer,25.3.3 (18)*
G04*
G04 Layer_Color=16711935*
%FSLAX44Y44*%
%MOMM*%
G71*
G04*
G04 #@! TF.SameCoordinates,5CFDE4A5-D111-4E67-9A72-851D34BF8442*
G04*
G04*
G04 #@! TF.FilePolarity,Positive*
G04*
G01*
G75*
%ADD13C,0.2000*%
G36*
X804694Y390614D02*
X804768Y390605D01*
X804861Y390596D01*
X804962Y390577D01*
X805064Y390559D01*
X805304Y390494D01*
X805545Y390401D01*
X805665Y390346D01*
X805785Y390281D01*
X805896Y390198D01*
X805998Y390106D01*
X806007Y390096D01*
X806026Y390087D01*
X806044Y390050D01*
X806081Y390013D01*
X806127Y389967D01*
X806173Y389902D01*
X806220Y389837D01*
X806275Y389754D01*
X806368Y389579D01*
X806460Y389357D01*
X806497Y389246D01*
X806516Y389116D01*
X806534Y388987D01*
X806543Y388848D01*
Y388830D01*
Y388783D01*
X806534Y388709D01*
X806525Y388608D01*
X806506Y388497D01*
X806469Y388367D01*
X806432Y388229D01*
X806377Y388090D01*
X806368Y388072D01*
X806349Y388025D01*
X806312Y387951D01*
X806257Y387850D01*
X806183Y387739D01*
X806090Y387600D01*
X805979Y387461D01*
X805850Y387304D01*
X805832Y387286D01*
X805785Y387230D01*
X805739Y387184D01*
X805693Y387138D01*
X805637Y387082D01*
X805563Y387008D01*
X805489Y386934D01*
X805397Y386851D01*
X805304Y386759D01*
X805193Y386657D01*
X805073Y386555D01*
X804944Y386435D01*
X804796Y386315D01*
X804648Y386185D01*
X804639Y386176D01*
X804620Y386158D01*
X804583Y386130D01*
X804537Y386093D01*
X804482Y386037D01*
X804417Y385982D01*
X804269Y385862D01*
X804112Y385723D01*
X803964Y385584D01*
X803834Y385464D01*
X803779Y385418D01*
X803733Y385372D01*
X803724Y385363D01*
X803696Y385335D01*
X803659Y385298D01*
X803613Y385242D01*
X803566Y385178D01*
X803511Y385113D01*
X803400Y384956D01*
X806553D01*
Y384198D01*
X802309D01*
Y384207D01*
Y384244D01*
Y384299D01*
X802318Y384373D01*
X802327Y384456D01*
X802346Y384549D01*
X802364Y384641D01*
X802401Y384743D01*
Y384752D01*
X802411Y384762D01*
X802429Y384817D01*
X802466Y384900D01*
X802522Y385011D01*
X802596Y385141D01*
X802688Y385289D01*
X802790Y385437D01*
X802919Y385594D01*
Y385603D01*
X802938Y385612D01*
X802984Y385668D01*
X803067Y385751D01*
X803187Y385871D01*
X803326Y386010D01*
X803502Y386176D01*
X803714Y386361D01*
X803945Y386555D01*
X803955Y386564D01*
X803992Y386592D01*
X804047Y386638D01*
X804112Y386694D01*
X804195Y386768D01*
X804297Y386851D01*
X804398Y386944D01*
X804519Y387045D01*
X804750Y387267D01*
X804981Y387489D01*
X805092Y387600D01*
X805193Y387711D01*
X805286Y387813D01*
X805360Y387914D01*
Y387924D01*
X805378Y387933D01*
X805397Y387961D01*
X805415Y387998D01*
X805480Y388099D01*
X805554Y388219D01*
X805619Y388367D01*
X805684Y388525D01*
X805721Y388700D01*
X805739Y388867D01*
Y388876D01*
Y388885D01*
X805730Y388941D01*
X805721Y389033D01*
X805693Y389135D01*
X805656Y389264D01*
X805591Y389394D01*
X805508Y389523D01*
X805397Y389652D01*
X805378Y389671D01*
X805332Y389708D01*
X805267Y389754D01*
X805166Y389819D01*
X805036Y389874D01*
X804888Y389930D01*
X804713Y389967D01*
X804519Y389976D01*
X804463D01*
X804426Y389967D01*
X804315Y389958D01*
X804186Y389930D01*
X804047Y389893D01*
X803890Y389828D01*
X803742Y389745D01*
X803603Y389634D01*
X803585Y389616D01*
X803548Y389569D01*
X803492Y389495D01*
X803437Y389384D01*
X803372Y389255D01*
X803317Y389089D01*
X803280Y388904D01*
X803261Y388691D01*
X802457Y388774D01*
Y388783D01*
X802466Y388811D01*
Y388857D01*
X802475Y388922D01*
X802494Y388996D01*
X802512Y389079D01*
X802540Y389181D01*
X802568Y389283D01*
X802642Y389505D01*
X802753Y389726D01*
X802817Y389837D01*
X802901Y389948D01*
X802984Y390050D01*
X803076Y390143D01*
X803085Y390152D01*
X803104Y390161D01*
X803132Y390189D01*
X803178Y390216D01*
X803233Y390253D01*
X803298Y390290D01*
X803372Y390337D01*
X803465Y390383D01*
X803566Y390429D01*
X803677Y390475D01*
X803797Y390512D01*
X803927Y390549D01*
X804065Y390577D01*
X804213Y390605D01*
X804371Y390614D01*
X804537Y390623D01*
X804630D01*
X804694Y390614D01*
D02*
G37*
G36*
X798916Y390586D02*
X799101Y390577D01*
X799286Y390559D01*
X799471Y390531D01*
X799628Y390503D01*
X799637D01*
X799655Y390494D01*
X799683D01*
X799720Y390475D01*
X799822Y390448D01*
X799951Y390401D01*
X800099Y390337D01*
X800256Y390253D01*
X800414Y390161D01*
X800562Y390041D01*
X800571Y390032D01*
X800580Y390022D01*
X800608Y389995D01*
X800645Y389967D01*
X800737Y389874D01*
X800848Y389745D01*
X800968Y389588D01*
X801098Y389403D01*
X801218Y389190D01*
X801320Y388950D01*
Y388941D01*
X801329Y388922D01*
X801347Y388885D01*
X801357Y388830D01*
X801384Y388765D01*
X801403Y388691D01*
X801421Y388608D01*
X801449Y388506D01*
X801477Y388404D01*
X801495Y388284D01*
X801542Y388025D01*
X801569Y387739D01*
X801579Y387424D01*
Y387415D01*
Y387397D01*
Y387350D01*
Y387304D01*
X801569Y387239D01*
Y387165D01*
X801560Y386990D01*
X801532Y386786D01*
X801505Y386574D01*
X801458Y386352D01*
X801403Y386130D01*
Y386121D01*
X801394Y386102D01*
X801384Y386074D01*
X801375Y386037D01*
X801338Y385936D01*
X801283Y385806D01*
X801227Y385658D01*
X801153Y385510D01*
X801061Y385353D01*
X800968Y385205D01*
X800959Y385187D01*
X800922Y385141D01*
X800867Y385076D01*
X800793Y384993D01*
X800709Y384900D01*
X800608Y384808D01*
X800506Y384706D01*
X800386Y384623D01*
X800367Y384614D01*
X800330Y384586D01*
X800266Y384549D01*
X800173Y384503D01*
X800062Y384447D01*
X799933Y384401D01*
X799785Y384346D01*
X799618Y384299D01*
X799600D01*
X799572Y384290D01*
X799545Y384281D01*
X799452Y384272D01*
X799323Y384253D01*
X799175Y384235D01*
X798999Y384216D01*
X798805Y384207D01*
X798592Y384198D01*
X796290D01*
Y390596D01*
X798749D01*
X798916Y390586D01*
D02*
G37*
G36*
X860149Y384762D02*
X857181D01*
X857107Y384771D01*
X857024D01*
X856830Y384781D01*
X856627Y384808D01*
X856405Y384836D01*
X856201Y384882D01*
X856100Y384910D01*
X856016Y384938D01*
X856007D01*
X855998Y384947D01*
X855943Y384975D01*
X855859Y385012D01*
X855758Y385076D01*
X855647Y385160D01*
X855527Y385271D01*
X855415Y385400D01*
X855305Y385548D01*
Y385557D01*
X855295Y385566D01*
X855258Y385622D01*
X855221Y385714D01*
X855166Y385835D01*
X855120Y385973D01*
X855073Y386140D01*
X855046Y386315D01*
X855036Y386510D01*
Y386519D01*
Y386537D01*
Y386574D01*
X855046Y386620D01*
Y386685D01*
X855055Y386750D01*
X855092Y386907D01*
X855147Y387092D01*
X855221Y387286D01*
X855332Y387480D01*
X855406Y387573D01*
X855480Y387665D01*
X855490Y387674D01*
X855499Y387684D01*
X855527Y387711D01*
X855564Y387739D01*
X855610Y387776D01*
X855665Y387813D01*
X855739Y387859D01*
X855813Y387915D01*
X855906Y387961D01*
X856007Y388007D01*
X856118Y388063D01*
X856238Y388109D01*
X856377Y388146D01*
X856516Y388192D01*
X856673Y388220D01*
X856839Y388248D01*
X856821Y388257D01*
X856784Y388275D01*
X856728Y388312D01*
X856654Y388349D01*
X856488Y388451D01*
X856405Y388516D01*
X856331Y388571D01*
X856312Y388590D01*
X856266Y388636D01*
X856192Y388710D01*
X856100Y388802D01*
X855998Y388932D01*
X855878Y389071D01*
X855758Y389237D01*
X855628Y389422D01*
X854528Y391160D01*
X855582D01*
X856423Y389829D01*
Y389819D01*
X856442Y389801D01*
X856460Y389773D01*
X856488Y389736D01*
X856553Y389635D01*
X856636Y389505D01*
X856738Y389366D01*
X856839Y389218D01*
X856941Y389080D01*
X857033Y388950D01*
X857043Y388941D01*
X857070Y388904D01*
X857117Y388849D01*
X857181Y388784D01*
X857320Y388645D01*
X857394Y388581D01*
X857468Y388525D01*
X857477Y388516D01*
X857496Y388507D01*
X857533Y388488D01*
X857588Y388460D01*
X857644Y388433D01*
X857708Y388405D01*
X857856Y388359D01*
X857866D01*
X857884Y388349D01*
X857921D01*
X857967Y388340D01*
X858032Y388331D01*
X858106D01*
X858208Y388322D01*
X859299D01*
Y391160D01*
X860149D01*
Y384762D01*
D02*
G37*
G36*
X853076Y391151D02*
Y391123D01*
Y391086D01*
X853067Y391031D01*
Y390957D01*
X853058Y390864D01*
X853049Y390762D01*
X853039Y390652D01*
X853021Y390522D01*
X853002Y390393D01*
X852975Y390235D01*
X852947Y390078D01*
X852919Y389912D01*
X852882Y389727D01*
X852790Y389348D01*
Y389339D01*
X852781Y389302D01*
X852762Y389246D01*
X852734Y389163D01*
X852707Y389071D01*
X852670Y388960D01*
X852633Y388830D01*
X852577Y388691D01*
X852522Y388534D01*
X852466Y388377D01*
X852327Y388026D01*
X852161Y387656D01*
X851976Y387286D01*
X851967Y387277D01*
X851948Y387240D01*
X851921Y387194D01*
X851884Y387120D01*
X851837Y387037D01*
X851773Y386935D01*
X851708Y386824D01*
X851634Y386704D01*
X851458Y386436D01*
X851273Y386158D01*
X851061Y385872D01*
X850839Y385603D01*
X853973D01*
Y384845D01*
X849831D01*
Y385465D01*
X849840Y385474D01*
X849859Y385493D01*
X849896Y385530D01*
X849933Y385585D01*
X849988Y385650D01*
X850062Y385724D01*
X850136Y385816D01*
X850219Y385927D01*
X850303Y386038D01*
X850404Y386167D01*
X850506Y386315D01*
X850608Y386463D01*
X850719Y386630D01*
X850830Y386805D01*
X850941Y387000D01*
X851052Y387194D01*
X851061Y387203D01*
X851079Y387240D01*
X851107Y387295D01*
X851153Y387379D01*
X851199Y387480D01*
X851255Y387591D01*
X851320Y387721D01*
X851385Y387869D01*
X851458Y388035D01*
X851542Y388201D01*
X851616Y388386D01*
X851690Y388581D01*
X851837Y388978D01*
X851976Y389403D01*
Y389413D01*
X851985Y389440D01*
X851995Y389487D01*
X852013Y389542D01*
X852032Y389616D01*
X852050Y389709D01*
X852078Y389810D01*
X852096Y389921D01*
X852124Y390051D01*
X852152Y390189D01*
X852198Y390485D01*
X852244Y390809D01*
X852272Y391160D01*
X853076D01*
Y391151D01*
D02*
G37*
G36*
X991214Y396429D02*
X990428D01*
Y397344D01*
X991214D01*
Y396429D01*
D02*
G37*
G36*
X996142Y396512D02*
X993581D01*
X993239Y394783D01*
X993248Y394792D01*
X993267Y394801D01*
X993294Y394820D01*
X993341Y394848D01*
X993396Y394875D01*
X993461Y394912D01*
X993609Y394986D01*
X993794Y395060D01*
X993997Y395125D01*
X994219Y395171D01*
X994330Y395190D01*
X994533D01*
X994589Y395181D01*
X994663Y395171D01*
X994746Y395162D01*
X994838Y395144D01*
X994940Y395116D01*
X995162Y395051D01*
X995282Y395005D01*
X995402Y394940D01*
X995523Y394875D01*
X995643Y394801D01*
X995754Y394709D01*
X995865Y394607D01*
X995874Y394598D01*
X995892Y394580D01*
X995920Y394552D01*
X995957Y394506D01*
X996003Y394441D01*
X996049Y394376D01*
X996105Y394293D01*
X996161Y394201D01*
X996207Y394099D01*
X996262Y393988D01*
X996308Y393858D01*
X996355Y393729D01*
X996392Y393590D01*
X996419Y393433D01*
X996438Y393276D01*
X996447Y393110D01*
Y393100D01*
Y393073D01*
Y393026D01*
X996438Y392962D01*
X996429Y392888D01*
X996419Y392804D01*
X996401Y392703D01*
X996382Y392601D01*
X996327Y392361D01*
X996234Y392111D01*
X996179Y391982D01*
X996105Y391861D01*
X996031Y391732D01*
X995939Y391612D01*
X995929Y391603D01*
X995911Y391575D01*
X995874Y391538D01*
X995828Y391492D01*
X995763Y391436D01*
X995689Y391362D01*
X995596Y391297D01*
X995495Y391223D01*
X995384Y391149D01*
X995254Y391085D01*
X995116Y391020D01*
X994968Y390955D01*
X994811Y390909D01*
X994635Y390872D01*
X994450Y390844D01*
X994256Y390835D01*
X994173D01*
X994108Y390844D01*
X994034Y390854D01*
X993951Y390863D01*
X993849Y390872D01*
X993747Y390900D01*
X993516Y390955D01*
X993285Y391039D01*
X993165Y391094D01*
X993045Y391159D01*
X992934Y391233D01*
X992823Y391316D01*
X992814Y391325D01*
X992795Y391334D01*
X992777Y391371D01*
X992740Y391408D01*
X992693Y391455D01*
X992647Y391510D01*
X992592Y391584D01*
X992545Y391667D01*
X992490Y391750D01*
X992434Y391852D01*
X992333Y392074D01*
X992250Y392333D01*
X992222Y392472D01*
X992203Y392620D01*
X993026Y392684D01*
Y392675D01*
Y392657D01*
X993036Y392629D01*
X993045Y392583D01*
X993072Y392481D01*
X993109Y392342D01*
X993165Y392203D01*
X993239Y392046D01*
X993331Y391908D01*
X993442Y391778D01*
X993461Y391769D01*
X993498Y391732D01*
X993572Y391686D01*
X993673Y391630D01*
X993784Y391575D01*
X993923Y391529D01*
X994080Y391492D01*
X994256Y391482D01*
X994311D01*
X994348Y391492D01*
X994459Y391501D01*
X994589Y391538D01*
X994746Y391584D01*
X994903Y391658D01*
X995070Y391769D01*
X995144Y391834D01*
X995217Y391908D01*
X995227Y391917D01*
X995236Y391926D01*
X995254Y391954D01*
X995282Y391982D01*
X995347Y392083D01*
X995421Y392213D01*
X995486Y392370D01*
X995550Y392564D01*
X995596Y392795D01*
X995615Y392915D01*
Y393045D01*
Y393054D01*
Y393073D01*
Y393110D01*
X995606Y393156D01*
Y393211D01*
X995596Y393276D01*
X995569Y393424D01*
X995523Y393600D01*
X995458Y393775D01*
X995365Y393942D01*
X995236Y394099D01*
Y394108D01*
X995217Y394117D01*
X995171Y394164D01*
X995088Y394228D01*
X994977Y394302D01*
X994829Y394367D01*
X994663Y394432D01*
X994469Y394478D01*
X994358Y394496D01*
X994182D01*
X994108Y394487D01*
X994016Y394478D01*
X993904Y394450D01*
X993794Y394422D01*
X993673Y394376D01*
X993553Y394321D01*
X993544Y394311D01*
X993507Y394293D01*
X993452Y394247D01*
X993378Y394201D01*
X993304Y394136D01*
X993230Y394053D01*
X993146Y393969D01*
X993082Y393868D01*
X992342Y393969D01*
X992962Y397261D01*
X996142D01*
Y396512D01*
D02*
G37*
G36*
X991214Y390706D02*
Y390696D01*
Y390669D01*
Y390622D01*
Y390567D01*
X991205Y390493D01*
Y390419D01*
X991186Y390234D01*
X991159Y390040D01*
X991122Y389837D01*
X991066Y389661D01*
X991029Y389578D01*
X990992Y389513D01*
Y389504D01*
X990983Y389495D01*
X990937Y389448D01*
X990863Y389374D01*
X990770Y389291D01*
X990641Y389208D01*
X990474Y389143D01*
X990280Y389088D01*
X990169Y389078D01*
X990049Y389069D01*
X989994D01*
X989938Y389078D01*
X989855D01*
X989762Y389088D01*
X989661Y389106D01*
X989439Y389162D01*
X989587Y389827D01*
X989596D01*
X989624Y389818D01*
X989670Y389809D01*
X989716Y389800D01*
X989837Y389772D01*
X989892Y389763D01*
X989984D01*
X990031Y389772D01*
X990086Y389781D01*
X990142Y389800D01*
X990197Y389837D01*
X990262Y389874D01*
X990308Y389929D01*
X990317Y389938D01*
X990327Y389966D01*
X990345Y390012D01*
X990373Y390086D01*
X990391Y390188D01*
X990400Y390262D01*
X990410Y390327D01*
X990419Y390410D01*
Y390512D01*
X990428Y390613D01*
Y390724D01*
Y395587D01*
X991214D01*
Y390706D01*
D02*
G37*
G36*
X927100Y406241D02*
X924132D01*
X924058Y406250D01*
X923975D01*
X923781Y406260D01*
X923577Y406287D01*
X923356Y406315D01*
X923152Y406361D01*
X923051Y406389D01*
X922967Y406417D01*
X922958D01*
X922949Y406426D01*
X922893Y406454D01*
X922810Y406491D01*
X922708Y406555D01*
X922598Y406639D01*
X922477Y406750D01*
X922366Y406879D01*
X922255Y407027D01*
Y407036D01*
X922246Y407046D01*
X922209Y407101D01*
X922172Y407193D01*
X922117Y407314D01*
X922070Y407452D01*
X922024Y407619D01*
X921997Y407794D01*
X921987Y407989D01*
Y407998D01*
Y408016D01*
Y408053D01*
X921997Y408100D01*
Y408164D01*
X922006Y408229D01*
X922043Y408386D01*
X922098Y408571D01*
X922172Y408765D01*
X922283Y408959D01*
X922357Y409052D01*
X922431Y409144D01*
X922440Y409154D01*
X922449Y409163D01*
X922477Y409190D01*
X922514Y409218D01*
X922561Y409255D01*
X922616Y409292D01*
X922690Y409338D01*
X922764Y409394D01*
X922856Y409440D01*
X922958Y409486D01*
X923069Y409542D01*
X923189Y409588D01*
X923328Y409625D01*
X923467Y409671D01*
X923624Y409699D01*
X923790Y409727D01*
X923772Y409736D01*
X923735Y409754D01*
X923679Y409791D01*
X923605Y409828D01*
X923439Y409930D01*
X923356Y409995D01*
X923282Y410050D01*
X923263Y410069D01*
X923217Y410115D01*
X923143Y410189D01*
X923051Y410281D01*
X922949Y410411D01*
X922829Y410550D01*
X922708Y410716D01*
X922579Y410901D01*
X921479Y412639D01*
X922533D01*
X923374Y411308D01*
Y411298D01*
X923393Y411280D01*
X923411Y411252D01*
X923439Y411215D01*
X923503Y411114D01*
X923587Y410984D01*
X923688Y410845D01*
X923790Y410698D01*
X923892Y410559D01*
X923984Y410429D01*
X923994Y410420D01*
X924021Y410383D01*
X924068Y410328D01*
X924132Y410263D01*
X924271Y410124D01*
X924345Y410060D01*
X924419Y410004D01*
X924428Y409995D01*
X924447Y409986D01*
X924484Y409967D01*
X924539Y409939D01*
X924594Y409912D01*
X924659Y409884D01*
X924807Y409838D01*
X924816D01*
X924835Y409828D01*
X924872D01*
X924918Y409819D01*
X924983Y409810D01*
X925057D01*
X925158Y409801D01*
X926249D01*
Y412639D01*
X927100D01*
Y406241D01*
D02*
G37*
G36*
X918890Y412741D02*
X918964D01*
X919047Y412732D01*
X919140Y412713D01*
X919251Y412685D01*
X919361Y412658D01*
X919491Y412621D01*
X919620Y412574D01*
X919750Y412519D01*
X919889Y412445D01*
X920018Y412362D01*
X920147Y412269D01*
X920277Y412158D01*
X920397Y412029D01*
X920406Y412020D01*
X920425Y411992D01*
X920452Y411955D01*
X920490Y411890D01*
X920545Y411807D01*
X920591Y411715D01*
X920647Y411594D01*
X920702Y411465D01*
X920767Y411308D01*
X920822Y411132D01*
X920869Y410938D01*
X920915Y410725D01*
X920961Y410485D01*
X920989Y410226D01*
X921007Y409949D01*
X921016Y409653D01*
Y409644D01*
Y409634D01*
Y409607D01*
Y409570D01*
X921007Y409477D01*
Y409348D01*
X920998Y409200D01*
X920980Y409024D01*
X920961Y408830D01*
X920933Y408617D01*
X920896Y408405D01*
X920850Y408173D01*
X920795Y407952D01*
X920730Y407730D01*
X920647Y407517D01*
X920554Y407314D01*
X920452Y407119D01*
X920332Y406953D01*
X920323Y406944D01*
X920305Y406925D01*
X920268Y406888D01*
X920221Y406833D01*
X920166Y406777D01*
X920092Y406722D01*
X919999Y406648D01*
X919907Y406583D01*
X919796Y406519D01*
X919676Y406445D01*
X919537Y406389D01*
X919398Y406324D01*
X919241Y406278D01*
X919075Y406241D01*
X918899Y406223D01*
X918714Y406213D01*
X918640D01*
X918585Y406223D01*
X918520D01*
X918446Y406232D01*
X918270Y406269D01*
X918076Y406315D01*
X917873Y406389D01*
X917670Y406500D01*
X917568Y406565D01*
X917475Y406639D01*
X917466Y406648D01*
X917457Y406657D01*
X917429Y406685D01*
X917401Y406713D01*
X917355Y406759D01*
X917318Y406814D01*
X917216Y406944D01*
X917115Y407110D01*
X917022Y407314D01*
X916939Y407545D01*
X916884Y407804D01*
X917670Y407868D01*
Y407859D01*
X917679Y407850D01*
X917688Y407794D01*
X917716Y407711D01*
X917753Y407609D01*
X917790Y407499D01*
X917845Y407388D01*
X917910Y407286D01*
X917975Y407203D01*
X917993Y407184D01*
X918030Y407147D01*
X918095Y407092D01*
X918187Y407027D01*
X918307Y406972D01*
X918437Y406916D01*
X918594Y406879D01*
X918761Y406861D01*
X918825D01*
X918899Y406870D01*
X918982Y406888D01*
X919093Y406916D01*
X919204Y406953D01*
X919315Y406999D01*
X919426Y407073D01*
X919445Y407082D01*
X919491Y407119D01*
X919556Y407184D01*
X919639Y407277D01*
X919731Y407388D01*
X919833Y407517D01*
X919926Y407683D01*
X920018Y407868D01*
Y407878D01*
X920027Y407896D01*
X920036Y407924D01*
X920055Y407961D01*
X920064Y408016D01*
X920083Y408081D01*
X920101Y408155D01*
X920120Y408247D01*
X920147Y408349D01*
X920166Y408460D01*
X920184Y408580D01*
X920194Y408710D01*
X920212Y408858D01*
X920221Y409006D01*
X920231Y409172D01*
Y409338D01*
X920221Y409329D01*
X920184Y409274D01*
X920120Y409200D01*
X920036Y409107D01*
X919944Y408996D01*
X919824Y408895D01*
X919694Y408793D01*
X919546Y408700D01*
X919537D01*
X919528Y408691D01*
X919473Y408663D01*
X919389Y408636D01*
X919278Y408590D01*
X919149Y408553D01*
X919001Y408525D01*
X918844Y408497D01*
X918677Y408488D01*
X918603D01*
X918548Y408497D01*
X918474Y408506D01*
X918400Y408516D01*
X918307Y408534D01*
X918215Y408562D01*
X918002Y408627D01*
X917891Y408673D01*
X917781Y408737D01*
X917670Y408802D01*
X917549Y408876D01*
X917438Y408969D01*
X917337Y409070D01*
X917327Y409080D01*
X917309Y409098D01*
X917281Y409126D01*
X917253Y409172D01*
X917207Y409237D01*
X917161Y409301D01*
X917115Y409385D01*
X917059Y409477D01*
X917004Y409579D01*
X916958Y409690D01*
X916911Y409819D01*
X916865Y409949D01*
X916837Y410087D01*
X916810Y410244D01*
X916791Y410402D01*
X916782Y410568D01*
Y410577D01*
Y410596D01*
Y410624D01*
Y410670D01*
X916791Y410725D01*
Y410781D01*
X916819Y410929D01*
X916847Y411104D01*
X916893Y411289D01*
X916958Y411493D01*
X917050Y411687D01*
Y411696D01*
X917059Y411705D01*
X917078Y411733D01*
X917096Y411770D01*
X917152Y411862D01*
X917235Y411983D01*
X917337Y412112D01*
X917457Y412242D01*
X917605Y412371D01*
X917762Y412482D01*
X917771D01*
X917781Y412491D01*
X917808Y412510D01*
X917845Y412519D01*
X917938Y412565D01*
X918058Y412611D01*
X918215Y412667D01*
X918391Y412704D01*
X918585Y412741D01*
X918798Y412750D01*
X918844D01*
X918890Y412741D01*
D02*
G37*
G36*
X928300Y442422D02*
X925841D01*
X925674Y442431D01*
X925489Y442441D01*
X925304Y442459D01*
X925119Y442487D01*
X924962Y442515D01*
X924953D01*
X924935Y442524D01*
X924907D01*
X924870Y442542D01*
X924768Y442570D01*
X924639Y442616D01*
X924491Y442681D01*
X924334Y442764D01*
X924176Y442857D01*
X924028Y442977D01*
X924019Y442986D01*
X924010Y442995D01*
X923982Y443023D01*
X923945Y443051D01*
X923853Y443143D01*
X923742Y443273D01*
X923622Y443430D01*
X923492Y443615D01*
X923372Y443828D01*
X923270Y444068D01*
Y444077D01*
X923261Y444096D01*
X923243Y444133D01*
X923233Y444188D01*
X923206Y444253D01*
X923187Y444327D01*
X923169Y444410D01*
X923141Y444512D01*
X923113Y444613D01*
X923095Y444734D01*
X923048Y444993D01*
X923021Y445279D01*
X923011Y445593D01*
Y445603D01*
Y445621D01*
Y445667D01*
Y445714D01*
X923021Y445778D01*
Y445852D01*
X923030Y446028D01*
X923058Y446231D01*
X923085Y446444D01*
X923132Y446666D01*
X923187Y446888D01*
Y446897D01*
X923196Y446916D01*
X923206Y446943D01*
X923215Y446980D01*
X923252Y447082D01*
X923307Y447211D01*
X923363Y447359D01*
X923437Y447507D01*
X923529Y447664D01*
X923622Y447812D01*
X923631Y447831D01*
X923668Y447877D01*
X923723Y447942D01*
X923797Y448025D01*
X923881Y448118D01*
X923982Y448210D01*
X924084Y448312D01*
X924204Y448395D01*
X924223Y448404D01*
X924260Y448432D01*
X924324Y448469D01*
X924417Y448515D01*
X924528Y448571D01*
X924657Y448617D01*
X924805Y448672D01*
X924972Y448718D01*
X924990D01*
X925018Y448728D01*
X925045Y448737D01*
X925138Y448746D01*
X925267Y448765D01*
X925415Y448783D01*
X925591Y448802D01*
X925785Y448811D01*
X925998Y448820D01*
X928300D01*
Y442422D01*
D02*
G37*
G36*
X919997Y443818D02*
X920007Y443828D01*
X920053Y443865D01*
X920108Y443920D01*
X920201Y443985D01*
X920303Y444068D01*
X920432Y444160D01*
X920580Y444262D01*
X920746Y444364D01*
X920756D01*
X920765Y444373D01*
X920820Y444410D01*
X920913Y444456D01*
X921024Y444512D01*
X921153Y444576D01*
X921292Y444641D01*
X921431Y444706D01*
X921569Y444761D01*
Y444003D01*
X921560D01*
X921541Y443985D01*
X921505Y443975D01*
X921458Y443948D01*
X921403Y443920D01*
X921338Y443883D01*
X921181Y443791D01*
X920996Y443689D01*
X920811Y443559D01*
X920617Y443412D01*
X920423Y443254D01*
X920414Y443245D01*
X920404Y443236D01*
X920377Y443208D01*
X920340Y443180D01*
X920256Y443088D01*
X920145Y442977D01*
X920034Y442848D01*
X919914Y442700D01*
X919812Y442552D01*
X919720Y442394D01*
X919212D01*
Y448820D01*
X919997D01*
Y443818D01*
D02*
G37*
G36*
X712975Y602989D02*
X712189D01*
Y603905D01*
X712975D01*
Y602989D01*
D02*
G37*
G36*
X717265Y599763D02*
X718134D01*
Y599041D01*
X717265D01*
Y597507D01*
X716479D01*
Y599041D01*
X713696D01*
Y599763D01*
X716627Y603905D01*
X717265D01*
Y599763D01*
D02*
G37*
G36*
X712975Y597266D02*
Y597257D01*
Y597229D01*
Y597183D01*
Y597128D01*
X712966Y597054D01*
Y596980D01*
X712947Y596795D01*
X712920Y596601D01*
X712883Y596397D01*
X712827Y596222D01*
X712790Y596138D01*
X712753Y596074D01*
Y596064D01*
X712744Y596055D01*
X712698Y596009D01*
X712624Y595935D01*
X712531Y595852D01*
X712402Y595769D01*
X712235Y595704D01*
X712041Y595648D01*
X711930Y595639D01*
X711810Y595630D01*
X711755D01*
X711699Y595639D01*
X711616D01*
X711524Y595648D01*
X711422Y595667D01*
X711200Y595722D01*
X711348Y596388D01*
X711357D01*
X711385Y596379D01*
X711431Y596370D01*
X711477Y596360D01*
X711597Y596333D01*
X711653Y596323D01*
X711745D01*
X711792Y596333D01*
X711847Y596342D01*
X711902Y596360D01*
X711958Y596397D01*
X712023Y596434D01*
X712069Y596490D01*
X712078Y596499D01*
X712087Y596527D01*
X712106Y596573D01*
X712134Y596647D01*
X712152Y596749D01*
X712161Y596823D01*
X712171Y596887D01*
X712180Y596970D01*
Y597072D01*
X712189Y597174D01*
Y597285D01*
Y602148D01*
X712975D01*
Y597266D01*
D02*
G37*
G36*
X936608Y391337D02*
X936654D01*
X936719Y391328D01*
X936876Y391300D01*
X937051Y391263D01*
X937246Y391199D01*
X937440Y391115D01*
X937634Y391004D01*
X937643D01*
X937653Y390986D01*
X937680Y390967D01*
X937717Y390940D01*
X937810Y390866D01*
X937930Y390764D01*
X938050Y390625D01*
X938189Y390459D01*
X938309Y390265D01*
X938420Y390043D01*
Y390034D01*
X938429Y390015D01*
X938448Y389978D01*
X938466Y389932D01*
X938485Y389867D01*
X938512Y389784D01*
X938531Y389692D01*
X938559Y389590D01*
X938586Y389470D01*
X938614Y389331D01*
X938633Y389183D01*
X938651Y389026D01*
X938670Y388850D01*
X938688Y388665D01*
X938697Y388462D01*
Y388249D01*
Y388240D01*
Y388194D01*
Y388129D01*
Y388046D01*
X938688Y387944D01*
Y387824D01*
X938679Y387685D01*
X938660Y387547D01*
X938633Y387232D01*
X938586Y386899D01*
X938521Y386585D01*
X938475Y386428D01*
X938429Y386289D01*
Y386280D01*
X938420Y386261D01*
X938401Y386224D01*
X938383Y386169D01*
X938355Y386114D01*
X938318Y386040D01*
X938226Y385882D01*
X938115Y385707D01*
X937985Y385522D01*
X937819Y385346D01*
X937634Y385189D01*
X937625D01*
X937606Y385171D01*
X937579Y385152D01*
X937542Y385134D01*
X937486Y385106D01*
X937431Y385069D01*
X937357Y385032D01*
X937283Y385004D01*
X937107Y384930D01*
X936894Y384865D01*
X936663Y384828D01*
X936404Y384810D01*
X936330D01*
X936284Y384819D01*
X936219D01*
X936145Y384828D01*
X935970Y384865D01*
X935776Y384912D01*
X935572Y384986D01*
X935369Y385087D01*
X935267Y385152D01*
X935175Y385226D01*
X935165Y385235D01*
X935156Y385244D01*
X935128Y385272D01*
X935101Y385300D01*
X935064Y385346D01*
X935017Y385402D01*
X934925Y385531D01*
X934833Y385698D01*
X934740Y385901D01*
X934666Y386132D01*
X934611Y386400D01*
X935369Y386465D01*
Y386456D01*
X935378Y386437D01*
Y386419D01*
X935387Y386382D01*
X935415Y386280D01*
X935452Y386169D01*
X935498Y386040D01*
X935563Y385910D01*
X935637Y385790D01*
X935729Y385688D01*
X935739Y385679D01*
X935776Y385651D01*
X935840Y385614D01*
X935914Y385577D01*
X936016Y385531D01*
X936136Y385494D01*
X936275Y385466D01*
X936423Y385457D01*
X936488D01*
X936552Y385466D01*
X936635Y385476D01*
X936737Y385494D01*
X936839Y385522D01*
X936950Y385559D01*
X937051Y385614D01*
X937061Y385624D01*
X937098Y385642D01*
X937153Y385679D01*
X937209Y385734D01*
X937283Y385799D01*
X937357Y385873D01*
X937431Y385956D01*
X937505Y386058D01*
X937514Y386067D01*
X937532Y386114D01*
X937569Y386178D01*
X937606Y386261D01*
X937653Y386372D01*
X937699Y386502D01*
X937745Y386650D01*
X937791Y386816D01*
Y386825D01*
X937800Y386835D01*
Y386862D01*
X937810Y386899D01*
X937828Y386992D01*
X937856Y387112D01*
X937874Y387260D01*
X937893Y387417D01*
X937902Y387593D01*
X937911Y387778D01*
Y387787D01*
Y387815D01*
Y387861D01*
Y387935D01*
X937902Y387916D01*
X937865Y387870D01*
X937810Y387805D01*
X937745Y387713D01*
X937653Y387621D01*
X937542Y387519D01*
X937412Y387417D01*
X937264Y387325D01*
X937246Y387315D01*
X937190Y387288D01*
X937107Y387251D01*
X937005Y387214D01*
X936867Y387168D01*
X936719Y387131D01*
X936552Y387103D01*
X936377Y387094D01*
X936303D01*
X936247Y387103D01*
X936173Y387112D01*
X936099Y387121D01*
X936007Y387140D01*
X935914Y387168D01*
X935702Y387232D01*
X935591Y387278D01*
X935480Y387334D01*
X935359Y387399D01*
X935249Y387482D01*
X935138Y387565D01*
X935036Y387667D01*
X935027Y387676D01*
X935008Y387695D01*
X934990Y387722D01*
X934953Y387769D01*
X934906Y387833D01*
X934860Y387898D01*
X934814Y387981D01*
X934768Y388074D01*
X934712Y388175D01*
X934666Y388286D01*
X934620Y388416D01*
X934574Y388545D01*
X934537Y388693D01*
X934518Y388850D01*
X934500Y389007D01*
X934491Y389183D01*
Y389192D01*
Y389229D01*
Y389276D01*
X934500Y389340D01*
X934509Y389423D01*
X934518Y389525D01*
X934537Y389627D01*
X934564Y389747D01*
X934629Y389987D01*
X934675Y390117D01*
X934731Y390256D01*
X934796Y390385D01*
X934879Y390505D01*
X934962Y390635D01*
X935064Y390746D01*
X935073Y390755D01*
X935091Y390773D01*
X935119Y390801D01*
X935165Y390838D01*
X935221Y390884D01*
X935295Y390940D01*
X935369Y390986D01*
X935461Y391051D01*
X935554Y391106D01*
X935665Y391152D01*
X935914Y391254D01*
X936044Y391291D01*
X936192Y391319D01*
X936340Y391337D01*
X936497Y391347D01*
X936562D01*
X936608Y391337D01*
D02*
G37*
G36*
X931412Y391310D02*
X931495D01*
X931689Y391300D01*
X931892Y391273D01*
X932114Y391245D01*
X932318Y391199D01*
X932419Y391171D01*
X932503Y391143D01*
X932512D01*
X932521Y391134D01*
X932577Y391106D01*
X932660Y391069D01*
X932762Y391004D01*
X932872Y390921D01*
X932993Y390810D01*
X933104Y390681D01*
X933215Y390533D01*
Y390524D01*
X933224Y390514D01*
X933261Y390459D01*
X933298Y390367D01*
X933353Y390246D01*
X933400Y390108D01*
X933446Y389941D01*
X933473Y389766D01*
X933483Y389571D01*
Y389562D01*
Y389544D01*
Y389507D01*
X933473Y389460D01*
Y389396D01*
X933464Y389331D01*
X933427Y389174D01*
X933372Y388989D01*
X933298Y388795D01*
X933187Y388601D01*
X933113Y388508D01*
X933039Y388416D01*
X933030Y388406D01*
X933020Y388397D01*
X932993Y388369D01*
X932956Y388342D01*
X932909Y388305D01*
X932854Y388268D01*
X932780Y388222D01*
X932706Y388166D01*
X932614Y388120D01*
X932512Y388074D01*
X932401Y388018D01*
X932281Y387972D01*
X932142Y387935D01*
X932003Y387889D01*
X931846Y387861D01*
X931680Y387833D01*
X931698Y387824D01*
X931735Y387805D01*
X931791Y387769D01*
X931865Y387732D01*
X932031Y387630D01*
X932114Y387565D01*
X932188Y387510D01*
X932207Y387491D01*
X932253Y387445D01*
X932327Y387371D01*
X932419Y387278D01*
X932521Y387149D01*
X932641Y387010D01*
X932762Y386844D01*
X932891Y386659D01*
X933991Y384921D01*
X932937D01*
X932096Y386252D01*
Y386261D01*
X932077Y386280D01*
X932059Y386308D01*
X932031Y386345D01*
X931966Y386446D01*
X931883Y386576D01*
X931781Y386715D01*
X931680Y386862D01*
X931578Y387001D01*
X931486Y387131D01*
X931476Y387140D01*
X931449Y387177D01*
X931402Y387232D01*
X931338Y387297D01*
X931199Y387436D01*
X931125Y387500D01*
X931051Y387556D01*
X931042Y387565D01*
X931023Y387574D01*
X930986Y387593D01*
X930931Y387621D01*
X930875Y387648D01*
X930811Y387676D01*
X930663Y387722D01*
X930654D01*
X930635Y387732D01*
X930598D01*
X930552Y387741D01*
X930487Y387750D01*
X930413D01*
X930311Y387759D01*
X929221D01*
Y384921D01*
X928370D01*
Y391319D01*
X931338D01*
X931412Y391310D01*
D02*
G37*
G36*
X982584Y471161D02*
X982658Y471152D01*
X982741Y471142D01*
X982834Y471124D01*
X982935Y471105D01*
X983157Y471050D01*
X983389Y470957D01*
X983509Y470902D01*
X983620Y470837D01*
X983731Y470754D01*
X983841Y470671D01*
X983851Y470662D01*
X983869Y470643D01*
X983897Y470615D01*
X983925Y470578D01*
X983971Y470532D01*
X984017Y470467D01*
X984073Y470403D01*
X984128Y470320D01*
X984184Y470227D01*
X984239Y470135D01*
X984341Y469913D01*
X984424Y469654D01*
X984452Y469515D01*
X984470Y469367D01*
X983684Y469266D01*
Y469275D01*
X983675Y469293D01*
X983666Y469330D01*
X983657Y469376D01*
X983647Y469432D01*
X983629Y469497D01*
X983583Y469635D01*
X983518Y469802D01*
X983435Y469959D01*
X983342Y470107D01*
X983231Y470236D01*
X983213Y470246D01*
X983176Y470283D01*
X983102Y470329D01*
X983009Y470375D01*
X982898Y470430D01*
X982760Y470477D01*
X982603Y470514D01*
X982436Y470523D01*
X982381D01*
X982344Y470514D01*
X982242Y470504D01*
X982113Y470477D01*
X981965Y470430D01*
X981807Y470366D01*
X981650Y470273D01*
X981502Y470144D01*
X981484Y470125D01*
X981438Y470070D01*
X981382Y469987D01*
X981308Y469876D01*
X981234Y469737D01*
X981179Y469580D01*
X981133Y469395D01*
X981114Y469192D01*
Y469182D01*
Y469164D01*
Y469136D01*
X981123Y469099D01*
X981133Y468997D01*
X981160Y468877D01*
X981197Y468729D01*
X981262Y468581D01*
X981355Y468433D01*
X981475Y468295D01*
X981493Y468276D01*
X981539Y468239D01*
X981613Y468184D01*
X981715Y468119D01*
X981844Y468054D01*
X982002Y467999D01*
X982177Y467962D01*
X982372Y467943D01*
X982455D01*
X982519Y467953D01*
X982603Y467962D01*
X982695Y467980D01*
X982806Y467999D01*
X982926Y468027D01*
X982834Y467333D01*
X982787D01*
X982751Y467342D01*
X982630D01*
X982529Y467324D01*
X982409Y467305D01*
X982270Y467278D01*
X982113Y467231D01*
X981965Y467167D01*
X981807Y467084D01*
X981798D01*
X981789Y467074D01*
X981743Y467037D01*
X981678Y466973D01*
X981604Y466889D01*
X981530Y466769D01*
X981465Y466631D01*
X981419Y466473D01*
X981401Y466381D01*
Y466279D01*
Y466270D01*
Y466261D01*
Y466205D01*
X981419Y466131D01*
X981438Y466030D01*
X981475Y465919D01*
X981521Y465798D01*
X981595Y465678D01*
X981697Y465567D01*
X981706Y465558D01*
X981752Y465521D01*
X981817Y465475D01*
X981900Y465419D01*
X982011Y465373D01*
X982140Y465327D01*
X982288Y465290D01*
X982455Y465281D01*
X982529D01*
X982612Y465299D01*
X982723Y465318D01*
X982843Y465355D01*
X982963Y465401D01*
X983093Y465475D01*
X983213Y465567D01*
X983222Y465577D01*
X983259Y465623D01*
X983315Y465687D01*
X983379Y465780D01*
X983444Y465900D01*
X983509Y466048D01*
X983564Y466224D01*
X983601Y466427D01*
X984387Y466288D01*
Y466279D01*
X984378Y466251D01*
X984369Y466214D01*
X984359Y466159D01*
X984341Y466094D01*
X984313Y466020D01*
X984258Y465845D01*
X984165Y465641D01*
X984054Y465438D01*
X983915Y465244D01*
X983740Y465068D01*
X983731Y465059D01*
X983712Y465050D01*
X983684Y465031D01*
X983647Y465003D01*
X983601Y464966D01*
X983536Y464929D01*
X983472Y464892D01*
X983389Y464846D01*
X983204Y464772D01*
X982991Y464698D01*
X982741Y464652D01*
X982612Y464633D01*
X982381D01*
X982279Y464643D01*
X982159Y464661D01*
X982011Y464689D01*
X981844Y464735D01*
X981678Y464791D01*
X981512Y464865D01*
X981502D01*
X981493Y464874D01*
X981438Y464902D01*
X981355Y464957D01*
X981262Y465022D01*
X981151Y465114D01*
X981040Y465216D01*
X980929Y465336D01*
X980837Y465475D01*
X980827Y465493D01*
X980800Y465540D01*
X980763Y465623D01*
X980716Y465724D01*
X980670Y465845D01*
X980633Y465983D01*
X980606Y466141D01*
X980596Y466298D01*
Y466316D01*
Y466372D01*
X980606Y466446D01*
X980624Y466547D01*
X980652Y466668D01*
X980698Y466797D01*
X980753Y466926D01*
X980827Y467056D01*
X980837Y467074D01*
X980864Y467111D01*
X980920Y467176D01*
X980994Y467250D01*
X981086Y467333D01*
X981197Y467426D01*
X981327Y467509D01*
X981484Y467592D01*
X981475D01*
X981456Y467601D01*
X981428Y467611D01*
X981392Y467620D01*
X981290Y467657D01*
X981160Y467712D01*
X981012Y467786D01*
X980864Y467879D01*
X980726Y467999D01*
X980596Y468138D01*
X980587Y468156D01*
X980550Y468212D01*
X980495Y468304D01*
X980439Y468424D01*
X980384Y468572D01*
X980328Y468748D01*
X980291Y468951D01*
X980282Y469173D01*
Y469182D01*
Y469210D01*
Y469256D01*
X980291Y469312D01*
X980301Y469386D01*
X980319Y469469D01*
X980338Y469561D01*
X980356Y469663D01*
X980430Y469885D01*
X980485Y470005D01*
X980541Y470116D01*
X980615Y470236D01*
X980698Y470356D01*
X980790Y470477D01*
X980901Y470588D01*
X980911Y470597D01*
X980929Y470615D01*
X980966Y470643D01*
X981012Y470680D01*
X981068Y470726D01*
X981142Y470773D01*
X981225Y470828D01*
X981327Y470874D01*
X981428Y470930D01*
X981549Y470985D01*
X981669Y471031D01*
X981807Y471078D01*
X981955Y471115D01*
X982113Y471142D01*
X982270Y471161D01*
X982446Y471170D01*
X982529D01*
X982584Y471161D01*
D02*
G37*
G36*
X990600Y464661D02*
X987632D01*
X987558Y464670D01*
X987475D01*
X987281Y464680D01*
X987077Y464707D01*
X986856Y464735D01*
X986652Y464781D01*
X986551Y464809D01*
X986467Y464837D01*
X986458D01*
X986449Y464846D01*
X986393Y464874D01*
X986310Y464911D01*
X986208Y464976D01*
X986097Y465059D01*
X985977Y465170D01*
X985866Y465299D01*
X985755Y465447D01*
Y465456D01*
X985746Y465466D01*
X985709Y465521D01*
X985672Y465614D01*
X985617Y465734D01*
X985571Y465872D01*
X985524Y466039D01*
X985497Y466214D01*
X985487Y466409D01*
Y466418D01*
Y466436D01*
Y466473D01*
X985497Y466520D01*
Y466584D01*
X985506Y466649D01*
X985543Y466806D01*
X985598Y466991D01*
X985672Y467185D01*
X985783Y467379D01*
X985857Y467472D01*
X985931Y467564D01*
X985940Y467574D01*
X985949Y467583D01*
X985977Y467611D01*
X986014Y467638D01*
X986060Y467675D01*
X986116Y467712D01*
X986190Y467758D01*
X986264Y467814D01*
X986356Y467860D01*
X986458Y467906D01*
X986569Y467962D01*
X986689Y468008D01*
X986828Y468045D01*
X986967Y468091D01*
X987124Y468119D01*
X987290Y468147D01*
X987272Y468156D01*
X987235Y468175D01*
X987179Y468212D01*
X987105Y468248D01*
X986939Y468350D01*
X986856Y468415D01*
X986782Y468470D01*
X986763Y468489D01*
X986717Y468535D01*
X986643Y468609D01*
X986551Y468702D01*
X986449Y468831D01*
X986329Y468970D01*
X986208Y469136D01*
X986079Y469321D01*
X984979Y471059D01*
X986033D01*
X986874Y469728D01*
Y469719D01*
X986893Y469700D01*
X986911Y469672D01*
X986939Y469635D01*
X987003Y469534D01*
X987087Y469404D01*
X987188Y469266D01*
X987290Y469118D01*
X987392Y468979D01*
X987484Y468849D01*
X987494Y468840D01*
X987521Y468803D01*
X987568Y468748D01*
X987632Y468683D01*
X987771Y468544D01*
X987845Y468480D01*
X987919Y468424D01*
X987928Y468415D01*
X987947Y468406D01*
X987984Y468387D01*
X988039Y468359D01*
X988094Y468332D01*
X988159Y468304D01*
X988307Y468258D01*
X988316D01*
X988335Y468248D01*
X988372D01*
X988418Y468239D01*
X988483Y468230D01*
X988557D01*
X988659Y468221D01*
X989750D01*
Y471059D01*
X990600D01*
Y464661D01*
D02*
G37*
G36*
X991117Y557687D02*
X991192D01*
X991284Y557678D01*
X991384Y557670D01*
X991592Y557653D01*
X991809Y557620D01*
X992017Y557578D01*
X992117Y557553D01*
X992200Y557520D01*
X992209D01*
X992217Y557512D01*
X992242Y557503D01*
X992275Y557487D01*
X992359Y557445D01*
X992459Y557378D01*
X992575Y557295D01*
X992692Y557187D01*
X992809Y557053D01*
X992917Y556903D01*
Y556895D01*
X992925Y556887D01*
X992942Y556862D01*
X992959Y556828D01*
X993000Y556737D01*
X993050Y556620D01*
X993100Y556479D01*
X993142Y556312D01*
X993175Y556129D01*
X993184Y555937D01*
Y555929D01*
Y555904D01*
Y555870D01*
X993175Y555820D01*
X993167Y555762D01*
X993159Y555695D01*
X993125Y555537D01*
X993075Y555354D01*
X993000Y555162D01*
X992950Y555070D01*
X992892Y554971D01*
X992817Y554879D01*
X992742Y554787D01*
X992734Y554779D01*
X992725Y554771D01*
X992692Y554746D01*
X992659Y554712D01*
X992609Y554679D01*
X992550Y554637D01*
X992484Y554587D01*
X992409Y554537D01*
X992317Y554487D01*
X992217Y554437D01*
X992101Y554387D01*
X991975Y554337D01*
X991842Y554296D01*
X991701Y554254D01*
X991542Y554221D01*
X991376Y554196D01*
X991392Y554187D01*
X991434Y554171D01*
X991492Y554137D01*
X991567Y554096D01*
X991734Y553988D01*
X991809Y553929D01*
X991884Y553871D01*
X991892D01*
X991901Y553854D01*
X991951Y553812D01*
X992017Y553738D01*
X992117Y553638D01*
X992225Y553521D01*
X992342Y553371D01*
X992467Y553204D01*
X992592Y553021D01*
X993700Y551288D01*
X992634D01*
X991792Y552613D01*
Y552621D01*
X991776Y552638D01*
X991759Y552671D01*
X991734Y552705D01*
X991701Y552755D01*
X991659Y552813D01*
X991576Y552938D01*
X991476Y553079D01*
X991376Y553221D01*
X991276Y553363D01*
X991176Y553488D01*
X991167Y553504D01*
X991134Y553538D01*
X991092Y553596D01*
X991034Y553654D01*
X990967Y553729D01*
X990892Y553804D01*
X990817Y553862D01*
X990742Y553921D01*
X990734Y553929D01*
X990709Y553937D01*
X990676Y553963D01*
X990626Y553988D01*
X990568Y554021D01*
X990501Y554046D01*
X990359Y554096D01*
X990351D01*
X990334Y554104D01*
X990301D01*
X990251Y554113D01*
X990184Y554121D01*
X990101D01*
X990009Y554129D01*
X988910D01*
Y551288D01*
X988060D01*
Y557695D01*
X991042D01*
X991117Y557687D01*
D02*
G37*
G36*
X996424Y557711D02*
X996491Y557703D01*
X996574Y557695D01*
X996666Y557678D01*
X996766Y557662D01*
X996983Y557603D01*
X997091Y557562D01*
X997207Y557512D01*
X997316Y557453D01*
X997432Y557395D01*
X997532Y557312D01*
X997632Y557228D01*
X997641Y557220D01*
X997657Y557203D01*
X997682Y557178D01*
X997716Y557145D01*
X997749Y557095D01*
X997799Y557037D01*
X997841Y556970D01*
X997891Y556903D01*
X997982Y556729D01*
X998066Y556529D01*
X998099Y556412D01*
X998124Y556295D01*
X998141Y556170D01*
X998149Y556045D01*
Y556037D01*
Y556029D01*
Y556004D01*
Y555970D01*
X998141Y555887D01*
X998116Y555779D01*
X998091Y555654D01*
X998049Y555529D01*
X997991Y555396D01*
X997907Y555262D01*
X997899Y555246D01*
X997866Y555212D01*
X997807Y555154D01*
X997732Y555079D01*
X997632Y554996D01*
X997507Y554912D01*
X997366Y554829D01*
X997199Y554754D01*
X997207D01*
X997224Y554746D01*
X997258Y554737D01*
X997299Y554721D01*
X997349Y554696D01*
X997399Y554671D01*
X997532Y554604D01*
X997682Y554521D01*
X997832Y554412D01*
X997974Y554287D01*
X998099Y554137D01*
Y554129D01*
X998116Y554121D01*
X998124Y554096D01*
X998149Y554062D01*
X998174Y554021D01*
X998199Y553971D01*
X998257Y553854D01*
X998307Y553704D01*
X998357Y553529D01*
X998391Y553329D01*
X998407Y553113D01*
Y553104D01*
Y553079D01*
Y553038D01*
X998399Y552979D01*
X998391Y552904D01*
X998374Y552821D01*
X998357Y552738D01*
X998332Y552638D01*
X998307Y552529D01*
X998266Y552421D01*
X998216Y552305D01*
X998166Y552188D01*
X998091Y552071D01*
X998016Y551955D01*
X997924Y551846D01*
X997824Y551738D01*
X997816Y551730D01*
X997799Y551713D01*
X997766Y551688D01*
X997716Y551655D01*
X997657Y551605D01*
X997591Y551563D01*
X997507Y551513D01*
X997416Y551463D01*
X997308Y551405D01*
X997199Y551355D01*
X997074Y551313D01*
X996933Y551272D01*
X996791Y551230D01*
X996633Y551205D01*
X996474Y551188D01*
X996299Y551180D01*
X996208D01*
X996141Y551188D01*
X996058Y551197D01*
X995966Y551213D01*
X995866Y551230D01*
X995750Y551246D01*
X995508Y551313D01*
X995383Y551363D01*
X995250Y551413D01*
X995125Y551480D01*
X995000Y551555D01*
X994883Y551638D01*
X994766Y551738D01*
X994758Y551746D01*
X994742Y551763D01*
X994716Y551796D01*
X994675Y551838D01*
X994633Y551896D01*
X994583Y551963D01*
X994533Y552038D01*
X994483Y552121D01*
X994425Y552221D01*
X994375Y552321D01*
X994325Y552438D01*
X994283Y552563D01*
X994242Y552696D01*
X994217Y552838D01*
X994200Y552988D01*
X994192Y553138D01*
Y553146D01*
Y553163D01*
Y553196D01*
X994200Y553246D01*
Y553296D01*
X994208Y553354D01*
X994233Y553504D01*
X994267Y553671D01*
X994325Y553838D01*
X994400Y554012D01*
X994508Y554179D01*
Y554187D01*
X994525Y554196D01*
X994566Y554246D01*
X994641Y554321D01*
X994742Y554412D01*
X994866Y554504D01*
X995025Y554604D01*
X995200Y554687D01*
X995408Y554754D01*
X995400D01*
X995383Y554762D01*
X995358Y554771D01*
X995325Y554787D01*
X995241Y554829D01*
X995133Y554887D01*
X995016Y554962D01*
X994892Y555046D01*
X994783Y555154D01*
X994683Y555271D01*
X994675Y555287D01*
X994650Y555329D01*
X994608Y555404D01*
X994566Y555495D01*
X994525Y555612D01*
X994483Y555745D01*
X994458Y555895D01*
X994450Y556062D01*
Y556070D01*
Y556095D01*
Y556129D01*
X994458Y556179D01*
X994467Y556237D01*
X994475Y556312D01*
X994517Y556470D01*
X994575Y556654D01*
X994616Y556753D01*
X994658Y556853D01*
X994716Y556953D01*
X994783Y557053D01*
X994858Y557145D01*
X994950Y557237D01*
X994958Y557245D01*
X994975Y557262D01*
X995000Y557278D01*
X995041Y557312D01*
X995091Y557345D01*
X995150Y557387D01*
X995225Y557437D01*
X995308Y557478D01*
X995391Y557520D01*
X995491Y557570D01*
X995608Y557612D01*
X995725Y557645D01*
X995850Y557678D01*
X995983Y557703D01*
X996133Y557711D01*
X996283Y557720D01*
X996366D01*
X996424Y557711D01*
D02*
G37*
G36*
X975095Y519961D02*
X976630D01*
Y519175D01*
X975095D01*
Y516392D01*
X974374D01*
X970232Y519323D01*
Y519961D01*
X974374D01*
Y520830D01*
X975095D01*
Y519961D01*
D02*
G37*
G36*
X976630Y515107D02*
X975299Y514266D01*
X975290D01*
X975271Y514247D01*
X975243Y514229D01*
X975206Y514201D01*
X975105Y514136D01*
X974975Y514053D01*
X974836Y513951D01*
X974688Y513850D01*
X974550Y513748D01*
X974420Y513656D01*
X974411Y513646D01*
X974374Y513619D01*
X974319Y513572D01*
X974254Y513508D01*
X974115Y513369D01*
X974051Y513295D01*
X973995Y513221D01*
X973986Y513212D01*
X973977Y513193D01*
X973958Y513156D01*
X973930Y513101D01*
X973903Y513045D01*
X973875Y512981D01*
X973829Y512833D01*
Y512823D01*
X973819Y512805D01*
Y512768D01*
X973810Y512722D01*
X973801Y512657D01*
Y512583D01*
X973792Y512481D01*
Y511390D01*
X976630D01*
Y510540D01*
X970232D01*
Y513508D01*
X970241Y513582D01*
Y513665D01*
X970251Y513859D01*
X970278Y514062D01*
X970306Y514284D01*
X970352Y514488D01*
X970380Y514589D01*
X970408Y514673D01*
Y514682D01*
X970417Y514691D01*
X970445Y514747D01*
X970482Y514830D01*
X970546Y514931D01*
X970630Y515042D01*
X970741Y515163D01*
X970870Y515274D01*
X971018Y515385D01*
X971027D01*
X971037Y515394D01*
X971092Y515431D01*
X971184Y515468D01*
X971305Y515523D01*
X971443Y515569D01*
X971610Y515616D01*
X971785Y515643D01*
X971980Y515653D01*
X971989D01*
X972007D01*
X972044D01*
X972091Y515643D01*
X972155D01*
X972220Y515634D01*
X972377Y515597D01*
X972562Y515542D01*
X972756Y515468D01*
X972950Y515357D01*
X973043Y515283D01*
X973135Y515209D01*
X973145Y515200D01*
X973154Y515190D01*
X973182Y515163D01*
X973209Y515126D01*
X973246Y515079D01*
X973283Y515024D01*
X973329Y514950D01*
X973385Y514876D01*
X973431Y514784D01*
X973477Y514682D01*
X973533Y514571D01*
X973579Y514451D01*
X973616Y514312D01*
X973662Y514173D01*
X973690Y514016D01*
X973718Y513850D01*
X973727Y513868D01*
X973745Y513905D01*
X973782Y513961D01*
X973819Y514035D01*
X973921Y514201D01*
X973986Y514284D01*
X974041Y514358D01*
X974060Y514377D01*
X974106Y514423D01*
X974180Y514497D01*
X974272Y514589D01*
X974402Y514691D01*
X974541Y514811D01*
X974707Y514931D01*
X974892Y515061D01*
X976630Y516161D01*
Y515107D01*
D02*
G37*
G36*
X1003885Y585761D02*
X1003099D01*
Y586676D01*
X1003885D01*
Y585761D01*
D02*
G37*
G36*
X1007075Y586694D02*
X1007195Y586676D01*
X1007343Y586648D01*
X1007509Y586602D01*
X1007676Y586547D01*
X1007842Y586473D01*
X1007851D01*
X1007860Y586463D01*
X1007916Y586436D01*
X1007999Y586380D01*
X1008092Y586315D01*
X1008203Y586223D01*
X1008314Y586121D01*
X1008425Y586001D01*
X1008517Y585862D01*
X1008526Y585844D01*
X1008554Y585798D01*
X1008591Y585714D01*
X1008637Y585613D01*
X1008683Y585493D01*
X1008720Y585354D01*
X1008748Y585197D01*
X1008757Y585039D01*
Y585021D01*
Y584966D01*
X1008748Y584892D01*
X1008730Y584790D01*
X1008702Y584670D01*
X1008656Y584540D01*
X1008600Y584411D01*
X1008526Y584281D01*
X1008517Y584263D01*
X1008489Y584226D01*
X1008434Y584161D01*
X1008360Y584087D01*
X1008267Y584004D01*
X1008156Y583912D01*
X1008027Y583828D01*
X1007870Y583745D01*
X1007879D01*
X1007897Y583736D01*
X1007925Y583727D01*
X1007962Y583717D01*
X1008064Y583680D01*
X1008193Y583625D01*
X1008341Y583551D01*
X1008489Y583458D01*
X1008628Y583338D01*
X1008757Y583200D01*
X1008767Y583181D01*
X1008804Y583126D01*
X1008859Y583033D01*
X1008914Y582913D01*
X1008970Y582765D01*
X1009025Y582589D01*
X1009062Y582386D01*
X1009072Y582164D01*
Y582155D01*
Y582127D01*
Y582081D01*
X1009062Y582025D01*
X1009053Y581951D01*
X1009035Y581868D01*
X1009016Y581776D01*
X1008998Y581674D01*
X1008924Y581452D01*
X1008868Y581332D01*
X1008813Y581221D01*
X1008739Y581101D01*
X1008656Y580981D01*
X1008563Y580860D01*
X1008452Y580750D01*
X1008443Y580740D01*
X1008425Y580722D01*
X1008388Y580694D01*
X1008341Y580657D01*
X1008286Y580611D01*
X1008212Y580565D01*
X1008129Y580509D01*
X1008027Y580463D01*
X1007925Y580407D01*
X1007805Y580352D01*
X1007685Y580306D01*
X1007546Y580260D01*
X1007398Y580223D01*
X1007241Y580195D01*
X1007084Y580176D01*
X1006908Y580167D01*
X1006825D01*
X1006770Y580176D01*
X1006696Y580186D01*
X1006612Y580195D01*
X1006520Y580213D01*
X1006418Y580232D01*
X1006196Y580287D01*
X1005965Y580380D01*
X1005845Y580435D01*
X1005734Y580500D01*
X1005623Y580583D01*
X1005512Y580666D01*
X1005503Y580676D01*
X1005484Y580694D01*
X1005457Y580722D01*
X1005429Y580759D01*
X1005383Y580805D01*
X1005337Y580870D01*
X1005281Y580934D01*
X1005226Y581018D01*
X1005170Y581110D01*
X1005115Y581203D01*
X1005013Y581424D01*
X1004930Y581683D01*
X1004902Y581822D01*
X1004883Y581970D01*
X1005669Y582072D01*
Y582062D01*
X1005679Y582044D01*
X1005688Y582007D01*
X1005697Y581961D01*
X1005706Y581905D01*
X1005725Y581841D01*
X1005771Y581702D01*
X1005836Y581535D01*
X1005919Y581378D01*
X1006011Y581230D01*
X1006122Y581101D01*
X1006141Y581092D01*
X1006178Y581055D01*
X1006252Y581008D01*
X1006344Y580962D01*
X1006455Y580907D01*
X1006594Y580860D01*
X1006751Y580824D01*
X1006917Y580814D01*
X1006973D01*
X1007010Y580824D01*
X1007112Y580833D01*
X1007241Y580860D01*
X1007389Y580907D01*
X1007546Y580971D01*
X1007703Y581064D01*
X1007851Y581193D01*
X1007870Y581212D01*
X1007916Y581267D01*
X1007971Y581351D01*
X1008046Y581461D01*
X1008119Y581600D01*
X1008175Y581757D01*
X1008221Y581942D01*
X1008240Y582146D01*
Y582155D01*
Y582173D01*
Y582201D01*
X1008230Y582238D01*
X1008221Y582340D01*
X1008193Y582460D01*
X1008156Y582608D01*
X1008092Y582756D01*
X1007999Y582904D01*
X1007879Y583042D01*
X1007860Y583061D01*
X1007814Y583098D01*
X1007740Y583153D01*
X1007639Y583218D01*
X1007509Y583283D01*
X1007352Y583338D01*
X1007176Y583375D01*
X1006982Y583394D01*
X1006899D01*
X1006834Y583385D01*
X1006751Y583375D01*
X1006659Y583357D01*
X1006548Y583338D01*
X1006428Y583311D01*
X1006520Y584004D01*
X1006566D01*
X1006603Y583995D01*
X1006723D01*
X1006825Y584013D01*
X1006945Y584032D01*
X1007084Y584059D01*
X1007241Y584106D01*
X1007389Y584170D01*
X1007546Y584254D01*
X1007555D01*
X1007565Y584263D01*
X1007611Y584300D01*
X1007676Y584365D01*
X1007750Y584448D01*
X1007824Y584568D01*
X1007888Y584707D01*
X1007934Y584864D01*
X1007953Y584956D01*
Y585058D01*
Y585067D01*
Y585076D01*
Y585132D01*
X1007934Y585206D01*
X1007916Y585308D01*
X1007879Y585419D01*
X1007833Y585539D01*
X1007759Y585659D01*
X1007657Y585770D01*
X1007648Y585779D01*
X1007602Y585816D01*
X1007537Y585862D01*
X1007454Y585918D01*
X1007343Y585964D01*
X1007213Y586010D01*
X1007065Y586047D01*
X1006899Y586057D01*
X1006825D01*
X1006742Y586038D01*
X1006631Y586020D01*
X1006511Y585983D01*
X1006391Y585936D01*
X1006261Y585862D01*
X1006141Y585770D01*
X1006132Y585761D01*
X1006095Y585714D01*
X1006039Y585650D01*
X1005974Y585557D01*
X1005910Y585437D01*
X1005845Y585289D01*
X1005789Y585113D01*
X1005752Y584910D01*
X1004967Y585049D01*
Y585058D01*
X1004976Y585086D01*
X1004985Y585123D01*
X1004994Y585178D01*
X1005013Y585243D01*
X1005041Y585317D01*
X1005096Y585493D01*
X1005189Y585696D01*
X1005300Y585899D01*
X1005438Y586093D01*
X1005614Y586269D01*
X1005623Y586278D01*
X1005642Y586288D01*
X1005669Y586306D01*
X1005706Y586334D01*
X1005752Y586371D01*
X1005817Y586408D01*
X1005882Y586445D01*
X1005965Y586491D01*
X1006150Y586565D01*
X1006363Y586639D01*
X1006612Y586685D01*
X1006742Y586704D01*
X1006973D01*
X1007075Y586694D01*
D02*
G37*
G36*
X1003885Y580038D02*
Y580028D01*
Y580001D01*
Y579954D01*
Y579899D01*
X1003876Y579825D01*
Y579751D01*
X1003857Y579566D01*
X1003829Y579372D01*
X1003792Y579169D01*
X1003737Y578993D01*
X1003700Y578910D01*
X1003663Y578845D01*
Y578836D01*
X1003654Y578826D01*
X1003608Y578780D01*
X1003534Y578706D01*
X1003441Y578623D01*
X1003312Y578540D01*
X1003145Y578475D01*
X1002951Y578420D01*
X1002840Y578410D01*
X1002720Y578401D01*
X1002664D01*
X1002609Y578410D01*
X1002526D01*
X1002433Y578420D01*
X1002332Y578438D01*
X1002110Y578494D01*
X1002258Y579159D01*
X1002267D01*
X1002295Y579150D01*
X1002341Y579141D01*
X1002387Y579132D01*
X1002507Y579104D01*
X1002563Y579095D01*
X1002655D01*
X1002701Y579104D01*
X1002757Y579113D01*
X1002812Y579132D01*
X1002868Y579169D01*
X1002933Y579206D01*
X1002979Y579261D01*
X1002988Y579270D01*
X1002997Y579298D01*
X1003016Y579344D01*
X1003044Y579418D01*
X1003062Y579520D01*
X1003071Y579594D01*
X1003081Y579659D01*
X1003090Y579742D01*
Y579843D01*
X1003099Y579945D01*
Y580056D01*
Y584919D01*
X1003885D01*
Y580038D01*
D02*
G37*
G36*
X826770Y524462D02*
X823802D01*
X823728Y524471D01*
X823645D01*
X823451Y524481D01*
X823247Y524508D01*
X823026Y524536D01*
X822822Y524582D01*
X822720Y524610D01*
X822637Y524638D01*
X822628D01*
X822619Y524647D01*
X822563Y524675D01*
X822480Y524712D01*
X822378Y524776D01*
X822267Y524860D01*
X822147Y524971D01*
X822036Y525100D01*
X821925Y525248D01*
Y525257D01*
X821916Y525266D01*
X821879Y525322D01*
X821842Y525414D01*
X821787Y525535D01*
X821740Y525673D01*
X821694Y525840D01*
X821666Y526015D01*
X821657Y526209D01*
Y526219D01*
Y526237D01*
Y526274D01*
X821666Y526320D01*
Y526385D01*
X821676Y526450D01*
X821713Y526607D01*
X821768Y526792D01*
X821842Y526986D01*
X821953Y527180D01*
X822027Y527273D01*
X822101Y527365D01*
X822110Y527374D01*
X822120Y527384D01*
X822147Y527411D01*
X822184Y527439D01*
X822230Y527476D01*
X822286Y527513D01*
X822360Y527559D01*
X822434Y527615D01*
X822526Y527661D01*
X822628Y527707D01*
X822739Y527763D01*
X822859Y527809D01*
X822998Y527846D01*
X823137Y527892D01*
X823294Y527920D01*
X823460Y527948D01*
X823442Y527957D01*
X823405Y527975D01*
X823349Y528012D01*
X823275Y528049D01*
X823109Y528151D01*
X823026Y528216D01*
X822952Y528271D01*
X822933Y528290D01*
X822887Y528336D01*
X822813Y528410D01*
X822720Y528502D01*
X822619Y528632D01*
X822498Y528770D01*
X822378Y528937D01*
X822249Y529122D01*
X821149Y530860D01*
X822203D01*
X823044Y529529D01*
Y529519D01*
X823063Y529501D01*
X823081Y529473D01*
X823109Y529436D01*
X823174Y529334D01*
X823257Y529205D01*
X823358Y529066D01*
X823460Y528918D01*
X823562Y528780D01*
X823654Y528650D01*
X823663Y528641D01*
X823691Y528604D01*
X823737Y528549D01*
X823802Y528484D01*
X823941Y528345D01*
X824015Y528280D01*
X824089Y528225D01*
X824098Y528216D01*
X824117Y528206D01*
X824154Y528188D01*
X824209Y528160D01*
X824264Y528133D01*
X824329Y528105D01*
X824477Y528059D01*
X824486D01*
X824505Y528049D01*
X824542D01*
X824588Y528040D01*
X824653Y528031D01*
X824727D01*
X824828Y528022D01*
X825919D01*
Y530860D01*
X826770D01*
Y524462D01*
D02*
G37*
G36*
X818477Y525858D02*
X818486Y525867D01*
X818532Y525904D01*
X818588Y525960D01*
X818680Y526025D01*
X818782Y526108D01*
X818911Y526200D01*
X819059Y526302D01*
X819226Y526404D01*
X819235D01*
X819244Y526413D01*
X819300Y526450D01*
X819392Y526496D01*
X819503Y526552D01*
X819632Y526616D01*
X819771Y526681D01*
X819910Y526746D01*
X820048Y526801D01*
Y526043D01*
X820039D01*
X820021Y526025D01*
X819984Y526015D01*
X819938Y525988D01*
X819882Y525960D01*
X819817Y525923D01*
X819660Y525830D01*
X819475Y525729D01*
X819290Y525599D01*
X819096Y525451D01*
X818902Y525294D01*
X818893Y525285D01*
X818884Y525276D01*
X818856Y525248D01*
X818819Y525220D01*
X818736Y525128D01*
X818625Y525017D01*
X818514Y524887D01*
X818393Y524739D01*
X818292Y524591D01*
X818199Y524434D01*
X817691D01*
Y530860D01*
X818477D01*
Y525858D01*
D02*
G37*
G36*
X834245Y513146D02*
X834319Y513137D01*
X834411Y513128D01*
X834513Y513109D01*
X834615Y513091D01*
X834855Y513026D01*
X835096Y512934D01*
X835216Y512878D01*
X835336Y512813D01*
X835447Y512730D01*
X835548Y512638D01*
X835558Y512629D01*
X835576Y512619D01*
X835595Y512582D01*
X835632Y512545D01*
X835678Y512499D01*
X835724Y512434D01*
X835770Y512370D01*
X835826Y512286D01*
X835918Y512111D01*
X836011Y511889D01*
X836048Y511778D01*
X836066Y511648D01*
X836085Y511519D01*
X836094Y511380D01*
Y511362D01*
Y511316D01*
X836085Y511242D01*
X836076Y511140D01*
X836057Y511029D01*
X836020Y510900D01*
X835983Y510761D01*
X835928Y510622D01*
X835918Y510604D01*
X835900Y510558D01*
X835863Y510484D01*
X835807Y510382D01*
X835733Y510271D01*
X835641Y510132D01*
X835530Y509994D01*
X835401Y509836D01*
X835382Y509818D01*
X835336Y509762D01*
X835290Y509716D01*
X835243Y509670D01*
X835188Y509614D01*
X835114Y509540D01*
X835040Y509467D01*
X834948Y509383D01*
X834855Y509291D01*
X834744Y509189D01*
X834624Y509087D01*
X834494Y508967D01*
X834347Y508847D01*
X834199Y508718D01*
X834189Y508708D01*
X834171Y508690D01*
X834134Y508662D01*
X834088Y508625D01*
X834032Y508570D01*
X833968Y508514D01*
X833820Y508394D01*
X833662Y508255D01*
X833514Y508117D01*
X833385Y507996D01*
X833330Y507950D01*
X833283Y507904D01*
X833274Y507895D01*
X833246Y507867D01*
X833209Y507830D01*
X833163Y507775D01*
X833117Y507710D01*
X833062Y507645D01*
X832951Y507488D01*
X836103D01*
Y506730D01*
X831860D01*
Y506739D01*
Y506776D01*
Y506832D01*
X831869Y506906D01*
X831878Y506989D01*
X831897Y507081D01*
X831915Y507174D01*
X831952Y507275D01*
Y507285D01*
X831961Y507294D01*
X831980Y507349D01*
X832017Y507433D01*
X832072Y507543D01*
X832146Y507673D01*
X832239Y507821D01*
X832340Y507969D01*
X832470Y508126D01*
Y508135D01*
X832488Y508144D01*
X832534Y508200D01*
X832618Y508283D01*
X832738Y508403D01*
X832877Y508542D01*
X833052Y508708D01*
X833265Y508893D01*
X833496Y509087D01*
X833505Y509097D01*
X833542Y509124D01*
X833598Y509171D01*
X833662Y509226D01*
X833746Y509300D01*
X833847Y509383D01*
X833949Y509476D01*
X834069Y509577D01*
X834300Y509799D01*
X834531Y510021D01*
X834642Y510132D01*
X834744Y510243D01*
X834837Y510345D01*
X834911Y510447D01*
Y510456D01*
X834929Y510465D01*
X834948Y510493D01*
X834966Y510530D01*
X835031Y510631D01*
X835105Y510752D01*
X835169Y510900D01*
X835234Y511057D01*
X835271Y511232D01*
X835290Y511399D01*
Y511408D01*
Y511417D01*
X835280Y511473D01*
X835271Y511565D01*
X835243Y511667D01*
X835206Y511796D01*
X835142Y511926D01*
X835059Y512055D01*
X834948Y512185D01*
X834929Y512203D01*
X834883Y512240D01*
X834818Y512286D01*
X834716Y512351D01*
X834587Y512407D01*
X834439Y512462D01*
X834263Y512499D01*
X834069Y512508D01*
X834014D01*
X833977Y512499D01*
X833866Y512490D01*
X833736Y512462D01*
X833598Y512425D01*
X833440Y512360D01*
X833293Y512277D01*
X833154Y512166D01*
X833135Y512148D01*
X833098Y512102D01*
X833043Y512028D01*
X832988Y511917D01*
X832923Y511787D01*
X832867Y511621D01*
X832830Y511436D01*
X832812Y511223D01*
X832008Y511306D01*
Y511316D01*
X832017Y511343D01*
Y511390D01*
X832026Y511454D01*
X832044Y511528D01*
X832063Y511612D01*
X832091Y511713D01*
X832118Y511815D01*
X832192Y512037D01*
X832303Y512259D01*
X832368Y512370D01*
X832451Y512481D01*
X832534Y512582D01*
X832627Y512675D01*
X832636Y512684D01*
X832655Y512693D01*
X832682Y512721D01*
X832729Y512749D01*
X832784Y512786D01*
X832849Y512823D01*
X832923Y512869D01*
X833015Y512915D01*
X833117Y512961D01*
X833228Y513008D01*
X833348Y513045D01*
X833477Y513082D01*
X833616Y513109D01*
X833764Y513137D01*
X833921Y513146D01*
X834088Y513156D01*
X834180D01*
X834245Y513146D01*
D02*
G37*
G36*
X828892Y513119D02*
X828975D01*
X829169Y513109D01*
X829372Y513082D01*
X829594Y513054D01*
X829798Y513008D01*
X829900Y512980D01*
X829983Y512952D01*
X829992D01*
X830001Y512943D01*
X830057Y512915D01*
X830140Y512878D01*
X830241Y512813D01*
X830352Y512730D01*
X830473Y512619D01*
X830584Y512490D01*
X830695Y512342D01*
Y512333D01*
X830704Y512323D01*
X830741Y512268D01*
X830778Y512175D01*
X830833Y512055D01*
X830880Y511917D01*
X830926Y511750D01*
X830954Y511575D01*
X830963Y511380D01*
Y511371D01*
Y511353D01*
Y511316D01*
X830954Y511269D01*
Y511205D01*
X830944Y511140D01*
X830907Y510983D01*
X830852Y510798D01*
X830778Y510604D01*
X830667Y510410D01*
X830593Y510317D01*
X830519Y510225D01*
X830510Y510215D01*
X830500Y510206D01*
X830473Y510178D01*
X830436Y510151D01*
X830389Y510114D01*
X830334Y510077D01*
X830260Y510031D01*
X830186Y509975D01*
X830094Y509929D01*
X829992Y509883D01*
X829881Y509827D01*
X829761Y509781D01*
X829622Y509744D01*
X829483Y509698D01*
X829326Y509670D01*
X829160Y509642D01*
X829178Y509633D01*
X829215Y509614D01*
X829271Y509577D01*
X829345Y509540D01*
X829511Y509439D01*
X829594Y509374D01*
X829668Y509319D01*
X829687Y509300D01*
X829733Y509254D01*
X829807Y509180D01*
X829900Y509087D01*
X830001Y508958D01*
X830121Y508819D01*
X830241Y508653D01*
X830371Y508468D01*
X831471Y506730D01*
X830417D01*
X829576Y508061D01*
Y508070D01*
X829557Y508089D01*
X829539Y508117D01*
X829511Y508154D01*
X829446Y508255D01*
X829363Y508385D01*
X829261Y508523D01*
X829160Y508671D01*
X829058Y508810D01*
X828966Y508940D01*
X828956Y508949D01*
X828929Y508986D01*
X828882Y509041D01*
X828818Y509106D01*
X828679Y509245D01*
X828605Y509309D01*
X828531Y509365D01*
X828522Y509374D01*
X828503Y509383D01*
X828466Y509402D01*
X828411Y509430D01*
X828355Y509457D01*
X828291Y509485D01*
X828143Y509531D01*
X828133D01*
X828115Y509540D01*
X828078D01*
X828032Y509550D01*
X827967Y509559D01*
X827893D01*
X827792Y509568D01*
X826701D01*
Y506730D01*
X825850D01*
Y513128D01*
X828818D01*
X828892Y513119D01*
D02*
G37*
G36*
X752041Y506721D02*
X752124D01*
X752226Y506712D01*
X752337Y506693D01*
X752466Y506675D01*
X752734Y506628D01*
X753012Y506554D01*
X753289Y506453D01*
X753419Y506388D01*
X753548Y506314D01*
X753557Y506305D01*
X753576Y506296D01*
X753613Y506268D01*
X753650Y506231D01*
X753705Y506194D01*
X753770Y506138D01*
X753844Y506074D01*
X753918Y506000D01*
X753992Y505916D01*
X754075Y505833D01*
X754241Y505621D01*
X754399Y505371D01*
X754537Y505094D01*
Y505084D01*
X754556Y505057D01*
X754565Y505010D01*
X754593Y504955D01*
X754611Y504881D01*
X754639Y504789D01*
X754676Y504687D01*
X754704Y504576D01*
X754731Y504456D01*
X754768Y504317D01*
X754815Y504030D01*
X754852Y503707D01*
X754870Y503374D01*
Y503365D01*
Y503328D01*
Y503272D01*
X754861Y503208D01*
Y503115D01*
X754852Y503023D01*
X754842Y502902D01*
X754824Y502782D01*
X754778Y502514D01*
X754713Y502218D01*
X754621Y501922D01*
X754491Y501636D01*
X754482Y501627D01*
X754473Y501599D01*
X754454Y501562D01*
X754417Y501516D01*
X754380Y501451D01*
X754334Y501377D01*
X754214Y501211D01*
X754056Y501026D01*
X753872Y500841D01*
X753659Y500656D01*
X753409Y500499D01*
X753400Y500489D01*
X753372Y500480D01*
X753335Y500462D01*
X753289Y500434D01*
X753215Y500406D01*
X753141Y500378D01*
X753049Y500341D01*
X752947Y500304D01*
X752836Y500267D01*
X752716Y500230D01*
X752457Y500175D01*
X752161Y500129D01*
X751856Y500110D01*
X751764D01*
X751699Y500120D01*
X751616Y500129D01*
X751514Y500138D01*
X751412Y500147D01*
X751292Y500175D01*
X751042Y500230D01*
X750765Y500314D01*
X750626Y500369D01*
X750497Y500434D01*
X750368Y500517D01*
X750238Y500600D01*
X750229Y500610D01*
X750210Y500619D01*
X750173Y500647D01*
X750127Y500693D01*
X750081Y500739D01*
X750016Y500804D01*
X749951Y500878D01*
X749877Y500952D01*
X749803Y501044D01*
X749730Y501155D01*
X749646Y501266D01*
X749572Y501386D01*
X749508Y501525D01*
X749434Y501664D01*
X749378Y501811D01*
X749323Y501978D01*
X750155Y502172D01*
Y502163D01*
X750164Y502144D01*
X750183Y502107D01*
X750201Y502061D01*
X750220Y502006D01*
X750247Y501932D01*
X750321Y501784D01*
X750414Y501617D01*
X750525Y501451D01*
X750663Y501294D01*
X750811Y501155D01*
X750830Y501137D01*
X750885Y501100D01*
X750978Y501053D01*
X751098Y500989D01*
X751255Y500933D01*
X751431Y500878D01*
X751643Y500841D01*
X751874Y500831D01*
X751948D01*
X751995Y500841D01*
X752059D01*
X752133Y500850D01*
X752309Y500878D01*
X752503Y500915D01*
X752707Y500979D01*
X752919Y501072D01*
X753113Y501192D01*
X753123D01*
X753132Y501211D01*
X753197Y501257D01*
X753280Y501331D01*
X753382Y501442D01*
X753502Y501580D01*
X753613Y501738D01*
X753714Y501932D01*
X753807Y502144D01*
Y502154D01*
X753816Y502172D01*
X753825Y502200D01*
X753835Y502246D01*
X753853Y502301D01*
X753872Y502366D01*
X753899Y502523D01*
X753936Y502708D01*
X753973Y502912D01*
X753992Y503134D01*
X754001Y503374D01*
Y503383D01*
Y503411D01*
Y503457D01*
Y503513D01*
X753992Y503577D01*
Y503661D01*
X753982Y503753D01*
X753973Y503855D01*
X753946Y504077D01*
X753899Y504317D01*
X753844Y504557D01*
X753770Y504798D01*
Y504807D01*
X753761Y504826D01*
X753742Y504853D01*
X753724Y504899D01*
X753668Y505010D01*
X753585Y505140D01*
X753483Y505288D01*
X753354Y505445D01*
X753206Y505584D01*
X753030Y505713D01*
X753021D01*
X753002Y505722D01*
X752975Y505741D01*
X752938Y505759D01*
X752892Y505778D01*
X752836Y505806D01*
X752707Y505861D01*
X752540Y505916D01*
X752355Y505963D01*
X752152Y506000D01*
X751939Y506009D01*
X751874D01*
X751819Y506000D01*
X751754D01*
X751690Y505990D01*
X751523Y505953D01*
X751329Y505907D01*
X751135Y505833D01*
X750931Y505732D01*
X750830Y505676D01*
X750737Y505602D01*
X750728Y505593D01*
X750719Y505584D01*
X750691Y505556D01*
X750654Y505528D01*
X750617Y505482D01*
X750571Y505426D01*
X750515Y505371D01*
X750469Y505297D01*
X750414Y505214D01*
X750349Y505121D01*
X750294Y505029D01*
X750238Y504918D01*
X750192Y504798D01*
X750146Y504668D01*
X750099Y504530D01*
X750062Y504382D01*
X749212Y504594D01*
Y504604D01*
X749221Y504641D01*
X749240Y504696D01*
X749267Y504770D01*
X749295Y504853D01*
X749332Y504955D01*
X749378Y505066D01*
X749434Y505186D01*
X749563Y505445D01*
X749730Y505704D01*
X749831Y505833D01*
X749933Y505963D01*
X750044Y506074D01*
X750173Y506185D01*
X750183Y506194D01*
X750201Y506212D01*
X750247Y506231D01*
X750294Y506268D01*
X750368Y506314D01*
X750442Y506360D01*
X750543Y506407D01*
X750645Y506453D01*
X750765Y506508D01*
X750894Y506554D01*
X751033Y506601D01*
X751181Y506647D01*
X751338Y506684D01*
X751505Y506702D01*
X751680Y506721D01*
X751865Y506730D01*
X751967D01*
X752041Y506721D01*
D02*
G37*
G36*
X746318Y501617D02*
X746327Y501627D01*
X746373Y501664D01*
X746429Y501719D01*
X746521Y501784D01*
X746623Y501867D01*
X746752Y501959D01*
X746900Y502061D01*
X747067Y502163D01*
X747076D01*
X747085Y502172D01*
X747141Y502209D01*
X747233Y502255D01*
X747344Y502311D01*
X747474Y502375D01*
X747612Y502440D01*
X747751Y502505D01*
X747890Y502560D01*
Y501802D01*
X747880D01*
X747862Y501784D01*
X747825Y501774D01*
X747779Y501747D01*
X747723Y501719D01*
X747659Y501682D01*
X747501Y501590D01*
X747317Y501488D01*
X747132Y501358D01*
X746937Y501211D01*
X746743Y501053D01*
X746734Y501044D01*
X746725Y501035D01*
X746697Y501007D01*
X746660Y500979D01*
X746577Y500887D01*
X746466Y500776D01*
X746355Y500647D01*
X746235Y500499D01*
X746133Y500351D01*
X746041Y500193D01*
X745532D01*
Y506619D01*
X746318D01*
Y501617D01*
D02*
G37*
G36*
X794635Y514089D02*
X793849D01*
Y515005D01*
X794635D01*
Y514089D01*
D02*
G37*
G36*
X798583Y508607D02*
X797797D01*
Y513609D01*
X797788Y513599D01*
X797742Y513562D01*
X797686Y513507D01*
X797594Y513442D01*
X797492Y513359D01*
X797363Y513266D01*
X797215Y513165D01*
X797048Y513063D01*
X797039D01*
X797030Y513054D01*
X796974Y513017D01*
X796882Y512971D01*
X796771Y512915D01*
X796641Y512850D01*
X796503Y512786D01*
X796364Y512721D01*
X796225Y512665D01*
Y513424D01*
X796235D01*
X796253Y513442D01*
X796290Y513451D01*
X796336Y513479D01*
X796392Y513507D01*
X796456Y513544D01*
X796614Y513636D01*
X796798Y513738D01*
X796983Y513867D01*
X797178Y514015D01*
X797372Y514173D01*
X797381Y514182D01*
X797390Y514191D01*
X797418Y514219D01*
X797455Y514246D01*
X797538Y514339D01*
X797649Y514450D01*
X797760Y514579D01*
X797880Y514727D01*
X797982Y514875D01*
X798074Y515032D01*
X798583D01*
Y508607D01*
D02*
G37*
G36*
X794635Y508366D02*
Y508357D01*
Y508329D01*
Y508283D01*
Y508228D01*
X794626Y508154D01*
Y508080D01*
X794607Y507895D01*
X794580Y507701D01*
X794543Y507497D01*
X794487Y507322D01*
X794450Y507238D01*
X794413Y507174D01*
Y507164D01*
X794404Y507155D01*
X794358Y507109D01*
X794284Y507035D01*
X794191Y506952D01*
X794062Y506869D01*
X793895Y506804D01*
X793701Y506748D01*
X793590Y506739D01*
X793470Y506730D01*
X793415D01*
X793359Y506739D01*
X793276D01*
X793184Y506748D01*
X793082Y506767D01*
X792860Y506822D01*
X793008Y507488D01*
X793017D01*
X793045Y507479D01*
X793091Y507469D01*
X793137Y507460D01*
X793257Y507433D01*
X793313Y507423D01*
X793405D01*
X793452Y507433D01*
X793507Y507442D01*
X793562Y507460D01*
X793618Y507497D01*
X793683Y507534D01*
X793729Y507590D01*
X793738Y507599D01*
X793747Y507627D01*
X793766Y507673D01*
X793794Y507747D01*
X793812Y507849D01*
X793821Y507923D01*
X793831Y507987D01*
X793840Y508070D01*
Y508172D01*
X793849Y508274D01*
Y508385D01*
Y513248D01*
X794635D01*
Y508366D01*
D02*
G37*
G36*
X828573Y604849D02*
X827787D01*
Y605765D01*
X828573D01*
Y604849D01*
D02*
G37*
G36*
X831836Y605783D02*
X831910Y605774D01*
X832003Y605765D01*
X832104Y605746D01*
X832206Y605728D01*
X832447Y605663D01*
X832687Y605570D01*
X832807Y605515D01*
X832927Y605450D01*
X833038Y605367D01*
X833140Y605275D01*
X833149Y605265D01*
X833168Y605256D01*
X833186Y605219D01*
X833223Y605182D01*
X833269Y605136D01*
X833316Y605071D01*
X833362Y605006D01*
X833417Y604923D01*
X833510Y604748D01*
X833602Y604526D01*
X833639Y604415D01*
X833658Y604285D01*
X833676Y604156D01*
X833686Y604017D01*
Y603999D01*
Y603952D01*
X833676Y603879D01*
X833667Y603777D01*
X833649Y603666D01*
X833612Y603536D01*
X833575Y603398D01*
X833519Y603259D01*
X833510Y603241D01*
X833491Y603194D01*
X833454Y603120D01*
X833399Y603019D01*
X833325Y602908D01*
X833232Y602769D01*
X833121Y602630D01*
X832992Y602473D01*
X832974Y602455D01*
X832927Y602399D01*
X832881Y602353D01*
X832835Y602307D01*
X832779Y602251D01*
X832705Y602177D01*
X832632Y602103D01*
X832539Y602020D01*
X832447Y601928D01*
X832336Y601826D01*
X832215Y601724D01*
X832086Y601604D01*
X831938Y601484D01*
X831790Y601354D01*
X831781Y601345D01*
X831762Y601327D01*
X831725Y601299D01*
X831679Y601262D01*
X831624Y601207D01*
X831559Y601151D01*
X831411Y601031D01*
X831254Y600892D01*
X831106Y600754D01*
X830976Y600633D01*
X830921Y600587D01*
X830875Y600541D01*
X830866Y600532D01*
X830838Y600504D01*
X830801Y600467D01*
X830755Y600411D01*
X830708Y600347D01*
X830653Y600282D01*
X830542Y600125D01*
X833695D01*
Y599367D01*
X829451D01*
Y599376D01*
Y599413D01*
Y599468D01*
X829460Y599542D01*
X829470Y599626D01*
X829488Y599718D01*
X829507Y599810D01*
X829544Y599912D01*
Y599921D01*
X829553Y599931D01*
X829571Y599986D01*
X829608Y600069D01*
X829664Y600180D01*
X829738Y600310D01*
X829830Y600458D01*
X829932Y600606D01*
X830061Y600763D01*
Y600772D01*
X830080Y600781D01*
X830126Y600837D01*
X830209Y600920D01*
X830329Y601040D01*
X830468Y601179D01*
X830644Y601345D01*
X830856Y601530D01*
X831087Y601724D01*
X831097Y601734D01*
X831134Y601761D01*
X831189Y601808D01*
X831254Y601863D01*
X831337Y601937D01*
X831439Y602020D01*
X831541Y602113D01*
X831661Y602214D01*
X831892Y602436D01*
X832123Y602658D01*
X832234Y602769D01*
X832336Y602880D01*
X832428Y602982D01*
X832502Y603083D01*
Y603093D01*
X832521Y603102D01*
X832539Y603130D01*
X832558Y603167D01*
X832622Y603268D01*
X832696Y603389D01*
X832761Y603536D01*
X832826Y603694D01*
X832863Y603869D01*
X832881Y604036D01*
Y604045D01*
Y604054D01*
X832872Y604110D01*
X832863Y604202D01*
X832835Y604304D01*
X832798Y604433D01*
X832733Y604563D01*
X832650Y604692D01*
X832539Y604822D01*
X832521Y604840D01*
X832474Y604877D01*
X832410Y604923D01*
X832308Y604988D01*
X832178Y605043D01*
X832030Y605099D01*
X831855Y605136D01*
X831661Y605145D01*
X831605D01*
X831568Y605136D01*
X831457Y605127D01*
X831328Y605099D01*
X831189Y605062D01*
X831032Y604997D01*
X830884Y604914D01*
X830745Y604803D01*
X830727Y604785D01*
X830690Y604738D01*
X830634Y604664D01*
X830579Y604553D01*
X830514Y604424D01*
X830459Y604258D01*
X830422Y604073D01*
X830403Y603860D01*
X829599Y603943D01*
Y603952D01*
X829608Y603980D01*
Y604026D01*
X829617Y604091D01*
X829636Y604165D01*
X829654Y604248D01*
X829682Y604350D01*
X829710Y604452D01*
X829784Y604674D01*
X829895Y604896D01*
X829959Y605006D01*
X830043Y605117D01*
X830126Y605219D01*
X830218Y605312D01*
X830228Y605321D01*
X830246Y605330D01*
X830274Y605358D01*
X830320Y605386D01*
X830376Y605423D01*
X830440Y605460D01*
X830514Y605506D01*
X830607Y605552D01*
X830708Y605598D01*
X830819Y605644D01*
X830939Y605681D01*
X831069Y605718D01*
X831208Y605746D01*
X831356Y605774D01*
X831513Y605783D01*
X831679Y605792D01*
X831772D01*
X831836Y605783D01*
D02*
G37*
G36*
X828573Y599126D02*
Y599117D01*
Y599089D01*
Y599043D01*
Y598988D01*
X828563Y598914D01*
Y598840D01*
X828545Y598655D01*
X828517Y598461D01*
X828480Y598257D01*
X828425Y598082D01*
X828388Y597998D01*
X828351Y597934D01*
Y597924D01*
X828342Y597915D01*
X828295Y597869D01*
X828221Y597795D01*
X828129Y597712D01*
X827999Y597629D01*
X827833Y597564D01*
X827639Y597508D01*
X827528Y597499D01*
X827408Y597490D01*
X827352D01*
X827297Y597499D01*
X827214D01*
X827121Y597508D01*
X827019Y597527D01*
X826797Y597582D01*
X826945Y598248D01*
X826955D01*
X826982Y598239D01*
X827029Y598229D01*
X827075Y598220D01*
X827195Y598192D01*
X827251Y598183D01*
X827343D01*
X827389Y598192D01*
X827445Y598202D01*
X827500Y598220D01*
X827556Y598257D01*
X827620Y598294D01*
X827667Y598350D01*
X827676Y598359D01*
X827685Y598387D01*
X827704Y598433D01*
X827731Y598507D01*
X827750Y598609D01*
X827759Y598683D01*
X827768Y598747D01*
X827777Y598830D01*
Y598932D01*
X827787Y599034D01*
Y599145D01*
Y604008D01*
X828573D01*
Y599126D01*
D02*
G37*
G36*
X714722Y509261D02*
X714815D01*
X714907Y509252D01*
X715028Y509242D01*
X715148Y509224D01*
X715416Y509178D01*
X715712Y509113D01*
X716008Y509020D01*
X716294Y508891D01*
X716303Y508882D01*
X716331Y508872D01*
X716368Y508854D01*
X716414Y508817D01*
X716479Y508780D01*
X716553Y508734D01*
X716720Y508614D01*
X716904Y508456D01*
X717089Y508272D01*
X717274Y508059D01*
X717431Y507809D01*
X717441Y507800D01*
X717450Y507772D01*
X717468Y507735D01*
X717496Y507689D01*
X717524Y507615D01*
X717552Y507541D01*
X717589Y507449D01*
X717626Y507347D01*
X717663Y507236D01*
X717700Y507116D01*
X717755Y506857D01*
X717801Y506561D01*
X717820Y506256D01*
Y506164D01*
X717811Y506099D01*
X717801Y506016D01*
X717792Y505914D01*
X717783Y505812D01*
X717755Y505692D01*
X717700Y505442D01*
X717616Y505165D01*
X717561Y505026D01*
X717496Y504897D01*
X717413Y504767D01*
X717330Y504638D01*
X717320Y504629D01*
X717311Y504610D01*
X717283Y504573D01*
X717237Y504527D01*
X717191Y504481D01*
X717126Y504416D01*
X717052Y504351D01*
X716978Y504277D01*
X716886Y504203D01*
X716775Y504129D01*
X716664Y504046D01*
X716544Y503972D01*
X716405Y503908D01*
X716266Y503834D01*
X716118Y503778D01*
X715952Y503723D01*
X715758Y504555D01*
X715767D01*
X715786Y504564D01*
X715823Y504583D01*
X715869Y504601D01*
X715924Y504619D01*
X715998Y504647D01*
X716146Y504721D01*
X716313Y504814D01*
X716479Y504925D01*
X716636Y505063D01*
X716775Y505211D01*
X716794Y505230D01*
X716830Y505285D01*
X716877Y505378D01*
X716941Y505498D01*
X716997Y505655D01*
X717052Y505831D01*
X717089Y506043D01*
X717099Y506274D01*
Y506348D01*
X717089Y506395D01*
Y506459D01*
X717080Y506533D01*
X717052Y506709D01*
X717015Y506903D01*
X716951Y507107D01*
X716858Y507319D01*
X716738Y507513D01*
Y507523D01*
X716720Y507532D01*
X716673Y507597D01*
X716599Y507680D01*
X716488Y507781D01*
X716350Y507902D01*
X716192Y508013D01*
X715998Y508114D01*
X715786Y508207D01*
X715776D01*
X715758Y508216D01*
X715730Y508225D01*
X715684Y508235D01*
X715629Y508253D01*
X715564Y508272D01*
X715407Y508299D01*
X715222Y508336D01*
X715018Y508373D01*
X714796Y508392D01*
X714556Y508401D01*
X714547D01*
X714519D01*
X714473D01*
X714417D01*
X714353Y508392D01*
X714269D01*
X714177Y508382D01*
X714075Y508373D01*
X713853Y508345D01*
X713613Y508299D01*
X713373Y508244D01*
X713132Y508170D01*
X713123D01*
X713104Y508161D01*
X713077Y508142D01*
X713030Y508124D01*
X712920Y508068D01*
X712790Y507985D01*
X712642Y507883D01*
X712485Y507754D01*
X712346Y507606D01*
X712217Y507430D01*
Y507421D01*
X712208Y507402D01*
X712189Y507375D01*
X712171Y507338D01*
X712152Y507291D01*
X712124Y507236D01*
X712069Y507107D01*
X712013Y506940D01*
X711967Y506755D01*
X711930Y506552D01*
X711921Y506339D01*
Y506274D01*
X711930Y506219D01*
Y506154D01*
X711939Y506090D01*
X711976Y505923D01*
X712023Y505729D01*
X712097Y505535D01*
X712198Y505331D01*
X712254Y505230D01*
X712328Y505137D01*
X712337Y505128D01*
X712346Y505119D01*
X712374Y505091D01*
X712402Y505054D01*
X712448Y505017D01*
X712504Y504971D01*
X712559Y504915D01*
X712633Y504869D01*
X712716Y504814D01*
X712809Y504749D01*
X712901Y504693D01*
X713012Y504638D01*
X713132Y504592D01*
X713262Y504546D01*
X713400Y504499D01*
X713548Y504462D01*
X713336Y503612D01*
X713326D01*
X713289Y503621D01*
X713234Y503639D01*
X713160Y503667D01*
X713077Y503695D01*
X712975Y503732D01*
X712864Y503778D01*
X712744Y503834D01*
X712485Y503963D01*
X712226Y504129D01*
X712097Y504231D01*
X711967Y504333D01*
X711856Y504444D01*
X711745Y504573D01*
X711736Y504583D01*
X711718Y504601D01*
X711699Y504647D01*
X711662Y504693D01*
X711616Y504767D01*
X711570Y504841D01*
X711524Y504943D01*
X711477Y505045D01*
X711422Y505165D01*
X711376Y505294D01*
X711329Y505433D01*
X711283Y505581D01*
X711246Y505738D01*
X711228Y505905D01*
X711209Y506080D01*
X711200Y506265D01*
Y506367D01*
X711209Y506441D01*
Y506524D01*
X711218Y506626D01*
X711237Y506737D01*
X711255Y506866D01*
X711302Y507134D01*
X711376Y507412D01*
X711477Y507689D01*
X711542Y507818D01*
X711616Y507948D01*
X711625Y507957D01*
X711634Y507976D01*
X711662Y508013D01*
X711699Y508050D01*
X711736Y508105D01*
X711792Y508170D01*
X711856Y508244D01*
X711930Y508318D01*
X712013Y508392D01*
X712097Y508475D01*
X712309Y508641D01*
X712559Y508799D01*
X712836Y508937D01*
X712846D01*
X712873Y508956D01*
X712920Y508965D01*
X712975Y508993D01*
X713049Y509011D01*
X713141Y509039D01*
X713243Y509076D01*
X713354Y509104D01*
X713474Y509131D01*
X713613Y509168D01*
X713900Y509215D01*
X714223Y509252D01*
X714556Y509270D01*
X714565D01*
X714602D01*
X714658D01*
X714722Y509261D01*
D02*
G37*
G36*
X711487Y502992D02*
X711570Y502983D01*
X711662Y502965D01*
X711755Y502946D01*
X711856Y502909D01*
X711866D01*
X711875Y502900D01*
X711930Y502881D01*
X712013Y502844D01*
X712124Y502789D01*
X712254Y502715D01*
X712402Y502622D01*
X712550Y502521D01*
X712707Y502391D01*
X712716D01*
X712725Y502373D01*
X712781Y502327D01*
X712864Y502243D01*
X712984Y502123D01*
X713123Y501984D01*
X713289Y501809D01*
X713474Y501596D01*
X713668Y501365D01*
X713678Y501356D01*
X713705Y501319D01*
X713752Y501263D01*
X713807Y501199D01*
X713881Y501115D01*
X713964Y501014D01*
X714057Y500912D01*
X714158Y500792D01*
X714380Y500561D01*
X714602Y500330D01*
X714713Y500219D01*
X714824Y500117D01*
X714926Y500024D01*
X715028Y499950D01*
X715037D01*
X715046Y499932D01*
X715074Y499913D01*
X715111Y499895D01*
X715212Y499830D01*
X715333Y499756D01*
X715481Y499692D01*
X715638Y499627D01*
X715813Y499590D01*
X715980Y499571D01*
X715989D01*
X715998D01*
X716054Y499581D01*
X716146Y499590D01*
X716248Y499618D01*
X716377Y499655D01*
X716507Y499719D01*
X716636Y499803D01*
X716766Y499913D01*
X716784Y499932D01*
X716821Y499978D01*
X716867Y500043D01*
X716932Y500145D01*
X716988Y500274D01*
X717043Y500422D01*
X717080Y500598D01*
X717089Y500792D01*
Y500847D01*
X717080Y500884D01*
X717071Y500995D01*
X717043Y501125D01*
X717006Y501263D01*
X716941Y501421D01*
X716858Y501568D01*
X716747Y501707D01*
X716729Y501726D01*
X716683Y501763D01*
X716609Y501818D01*
X716498Y501874D01*
X716368Y501938D01*
X716202Y501994D01*
X716017Y502031D01*
X715804Y502049D01*
X715887Y502854D01*
X715897D01*
X715924Y502844D01*
X715971D01*
X716035Y502835D01*
X716109Y502817D01*
X716192Y502798D01*
X716294Y502770D01*
X716396Y502743D01*
X716618Y502669D01*
X716840Y502558D01*
X716951Y502493D01*
X717062Y502410D01*
X717163Y502327D01*
X717256Y502234D01*
X717265Y502225D01*
X717274Y502206D01*
X717302Y502179D01*
X717330Y502132D01*
X717367Y502077D01*
X717404Y502012D01*
X717450Y501938D01*
X717496Y501846D01*
X717542Y501744D01*
X717589Y501633D01*
X717626Y501513D01*
X717663Y501384D01*
X717690Y501245D01*
X717718Y501097D01*
X717727Y500940D01*
X717737Y500773D01*
Y500681D01*
X717727Y500616D01*
X717718Y500542D01*
X717709Y500450D01*
X717690Y500348D01*
X717672Y500246D01*
X717607Y500006D01*
X717515Y499766D01*
X717459Y499645D01*
X717394Y499525D01*
X717311Y499414D01*
X717219Y499313D01*
X717209Y499303D01*
X717200Y499285D01*
X717163Y499266D01*
X717126Y499229D01*
X717080Y499183D01*
X717015Y499137D01*
X716951Y499091D01*
X716867Y499035D01*
X716692Y498943D01*
X716470Y498850D01*
X716359Y498813D01*
X716229Y498795D01*
X716100Y498776D01*
X715961Y498767D01*
X715943D01*
X715897D01*
X715823Y498776D01*
X715721Y498786D01*
X715610Y498804D01*
X715481Y498841D01*
X715342Y498878D01*
X715203Y498933D01*
X715185Y498943D01*
X715138Y498961D01*
X715064Y498998D01*
X714963Y499054D01*
X714852Y499128D01*
X714713Y499220D01*
X714575Y499331D01*
X714417Y499460D01*
X714399Y499479D01*
X714343Y499525D01*
X714297Y499571D01*
X714251Y499618D01*
X714195Y499673D01*
X714121Y499747D01*
X714047Y499821D01*
X713964Y499913D01*
X713872Y500006D01*
X713770Y500117D01*
X713668Y500237D01*
X713548Y500367D01*
X713428Y500514D01*
X713299Y500662D01*
X713289Y500672D01*
X713271Y500690D01*
X713243Y500727D01*
X713206Y500773D01*
X713151Y500829D01*
X713095Y500894D01*
X712975Y501041D01*
X712836Y501199D01*
X712698Y501347D01*
X712578Y501476D01*
X712531Y501531D01*
X712485Y501578D01*
X712476Y501587D01*
X712448Y501615D01*
X712411Y501652D01*
X712356Y501698D01*
X712291Y501744D01*
X712226Y501800D01*
X712069Y501911D01*
Y498758D01*
X711311D01*
Y503002D01*
X711320D01*
X711357D01*
X711413D01*
X711487Y502992D01*
D02*
G37*
G36*
X772520Y556494D02*
Y556484D01*
Y556447D01*
Y556401D01*
Y556337D01*
X772510Y556253D01*
Y556161D01*
X772501Y556050D01*
X772492Y555939D01*
X772464Y555689D01*
X772427Y555430D01*
X772372Y555181D01*
X772335Y555061D01*
X772298Y554950D01*
Y554940D01*
X772288Y554922D01*
X772270Y554894D01*
X772251Y554857D01*
X772196Y554756D01*
X772113Y554626D01*
X772002Y554478D01*
X771872Y554330D01*
X771706Y554173D01*
X771503Y554034D01*
X771493D01*
X771475Y554016D01*
X771447Y554007D01*
X771401Y553979D01*
X771345Y553951D01*
X771271Y553923D01*
X771197Y553896D01*
X771105Y553859D01*
X771003Y553822D01*
X770892Y553794D01*
X770772Y553766D01*
X770633Y553739D01*
X770495Y553720D01*
X770347Y553702D01*
X770014Y553683D01*
X769931D01*
X769866Y553692D01*
X769792D01*
X769700Y553702D01*
X769598Y553711D01*
X769496Y553720D01*
X769265Y553757D01*
X769015Y553812D01*
X768775Y553886D01*
X768544Y553988D01*
X768535D01*
X768516Y554007D01*
X768488Y554025D01*
X768451Y554044D01*
X768350Y554118D01*
X768230Y554219D01*
X768091Y554349D01*
X767961Y554497D01*
X767832Y554682D01*
X767730Y554885D01*
Y554894D01*
X767721Y554913D01*
X767712Y554950D01*
X767693Y554996D01*
X767675Y555051D01*
X767656Y555125D01*
X767629Y555209D01*
X767610Y555310D01*
X767592Y555421D01*
X767564Y555541D01*
X767545Y555671D01*
X767527Y555810D01*
X767508Y555967D01*
X767499Y556133D01*
X767490Y556309D01*
Y556494D01*
Y560192D01*
X768341D01*
Y556494D01*
Y556484D01*
Y556457D01*
Y556410D01*
Y556355D01*
X768350Y556290D01*
Y556207D01*
X768359Y556031D01*
X768378Y555828D01*
X768405Y555625D01*
X768442Y555430D01*
X768461Y555347D01*
X768488Y555264D01*
X768498Y555246D01*
X768516Y555199D01*
X768562Y555135D01*
X768618Y555042D01*
X768683Y554950D01*
X768775Y554848D01*
X768886Y554746D01*
X769015Y554663D01*
X769034Y554654D01*
X769080Y554626D01*
X769163Y554598D01*
X769274Y554561D01*
X769404Y554515D01*
X769570Y554487D01*
X769746Y554460D01*
X769940Y554450D01*
X770032D01*
X770088Y554460D01*
X770171D01*
X770254Y554469D01*
X770458Y554506D01*
X770680Y554552D01*
X770892Y554626D01*
X771096Y554728D01*
X771188Y554793D01*
X771271Y554866D01*
X771281Y554876D01*
X771290Y554885D01*
X771308Y554913D01*
X771336Y554950D01*
X771364Y555005D01*
X771401Y555061D01*
X771438Y555144D01*
X771475Y555227D01*
X771512Y555329D01*
X771540Y555449D01*
X771576Y555588D01*
X771604Y555736D01*
X771632Y555902D01*
X771650Y556078D01*
X771669Y556281D01*
Y556494D01*
Y560192D01*
X772520D01*
Y556494D01*
D02*
G37*
G36*
X776569Y553794D02*
X775783D01*
Y558796D01*
X775774Y558787D01*
X775728Y558750D01*
X775672Y558694D01*
X775580Y558629D01*
X775478Y558546D01*
X775349Y558454D01*
X775201Y558352D01*
X775034Y558250D01*
X775025D01*
X775016Y558241D01*
X774960Y558204D01*
X774868Y558158D01*
X774757Y558102D01*
X774628Y558038D01*
X774489Y557973D01*
X774350Y557908D01*
X774211Y557853D01*
Y558611D01*
X774221D01*
X774239Y558629D01*
X774276Y558639D01*
X774322Y558666D01*
X774378Y558694D01*
X774443Y558731D01*
X774600Y558824D01*
X774785Y558925D01*
X774970Y559055D01*
X775164Y559203D01*
X775358Y559360D01*
X775367Y559369D01*
X775376Y559378D01*
X775404Y559406D01*
X775441Y559434D01*
X775524Y559526D01*
X775635Y559637D01*
X775746Y559767D01*
X775866Y559915D01*
X775968Y560062D01*
X776061Y560220D01*
X776569D01*
Y553794D01*
D02*
G37*
G36*
X714723Y555761D02*
X714815D01*
X714907Y555752D01*
X715028Y555742D01*
X715148Y555724D01*
X715416Y555678D01*
X715712Y555613D01*
X716008Y555521D01*
X716294Y555391D01*
X716303Y555382D01*
X716331Y555373D01*
X716368Y555354D01*
X716414Y555317D01*
X716479Y555280D01*
X716553Y555234D01*
X716720Y555114D01*
X716904Y554957D01*
X717089Y554772D01*
X717274Y554559D01*
X717431Y554309D01*
X717441Y554300D01*
X717450Y554272D01*
X717468Y554235D01*
X717496Y554189D01*
X717524Y554115D01*
X717552Y554041D01*
X717589Y553949D01*
X717626Y553847D01*
X717663Y553736D01*
X717700Y553616D01*
X717755Y553357D01*
X717801Y553061D01*
X717820Y552756D01*
Y552664D01*
X717811Y552599D01*
X717801Y552516D01*
X717792Y552414D01*
X717783Y552312D01*
X717755Y552192D01*
X717700Y551942D01*
X717616Y551665D01*
X717561Y551526D01*
X717496Y551397D01*
X717413Y551268D01*
X717330Y551138D01*
X717320Y551129D01*
X717311Y551110D01*
X717283Y551073D01*
X717237Y551027D01*
X717191Y550981D01*
X717126Y550916D01*
X717052Y550852D01*
X716978Y550778D01*
X716886Y550704D01*
X716775Y550630D01*
X716664Y550546D01*
X716544Y550472D01*
X716405Y550408D01*
X716266Y550334D01*
X716119Y550278D01*
X715952Y550223D01*
X715758Y551055D01*
X715767D01*
X715786Y551064D01*
X715823Y551083D01*
X715869Y551101D01*
X715924Y551120D01*
X715998Y551147D01*
X716146Y551221D01*
X716313Y551314D01*
X716479Y551425D01*
X716636Y551563D01*
X716775Y551711D01*
X716794Y551730D01*
X716831Y551785D01*
X716877Y551878D01*
X716941Y551998D01*
X716997Y552155D01*
X717052Y552331D01*
X717089Y552543D01*
X717099Y552775D01*
Y552849D01*
X717089Y552895D01*
Y552959D01*
X717080Y553033D01*
X717052Y553209D01*
X717015Y553403D01*
X716951Y553607D01*
X716858Y553819D01*
X716738Y554013D01*
Y554023D01*
X716720Y554032D01*
X716673Y554097D01*
X716599Y554180D01*
X716488Y554282D01*
X716350Y554402D01*
X716192Y554513D01*
X715998Y554614D01*
X715786Y554707D01*
X715777D01*
X715758Y554716D01*
X715730Y554725D01*
X715684Y554735D01*
X715629Y554753D01*
X715564Y554772D01*
X715407Y554799D01*
X715222Y554836D01*
X715018Y554873D01*
X714796Y554892D01*
X714556Y554901D01*
X714547D01*
X714519D01*
X714473D01*
X714417D01*
X714353Y554892D01*
X714269D01*
X714177Y554883D01*
X714075Y554873D01*
X713853Y554846D01*
X713613Y554799D01*
X713373Y554744D01*
X713132Y554670D01*
X713123D01*
X713104Y554661D01*
X713077Y554642D01*
X713030Y554624D01*
X712920Y554568D01*
X712790Y554485D01*
X712642Y554383D01*
X712485Y554254D01*
X712346Y554106D01*
X712217Y553930D01*
Y553921D01*
X712208Y553903D01*
X712189Y553875D01*
X712171Y553838D01*
X712152Y553792D01*
X712124Y553736D01*
X712069Y553607D01*
X712013Y553440D01*
X711967Y553255D01*
X711930Y553052D01*
X711921Y552839D01*
Y552775D01*
X711930Y552719D01*
Y552654D01*
X711939Y552590D01*
X711976Y552423D01*
X712023Y552229D01*
X712097Y552035D01*
X712198Y551832D01*
X712254Y551730D01*
X712328Y551637D01*
X712337Y551628D01*
X712346Y551619D01*
X712374Y551591D01*
X712402Y551554D01*
X712448Y551517D01*
X712504Y551471D01*
X712559Y551415D01*
X712633Y551369D01*
X712716Y551314D01*
X712809Y551249D01*
X712901Y551194D01*
X713012Y551138D01*
X713132Y551092D01*
X713262Y551046D01*
X713400Y550999D01*
X713548Y550962D01*
X713336Y550112D01*
X713326D01*
X713289Y550121D01*
X713234Y550140D01*
X713160Y550167D01*
X713077Y550195D01*
X712975Y550232D01*
X712864Y550278D01*
X712744Y550334D01*
X712485Y550463D01*
X712226Y550630D01*
X712097Y550731D01*
X711967Y550833D01*
X711856Y550944D01*
X711745Y551073D01*
X711736Y551083D01*
X711718Y551101D01*
X711699Y551147D01*
X711662Y551194D01*
X711616Y551268D01*
X711570Y551342D01*
X711524Y551443D01*
X711477Y551545D01*
X711422Y551665D01*
X711376Y551795D01*
X711329Y551933D01*
X711283Y552081D01*
X711246Y552238D01*
X711228Y552405D01*
X711209Y552580D01*
X711200Y552765D01*
Y552867D01*
X711209Y552941D01*
Y553024D01*
X711218Y553126D01*
X711237Y553237D01*
X711255Y553366D01*
X711302Y553634D01*
X711376Y553912D01*
X711477Y554189D01*
X711542Y554319D01*
X711616Y554448D01*
X711625Y554457D01*
X711634Y554476D01*
X711662Y554513D01*
X711699Y554550D01*
X711736Y554605D01*
X711792Y554670D01*
X711856Y554744D01*
X711930Y554818D01*
X712013Y554892D01*
X712097Y554975D01*
X712309Y555141D01*
X712559Y555299D01*
X712836Y555437D01*
X712846D01*
X712873Y555456D01*
X712920Y555465D01*
X712975Y555493D01*
X713049Y555511D01*
X713141Y555539D01*
X713243Y555576D01*
X713354Y555604D01*
X713474Y555631D01*
X713613Y555668D01*
X713900Y555715D01*
X714223Y555752D01*
X714556Y555770D01*
X714565D01*
X714602D01*
X714658D01*
X714723Y555761D01*
D02*
G37*
G36*
X717709Y546728D02*
Y546090D01*
X713567D01*
Y545221D01*
X712846D01*
Y546090D01*
X711311D01*
Y546876D01*
X712846D01*
Y549659D01*
X713567D01*
X717709Y546728D01*
D02*
G37*
G36*
X817683Y550877D02*
X817757Y550868D01*
X817840Y550859D01*
X817942Y550850D01*
X818043Y550822D01*
X818274Y550767D01*
X818506Y550683D01*
X818626Y550628D01*
X818746Y550563D01*
X818857Y550489D01*
X818968Y550406D01*
X818977Y550397D01*
X818996Y550387D01*
X819014Y550350D01*
X819051Y550314D01*
X819097Y550267D01*
X819144Y550212D01*
X819199Y550138D01*
X819245Y550055D01*
X819301Y549972D01*
X819356Y549870D01*
X819458Y549648D01*
X819541Y549389D01*
X819569Y549250D01*
X819587Y549102D01*
X818764Y549038D01*
Y549047D01*
Y549065D01*
X818755Y549093D01*
X818746Y549139D01*
X818718Y549241D01*
X818681Y549380D01*
X818626Y549518D01*
X818552Y549676D01*
X818459Y549814D01*
X818348Y549944D01*
X818330Y549953D01*
X818293Y549990D01*
X818219Y550036D01*
X818117Y550092D01*
X818006Y550147D01*
X817868Y550193D01*
X817710Y550230D01*
X817535Y550240D01*
X817479D01*
X817442Y550230D01*
X817331Y550221D01*
X817202Y550184D01*
X817045Y550138D01*
X816888Y550064D01*
X816721Y549953D01*
X816647Y549888D01*
X816573Y549814D01*
X816564Y549805D01*
X816555Y549796D01*
X816536Y549768D01*
X816508Y549740D01*
X816444Y549639D01*
X816370Y549509D01*
X816305Y549352D01*
X816240Y549158D01*
X816194Y548927D01*
X816176Y548806D01*
Y548677D01*
Y548668D01*
Y548649D01*
Y548612D01*
X816185Y548566D01*
Y548511D01*
X816194Y548446D01*
X816222Y548298D01*
X816268Y548122D01*
X816333Y547947D01*
X816425Y547780D01*
X816555Y547623D01*
Y547614D01*
X816573Y547605D01*
X816619Y547558D01*
X816703Y547494D01*
X816814Y547420D01*
X816962Y547355D01*
X817128Y547290D01*
X817322Y547244D01*
X817433Y547225D01*
X817609D01*
X817683Y547235D01*
X817775Y547244D01*
X817886Y547272D01*
X817997Y547299D01*
X818117Y547346D01*
X818238Y547401D01*
X818247Y547410D01*
X818284Y547429D01*
X818339Y547475D01*
X818413Y547521D01*
X818487Y547586D01*
X818561Y547669D01*
X818644Y547752D01*
X818709Y547854D01*
X819449Y547752D01*
X818829Y544461D01*
X815649D01*
Y545210D01*
X818210D01*
X818552Y546939D01*
X818543Y546930D01*
X818524Y546920D01*
X818496Y546902D01*
X818450Y546874D01*
X818395Y546847D01*
X818330Y546810D01*
X818182Y546735D01*
X817997Y546661D01*
X817794Y546597D01*
X817572Y546551D01*
X817461Y546532D01*
X817257D01*
X817202Y546541D01*
X817128Y546551D01*
X817045Y546560D01*
X816952Y546578D01*
X816851Y546606D01*
X816629Y546671D01*
X816508Y546717D01*
X816388Y546782D01*
X816268Y546847D01*
X816148Y546920D01*
X816037Y547013D01*
X815926Y547115D01*
X815917Y547124D01*
X815898Y547142D01*
X815871Y547170D01*
X815834Y547216D01*
X815787Y547281D01*
X815741Y547346D01*
X815686Y547429D01*
X815630Y547521D01*
X815584Y547623D01*
X815528Y547734D01*
X815482Y547864D01*
X815436Y547993D01*
X815399Y548132D01*
X815371Y548289D01*
X815353Y548446D01*
X815344Y548612D01*
Y548622D01*
Y548649D01*
Y548696D01*
X815353Y548760D01*
X815362Y548834D01*
X815371Y548918D01*
X815390Y549019D01*
X815408Y549121D01*
X815464Y549361D01*
X815556Y549611D01*
X815612Y549740D01*
X815686Y549860D01*
X815760Y549990D01*
X815852Y550110D01*
X815861Y550119D01*
X815880Y550147D01*
X815917Y550184D01*
X815963Y550230D01*
X816028Y550286D01*
X816102Y550360D01*
X816194Y550424D01*
X816296Y550499D01*
X816407Y550572D01*
X816536Y550637D01*
X816675Y550702D01*
X816823Y550767D01*
X816980Y550813D01*
X817156Y550850D01*
X817341Y550877D01*
X817535Y550887D01*
X817618D01*
X817683Y550877D01*
D02*
G37*
G36*
X825708Y544378D02*
X822740D01*
X822666Y544387D01*
X822583D01*
X822389Y544396D01*
X822185Y544424D01*
X821963Y544452D01*
X821760Y544498D01*
X821658Y544526D01*
X821575Y544553D01*
X821566D01*
X821557Y544563D01*
X821501Y544590D01*
X821418Y544627D01*
X821316Y544692D01*
X821205Y544775D01*
X821085Y544886D01*
X820974Y545016D01*
X820863Y545164D01*
Y545173D01*
X820854Y545182D01*
X820817Y545238D01*
X820780Y545330D01*
X820724Y545450D01*
X820678Y545589D01*
X820632Y545756D01*
X820604Y545931D01*
X820595Y546125D01*
Y546134D01*
Y546153D01*
Y546190D01*
X820604Y546236D01*
Y546301D01*
X820614Y546366D01*
X820651Y546523D01*
X820706Y546708D01*
X820780Y546902D01*
X820891Y547096D01*
X820965Y547188D01*
X821039Y547281D01*
X821048Y547290D01*
X821057Y547299D01*
X821085Y547327D01*
X821122Y547355D01*
X821168Y547392D01*
X821224Y547429D01*
X821298Y547475D01*
X821372Y547531D01*
X821464Y547577D01*
X821566Y547623D01*
X821677Y547679D01*
X821797Y547725D01*
X821936Y547762D01*
X822074Y547808D01*
X822232Y547836D01*
X822398Y547864D01*
X822380Y547873D01*
X822343Y547891D01*
X822287Y547928D01*
X822213Y547965D01*
X822047Y548067D01*
X821963Y548132D01*
X821889Y548187D01*
X821871Y548206D01*
X821825Y548252D01*
X821751Y548326D01*
X821658Y548418D01*
X821557Y548548D01*
X821436Y548686D01*
X821316Y548853D01*
X821187Y549038D01*
X820087Y550776D01*
X821141D01*
X821982Y549445D01*
Y549435D01*
X822000Y549417D01*
X822019Y549389D01*
X822047Y549352D01*
X822111Y549250D01*
X822195Y549121D01*
X822296Y548982D01*
X822398Y548834D01*
X822500Y548696D01*
X822592Y548566D01*
X822601Y548557D01*
X822629Y548520D01*
X822675Y548464D01*
X822740Y548400D01*
X822879Y548261D01*
X822953Y548196D01*
X823027Y548141D01*
X823036Y548132D01*
X823054Y548122D01*
X823091Y548104D01*
X823147Y548076D01*
X823202Y548048D01*
X823267Y548021D01*
X823415Y547974D01*
X823424D01*
X823443Y547965D01*
X823480D01*
X823526Y547956D01*
X823591Y547947D01*
X823665D01*
X823766Y547937D01*
X824857D01*
Y550776D01*
X825708D01*
Y544378D01*
D02*
G37*
%LPC*%
G36*
X798620Y389837D02*
X797141D01*
Y384956D01*
X798657D01*
X798722Y384965D01*
X798860Y384974D01*
X799017Y384983D01*
X799184Y385002D01*
X799350Y385030D01*
X799489Y385067D01*
X799508Y385076D01*
X799554Y385085D01*
X799618Y385113D01*
X799702Y385150D01*
X799794Y385205D01*
X799886Y385261D01*
X799979Y385326D01*
X800071Y385400D01*
X800081Y385418D01*
X800118Y385455D01*
X800173Y385520D01*
X800238Y385612D01*
X800312Y385732D01*
X800395Y385871D01*
X800469Y386028D01*
X800534Y386204D01*
Y386213D01*
X800543Y386232D01*
X800552Y386259D01*
X800562Y386296D01*
X800571Y386343D01*
X800589Y386407D01*
X800608Y386472D01*
X800626Y386546D01*
X800654Y386731D01*
X800682Y386944D01*
X800700Y387184D01*
X800709Y387443D01*
Y387452D01*
Y387489D01*
Y387535D01*
X800700Y387609D01*
Y387692D01*
X800691Y387785D01*
X800682Y387896D01*
X800672Y388007D01*
X800626Y388256D01*
X800571Y388515D01*
X800488Y388756D01*
X800432Y388876D01*
X800377Y388978D01*
Y388987D01*
X800358Y389005D01*
X800340Y389033D01*
X800321Y389070D01*
X800247Y389162D01*
X800155Y389273D01*
X800034Y389394D01*
X799896Y389514D01*
X799739Y389616D01*
X799572Y389699D01*
X799554Y389708D01*
X799508Y389717D01*
X799424Y389745D01*
X799304Y389773D01*
X799156Y389791D01*
X798971Y389819D01*
X798860Y389828D01*
X798740D01*
X798620Y389837D01*
D02*
G37*
G36*
X859299Y387591D02*
X857394D01*
X857283Y387582D01*
X857154Y387573D01*
X857006Y387564D01*
X856858Y387545D01*
X856710Y387517D01*
X856581Y387480D01*
X856562Y387471D01*
X856525Y387453D01*
X856469Y387425D01*
X856396Y387388D01*
X856312Y387332D01*
X856229Y387268D01*
X856146Y387184D01*
X856081Y387092D01*
X856072Y387083D01*
X856053Y387046D01*
X856026Y386990D01*
X855989Y386916D01*
X855961Y386833D01*
X855933Y386741D01*
X855915Y386630D01*
X855906Y386519D01*
Y386510D01*
Y386500D01*
X855915Y386445D01*
X855924Y386362D01*
X855943Y386251D01*
X855989Y386140D01*
X856044Y386010D01*
X856127Y385890D01*
X856238Y385770D01*
X856257Y385761D01*
X856303Y385724D01*
X856377Y385677D01*
X856497Y385622D01*
X856636Y385566D01*
X856821Y385520D01*
X857033Y385483D01*
X857283Y385474D01*
X859299D01*
Y387591D01*
D02*
G37*
G36*
X926249Y409070D02*
X924345D01*
X924234Y409061D01*
X924105Y409052D01*
X923957Y409043D01*
X923809Y409024D01*
X923661Y408996D01*
X923531Y408959D01*
X923513Y408950D01*
X923476Y408932D01*
X923420Y408904D01*
X923346Y408867D01*
X923263Y408811D01*
X923180Y408747D01*
X923097Y408663D01*
X923032Y408571D01*
X923023Y408562D01*
X923004Y408525D01*
X922977Y408469D01*
X922940Y408395D01*
X922912Y408312D01*
X922884Y408220D01*
X922866Y408109D01*
X922856Y407998D01*
Y407989D01*
Y407979D01*
X922866Y407924D01*
X922875Y407841D01*
X922893Y407730D01*
X922940Y407619D01*
X922995Y407489D01*
X923078Y407369D01*
X923189Y407249D01*
X923208Y407240D01*
X923254Y407203D01*
X923328Y407156D01*
X923448Y407101D01*
X923587Y407046D01*
X923772Y406999D01*
X923984Y406962D01*
X924234Y406953D01*
X926249D01*
Y409070D01*
D02*
G37*
G36*
X918807Y412103D02*
X918761D01*
X918724Y412094D01*
X918631Y412084D01*
X918511Y412057D01*
X918382Y412001D01*
X918233Y411936D01*
X918086Y411835D01*
X918012Y411779D01*
X917947Y411705D01*
Y411696D01*
X917928Y411687D01*
X917891Y411631D01*
X917836Y411539D01*
X917762Y411419D01*
X917697Y411261D01*
X917642Y411077D01*
X917605Y410864D01*
X917586Y410614D01*
Y410605D01*
Y410587D01*
Y410550D01*
X917596Y410503D01*
Y410448D01*
X917605Y410383D01*
X917633Y410235D01*
X917670Y410069D01*
X917734Y409893D01*
X917827Y409727D01*
X917947Y409570D01*
X917965Y409551D01*
X918012Y409505D01*
X918086Y409449D01*
X918187Y409375D01*
X918317Y409301D01*
X918465Y409246D01*
X918640Y409200D01*
X918835Y409181D01*
X918890D01*
X918927Y409190D01*
X919019Y409200D01*
X919149Y409227D01*
X919287Y409274D01*
X919445Y409348D01*
X919593Y409440D01*
X919741Y409570D01*
X919759Y409588D01*
X919796Y409634D01*
X919861Y409717D01*
X919926Y409838D01*
X919990Y409976D01*
X920055Y410152D01*
X920092Y410346D01*
X920110Y410568D01*
Y410587D01*
Y410633D01*
X920101Y410716D01*
X920092Y410818D01*
X920073Y410938D01*
X920036Y411067D01*
X919999Y411206D01*
X919944Y411345D01*
X919935Y411363D01*
X919907Y411409D01*
X919870Y411474D01*
X919815Y411557D01*
X919750Y411641D01*
X919667Y411742D01*
X919574Y411825D01*
X919463Y411909D01*
X919445Y411918D01*
X919408Y411936D01*
X919343Y411973D01*
X919260Y412001D01*
X919167Y412038D01*
X919056Y412075D01*
X918936Y412094D01*
X918807Y412103D01*
D02*
G37*
G36*
X927449Y448062D02*
X925933D01*
X925868Y448053D01*
X925730Y448044D01*
X925573Y448034D01*
X925406Y448016D01*
X925240Y447988D01*
X925101Y447951D01*
X925082Y447942D01*
X925036Y447933D01*
X924972Y447905D01*
X924888Y447868D01*
X924796Y447812D01*
X924703Y447757D01*
X924611Y447692D01*
X924519Y447618D01*
X924509Y447600D01*
X924472Y447563D01*
X924417Y447498D01*
X924352Y447406D01*
X924278Y447285D01*
X924195Y447147D01*
X924121Y446990D01*
X924056Y446814D01*
Y446805D01*
X924047Y446786D01*
X924038Y446758D01*
X924028Y446721D01*
X924019Y446675D01*
X924001Y446610D01*
X923982Y446546D01*
X923964Y446472D01*
X923936Y446287D01*
X923908Y446074D01*
X923890Y445834D01*
X923881Y445575D01*
Y445566D01*
Y445529D01*
Y445483D01*
X923890Y445409D01*
Y445325D01*
X923899Y445233D01*
X923908Y445122D01*
X923918Y445011D01*
X923964Y444761D01*
X924019Y444502D01*
X924102Y444262D01*
X924158Y444142D01*
X924213Y444040D01*
Y444031D01*
X924232Y444012D01*
X924250Y443985D01*
X924269Y443948D01*
X924343Y443855D01*
X924435Y443744D01*
X924556Y443624D01*
X924694Y443504D01*
X924851Y443402D01*
X925018Y443319D01*
X925036Y443310D01*
X925082Y443301D01*
X925166Y443273D01*
X925286Y443245D01*
X925434Y443227D01*
X925619Y443199D01*
X925730Y443190D01*
X925850D01*
X925970Y443180D01*
X927449D01*
Y448062D01*
D02*
G37*
G36*
X716479Y602629D02*
X714464Y599763D01*
X716479D01*
Y602629D01*
D02*
G37*
G36*
X936691Y390699D02*
X936543D01*
X936506Y390690D01*
X936404Y390681D01*
X936284Y390644D01*
X936136Y390598D01*
X935979Y390514D01*
X935822Y390413D01*
X935748Y390339D01*
X935674Y390265D01*
Y390256D01*
X935655Y390246D01*
X935637Y390219D01*
X935618Y390191D01*
X935554Y390098D01*
X935489Y389969D01*
X935415Y389812D01*
X935350Y389618D01*
X935313Y389396D01*
X935295Y389155D01*
Y389146D01*
Y389128D01*
Y389100D01*
X935304Y389054D01*
Y388998D01*
X935313Y388943D01*
X935341Y388804D01*
X935387Y388647D01*
X935443Y388480D01*
X935535Y388314D01*
X935655Y388166D01*
X935674Y388148D01*
X935720Y388111D01*
X935803Y388046D01*
X935905Y387981D01*
X936044Y387907D01*
X936201Y387842D01*
X936377Y387805D01*
X936571Y387787D01*
X936626D01*
X936663Y387796D01*
X936765Y387805D01*
X936885Y387833D01*
X937033Y387879D01*
X937181Y387944D01*
X937329Y388037D01*
X937467Y388166D01*
X937486Y388185D01*
X937523Y388240D01*
X937579Y388323D01*
X937653Y388443D01*
X937717Y388591D01*
X937773Y388767D01*
X937810Y388980D01*
X937828Y389220D01*
Y389229D01*
Y389248D01*
Y389285D01*
X937819Y389331D01*
Y389396D01*
X937810Y389460D01*
X937782Y389608D01*
X937745Y389784D01*
X937680Y389969D01*
X937588Y390145D01*
X937467Y390302D01*
Y390311D01*
X937449Y390320D01*
X937403Y390367D01*
X937329Y390431D01*
X937227Y390505D01*
X937098Y390570D01*
X936950Y390635D01*
X936783Y390681D01*
X936691Y390699D01*
D02*
G37*
G36*
X931236Y390607D02*
X929221D01*
Y388490D01*
X931125D01*
X931236Y388499D01*
X931365Y388508D01*
X931513Y388517D01*
X931661Y388536D01*
X931809Y388564D01*
X931939Y388601D01*
X931957Y388610D01*
X931994Y388628D01*
X932050Y388656D01*
X932124Y388693D01*
X932207Y388749D01*
X932290Y388813D01*
X932373Y388896D01*
X932438Y388989D01*
X932447Y388998D01*
X932466Y389035D01*
X932493Y389091D01*
X932530Y389165D01*
X932558Y389248D01*
X932586Y389340D01*
X932604Y389451D01*
X932614Y389562D01*
Y389571D01*
Y389581D01*
X932604Y389636D01*
X932595Y389719D01*
X932577Y389830D01*
X932530Y389941D01*
X932475Y390071D01*
X932392Y390191D01*
X932281Y390311D01*
X932262Y390320D01*
X932216Y390357D01*
X932142Y390404D01*
X932022Y390459D01*
X931883Y390514D01*
X931698Y390561D01*
X931486Y390598D01*
X931236Y390607D01*
D02*
G37*
G36*
X989750Y467490D02*
X987845D01*
X987734Y467481D01*
X987605Y467472D01*
X987457Y467463D01*
X987309Y467444D01*
X987161Y467416D01*
X987031Y467379D01*
X987013Y467370D01*
X986976Y467352D01*
X986920Y467324D01*
X986846Y467287D01*
X986763Y467231D01*
X986680Y467167D01*
X986597Y467084D01*
X986532Y466991D01*
X986523Y466982D01*
X986504Y466945D01*
X986477Y466889D01*
X986440Y466815D01*
X986412Y466732D01*
X986384Y466640D01*
X986366Y466529D01*
X986356Y466418D01*
Y466409D01*
Y466399D01*
X986366Y466344D01*
X986375Y466261D01*
X986393Y466150D01*
X986440Y466039D01*
X986495Y465909D01*
X986578Y465789D01*
X986689Y465669D01*
X986708Y465660D01*
X986754Y465623D01*
X986828Y465577D01*
X986948Y465521D01*
X987087Y465466D01*
X987272Y465419D01*
X987484Y465382D01*
X987734Y465373D01*
X989750D01*
Y467490D01*
D02*
G37*
G36*
X991059Y556987D02*
X988910D01*
Y554862D01*
X990867D01*
X990926Y554871D01*
X991059Y554879D01*
X991201Y554887D01*
X991359Y554912D01*
X991501Y554937D01*
X991634Y554979D01*
X991651Y554987D01*
X991692Y555004D01*
X991751Y555029D01*
X991826Y555070D01*
X991901Y555121D01*
X991984Y555187D01*
X992067Y555271D01*
X992134Y555362D01*
X992142Y555370D01*
X992159Y555412D01*
X992192Y555462D01*
X992225Y555537D01*
X992251Y555620D01*
X992284Y555720D01*
X992300Y555820D01*
X992309Y555937D01*
Y555945D01*
Y555954D01*
Y555979D01*
X992300Y556012D01*
X992292Y556095D01*
X992267Y556204D01*
X992225Y556320D01*
X992167Y556445D01*
X992084Y556570D01*
X991975Y556687D01*
X991959Y556703D01*
X991909Y556737D01*
X991834Y556778D01*
X991717Y556837D01*
X991651Y556862D01*
X991576Y556895D01*
X991492Y556920D01*
X991392Y556937D01*
X991292Y556962D01*
X991184Y556970D01*
X991059Y556987D01*
D02*
G37*
G36*
X996299Y557070D02*
X996258D01*
X996224Y557062D01*
X996141Y557053D01*
X996033Y557037D01*
X995916Y556995D01*
X995791Y556945D01*
X995666Y556878D01*
X995550Y556778D01*
X995541Y556762D01*
X995508Y556729D01*
X995458Y556662D01*
X995408Y556587D01*
X995350Y556479D01*
X995308Y556362D01*
X995275Y556229D01*
X995258Y556087D01*
Y556079D01*
Y556070D01*
Y556045D01*
X995266Y556012D01*
X995275Y555929D01*
X995291Y555829D01*
X995325Y555712D01*
X995375Y555587D01*
X995450Y555462D01*
X995541Y555345D01*
X995558Y555337D01*
X995591Y555304D01*
X995658Y555254D01*
X995750Y555204D01*
X995858Y555154D01*
X995991Y555104D01*
X996141Y555070D01*
X996308Y555062D01*
X996349D01*
X996383Y555070D01*
X996466Y555079D01*
X996566Y555095D01*
X996683Y555129D01*
X996808Y555179D01*
X996933Y555254D01*
X997049Y555345D01*
X997066Y555362D01*
X997099Y555396D01*
X997141Y555454D01*
X997199Y555537D01*
X997249Y555637D01*
X997299Y555762D01*
X997333Y555895D01*
X997341Y556045D01*
Y556054D01*
Y556062D01*
Y556087D01*
X997333Y556120D01*
X997324Y556195D01*
X997308Y556295D01*
X997266Y556412D01*
X997216Y556537D01*
X997141Y556654D01*
X997041Y556770D01*
X997024Y556787D01*
X996991Y556820D01*
X996924Y556862D01*
X996833Y556920D01*
X996724Y556978D01*
X996599Y557020D01*
X996458Y557053D01*
X996299Y557070D01*
D02*
G37*
G36*
X996383Y554421D02*
X996224D01*
X996183Y554412D01*
X996133D01*
X996083Y554404D01*
X995949Y554379D01*
X995808Y554329D01*
X995650Y554262D01*
X995500Y554179D01*
X995425Y554121D01*
X995358Y554054D01*
X995341Y554038D01*
X995300Y553988D01*
X995241Y553913D01*
X995183Y553804D01*
X995116Y553671D01*
X995058Y553513D01*
X995016Y553338D01*
X995008Y553238D01*
X995000Y553138D01*
Y553121D01*
Y553079D01*
X995008Y553013D01*
X995016Y552929D01*
X995033Y552830D01*
X995066Y552713D01*
X995100Y552596D01*
X995150Y552480D01*
X995158Y552463D01*
X995183Y552430D01*
X995216Y552371D01*
X995266Y552305D01*
X995333Y552230D01*
X995416Y552146D01*
X995516Y552071D01*
X995625Y551996D01*
X995641Y551988D01*
X995683Y551971D01*
X995741Y551946D01*
X995825Y551913D01*
X995933Y551880D01*
X996041Y551855D01*
X996166Y551838D01*
X996299Y551830D01*
X996358D01*
X996391Y551838D01*
X996441D01*
X996499Y551846D01*
X996633Y551871D01*
X996774Y551921D01*
X996933Y551980D01*
X997091Y552071D01*
X997166Y552121D01*
X997233Y552188D01*
X997241Y552196D01*
X997249Y552205D01*
X997291Y552255D01*
X997349Y552330D01*
X997416Y552438D01*
X997483Y552571D01*
X997541Y552729D01*
X997582Y552904D01*
X997599Y553004D01*
Y553104D01*
Y553113D01*
Y553129D01*
Y553163D01*
X997591Y553204D01*
Y553246D01*
X997582Y553304D01*
X997549Y553438D01*
X997507Y553588D01*
X997441Y553746D01*
X997349Y553904D01*
X997291Y553979D01*
X997224Y554046D01*
Y554054D01*
X997207Y554062D01*
X997158Y554104D01*
X997074Y554162D01*
X996966Y554237D01*
X996824Y554304D01*
X996666Y554362D01*
X996483Y554404D01*
X996383Y554421D01*
D02*
G37*
G36*
X974374Y519175D02*
X971508D01*
X974374Y517160D01*
Y519175D01*
D02*
G37*
G36*
X971989Y514784D02*
X971980D01*
X971970D01*
X971915Y514774D01*
X971832Y514765D01*
X971721Y514747D01*
X971610Y514700D01*
X971480Y514645D01*
X971360Y514562D01*
X971240Y514451D01*
X971231Y514432D01*
X971194Y514386D01*
X971147Y514312D01*
X971092Y514192D01*
X971037Y514053D01*
X970990Y513868D01*
X970953Y513656D01*
X970944Y513406D01*
Y511390D01*
X973061D01*
Y513295D01*
X973052Y513406D01*
X973043Y513535D01*
X973034Y513683D01*
X973015Y513831D01*
X972987Y513979D01*
X972950Y514109D01*
X972941Y514127D01*
X972923Y514164D01*
X972895Y514220D01*
X972858Y514294D01*
X972802Y514377D01*
X972738Y514460D01*
X972654Y514543D01*
X972562Y514608D01*
X972553Y514617D01*
X972516Y514636D01*
X972460Y514663D01*
X972386Y514700D01*
X972303Y514728D01*
X972211Y514756D01*
X972100Y514774D01*
X971989Y514784D01*
D02*
G37*
G36*
X825919Y527291D02*
X824015D01*
X823904Y527282D01*
X823774Y527273D01*
X823626Y527263D01*
X823479Y527245D01*
X823331Y527217D01*
X823201Y527180D01*
X823183Y527171D01*
X823146Y527152D01*
X823090Y527125D01*
X823016Y527088D01*
X822933Y527032D01*
X822850Y526968D01*
X822767Y526884D01*
X822702Y526792D01*
X822693Y526783D01*
X822674Y526746D01*
X822646Y526690D01*
X822609Y526616D01*
X822582Y526533D01*
X822554Y526441D01*
X822535Y526330D01*
X822526Y526219D01*
Y526209D01*
Y526200D01*
X822535Y526145D01*
X822545Y526062D01*
X822563Y525951D01*
X822609Y525840D01*
X822665Y525710D01*
X822748Y525590D01*
X822859Y525470D01*
X822878Y525461D01*
X822924Y525424D01*
X822998Y525377D01*
X823118Y525322D01*
X823257Y525266D01*
X823442Y525220D01*
X823654Y525183D01*
X823904Y525174D01*
X825919D01*
Y527291D01*
D02*
G37*
G36*
X828716Y512416D02*
X826701D01*
Y510299D01*
X828605D01*
X828716Y510308D01*
X828846Y510317D01*
X828993Y510326D01*
X829141Y510345D01*
X829289Y510373D01*
X829419Y510410D01*
X829437Y510419D01*
X829474Y510437D01*
X829530Y510465D01*
X829604Y510502D01*
X829687Y510558D01*
X829770Y510622D01*
X829853Y510705D01*
X829918Y510798D01*
X829927Y510807D01*
X829946Y510844D01*
X829973Y510900D01*
X830010Y510974D01*
X830038Y511057D01*
X830066Y511149D01*
X830084Y511260D01*
X830094Y511371D01*
Y511380D01*
Y511390D01*
X830084Y511445D01*
X830075Y511528D01*
X830057Y511639D01*
X830010Y511750D01*
X829955Y511880D01*
X829872Y512000D01*
X829761Y512120D01*
X829742Y512129D01*
X829696Y512166D01*
X829622Y512212D01*
X829502Y512268D01*
X829363Y512323D01*
X829178Y512370D01*
X828966Y512407D01*
X828716Y512416D01*
D02*
G37*
G36*
X713567Y548891D02*
Y546876D01*
X716433D01*
X713567Y548891D01*
D02*
G37*
G36*
X824857Y547207D02*
X822953D01*
X822842Y547198D01*
X822712Y547188D01*
X822564Y547179D01*
X822417Y547161D01*
X822269Y547133D01*
X822139Y547096D01*
X822121Y547087D01*
X822084Y547068D01*
X822028Y547041D01*
X821954Y547004D01*
X821871Y546948D01*
X821788Y546883D01*
X821705Y546800D01*
X821640Y546708D01*
X821631Y546698D01*
X821612Y546661D01*
X821584Y546606D01*
X821547Y546532D01*
X821520Y546449D01*
X821492Y546356D01*
X821473Y546245D01*
X821464Y546134D01*
Y546125D01*
Y546116D01*
X821473Y546061D01*
X821483Y545977D01*
X821501Y545866D01*
X821547Y545756D01*
X821603Y545626D01*
X821686Y545506D01*
X821797Y545386D01*
X821815Y545376D01*
X821862Y545339D01*
X821936Y545293D01*
X822056Y545238D01*
X822195Y545182D01*
X822380Y545136D01*
X822592Y545099D01*
X822842Y545090D01*
X824857D01*
Y547207D01*
D02*
G37*
%LPD*%
D13*
X768890Y371130D02*
Y401030D01*
Y371130D02*
X823690D01*
Y401030D01*
X768890D02*
X823690D01*
X878710Y381910D02*
Y400410D01*
X841589D02*
X878710D01*
X841589Y381910D02*
Y400410D01*
Y381910D02*
X878710D01*
X908539Y403500D02*
X945661D01*
X908539D02*
Y422000D01*
X945661D01*
Y403500D02*
Y422000D01*
X900900Y431988D02*
X955700D01*
X900900D02*
Y461888D01*
X955700D01*
Y431988D02*
Y461888D01*
X909809Y394060D02*
X946931D01*
Y375560D02*
Y394060D01*
X909809Y375560D02*
X946931D01*
X909809D02*
Y394060D01*
X966100Y461920D02*
X1015100D01*
X966100D02*
Y480420D01*
X1015100D01*
Y461920D02*
Y480420D01*
X969499Y560430D02*
X1006621D01*
Y541930D02*
Y560430D01*
X969499Y541930D02*
X1006621D01*
X969499D02*
Y560430D01*
X967380Y486040D02*
Y535040D01*
X985880D01*
Y486040D02*
Y535040D01*
X967380Y486040D02*
X985880D01*
X810770Y523110D02*
X842770D01*
X810770D02*
Y538610D01*
X842770D01*
Y523110D02*
Y538610D01*
X809850Y514480D02*
X841850D01*
Y498980D02*
Y514480D01*
X809850Y498980D02*
X841850D01*
X809850D02*
Y514480D01*
X733870Y496730D02*
X775870D01*
X733870D02*
Y516730D01*
X775870D01*
Y496730D02*
Y516730D01*
X721200Y488270D02*
Y530270D01*
X701200Y488270D02*
X721200D01*
X701200D02*
Y530270D01*
X721200D01*
X731940Y581183D02*
X803040D01*
Y526183D02*
Y581183D01*
X731940Y526183D02*
X803040D01*
X731940D02*
Y581183D01*
X721200Y534770D02*
Y576770D01*
X701200Y534770D02*
X721200D01*
X701200D02*
Y576770D01*
X721200D01*
X839708Y545387D02*
Y556387D01*
X811708D02*
X839708D01*
X811708Y545387D02*
Y556387D01*
Y545387D02*
X839708D01*
M02*
