G04*
G04 #@! TF.GenerationSoftware,Altium Limited,Altium Designer,25.3.3 (18)*
G04*
G04 Layer_Color=128*
%FSLAX44Y44*%
%MOMM*%
G71*
G04*
G04 #@! TF.SameCoordinates,5CFDE4A5-D111-4E67-9A72-851D34BF8442*
G04*
G04*
G04 #@! TF.FilePolarity,Positive*
G04*
G01*
G75*
%ADD14C,0.1270*%
D14*
X701269Y403530D02*
X712269D01*
X706769Y398030D02*
Y409030D01*
X701269Y454330D02*
X712269D01*
X706769Y448830D02*
Y459830D01*
X1013620Y654050D02*
X1033620D01*
X1023620Y644050D02*
Y664050D01*
X984359Y389069D02*
X994519D01*
X989439Y383989D02*
Y394149D01*
X706120Y595630D02*
X716280D01*
X711200Y590550D02*
Y600710D01*
X997030Y578401D02*
X1007190D01*
X1002110Y573321D02*
Y583481D01*
X950810Y631190D02*
X961810D01*
X956310Y625690D02*
Y636690D01*
X900010Y631190D02*
X911010D01*
X905510Y625690D02*
Y636690D01*
X787780Y506730D02*
X797940D01*
X792860Y501650D02*
Y511810D01*
X821718Y597490D02*
X831878D01*
X826798Y592410D02*
Y602570D01*
X834550Y655320D02*
X854550D01*
X844550Y645320D02*
Y665320D01*
X1012350Y365760D02*
X1032350D01*
X1022350Y355760D02*
Y375760D01*
X671990Y363220D02*
X691990D01*
X681990Y353220D02*
Y373220D01*
X668180Y601980D02*
X688180D01*
X678180Y591980D02*
Y611980D01*
X826008Y405130D02*
X830072D01*
X828040Y403098D02*
Y407162D01*
X987298Y510540D02*
X991362D01*
X989330Y508508D02*
Y512572D01*
X963668Y539747D02*
X967732D01*
X965700Y537715D02*
Y541779D01*
X955548Y469900D02*
X959612D01*
X957580Y467868D02*
Y471932D01*
X903328Y498322D02*
X907392D01*
X905360Y496290D02*
Y500354D01*
X810249Y567210D02*
X814314D01*
X812281Y565178D02*
Y569242D01*
X723138Y553720D02*
X727202D01*
X725170Y551688D02*
Y555752D01*
X765836Y448226D02*
X768376D01*
X767106Y446956D02*
Y449496D01*
X752348Y435610D02*
X756412D01*
X754380Y433578D02*
Y437642D01*
X765048Y461010D02*
X769112D01*
X767080Y458978D02*
Y463042D01*
X836624Y408747D02*
X840688D01*
X838656Y406715D02*
Y410779D01*
X828548Y375920D02*
X832612D01*
X830580Y373888D02*
Y377952D01*
X865378Y368300D02*
X869442D01*
X867410Y366268D02*
Y370332D01*
X792988Y367030D02*
X797052D01*
X795020Y364998D02*
Y369062D01*
X763778Y473710D02*
X767842D01*
X765810Y471678D02*
Y475742D01*
X899668Y400050D02*
X903732D01*
X901700Y398018D02*
Y402082D01*
X837438Y424180D02*
X841502D01*
X839470Y422148D02*
Y426212D01*
X885698Y496570D02*
X889762D01*
X887730Y494538D02*
Y498602D01*
X953008Y388620D02*
X957072D01*
X955040Y386588D02*
Y390652D01*
X861568Y407670D02*
X865632D01*
X863600Y405638D02*
Y409702D01*
X876808Y407670D02*
X880872D01*
X878840Y405638D02*
Y409702D01*
X926338Y495300D02*
X930402D01*
X928370Y493268D02*
Y497332D01*
X793721Y592627D02*
X797785D01*
X795753Y590595D02*
Y594659D01*
X867053Y578231D02*
X871117D01*
X869085Y576199D02*
Y580263D01*
X913638Y494030D02*
X917702D01*
X915670Y491998D02*
Y496062D01*
X987211Y456887D02*
X991275D01*
X989243Y454855D02*
Y458919D01*
X804418Y407670D02*
X808482D01*
X806450Y405638D02*
Y409702D01*
X979678Y570230D02*
X983742D01*
X981710Y568198D02*
Y572262D01*
X897128Y426720D02*
X901192D01*
X899160Y424688D02*
Y428752D01*
X966978Y392430D02*
X971042D01*
X969010Y390398D02*
Y394462D01*
X837438Y461010D02*
X841502D01*
X839470Y458978D02*
Y463042D01*
M02*
