G04*
G04 #@! TF.GenerationSoftware,Altium Limited,Altium Designer,25.3.3 (18)*
G04*
G04 Layer_Color=8388736*
%FSLAX44Y44*%
%MOMM*%
G71*
G04*
G04 #@! TF.SameCoordinates,5CFDE4A5-D111-4E67-9A72-851D34BF8442*
G04*
G04*
G04 #@! TF.FilePolarity,Negative*
G04*
G01*
G75*
%ADD18R,0.7200X0.7200*%
%ADD21R,0.8581X1.5621*%
%ADD23R,1.2500X1.5000*%
%ADD25R,1.5000X1.2500*%
%ADD31R,0.7708X0.7708*%
%ADD32R,1.9032X1.8832*%
G04:AMPARAMS|DCode=33|XSize=0.8532mm|YSize=1.8532mm|CornerRadius=0.1504mm|HoleSize=0mm|Usage=FLASHONLY|Rotation=180.000|XOffset=0mm|YOffset=0mm|HoleType=Round|Shape=RoundedRectangle|*
%AMROUNDEDRECTD33*
21,1,0.8532,1.5525,0,0,180.0*
21,1,0.5525,1.8532,0,0,180.0*
1,1,0.3007,-0.2763,0.7763*
1,1,0.3007,0.2763,0.7763*
1,1,0.3007,0.2763,-0.7763*
1,1,0.3007,-0.2763,-0.7763*
%
%ADD33ROUNDEDRECTD33*%
%ADD34R,1.0613X1.7653*%
%ADD35R,1.3532X2.0032*%
%ADD36R,2.0032X1.3532*%
%ADD37R,1.1032X1.4032*%
%ADD38R,1.2532X1.8032*%
%ADD39R,1.8032X1.2532*%
%ADD40R,2.1832X0.7332*%
%ADD41R,1.1032X1.0032*%
%ADD42C,1.8532*%
%ADD43R,1.8532X1.8532*%
%ADD44C,2.7032*%
%ADD45C,1.5700*%
%ADD46R,1.8532X1.8532*%
%ADD47C,0.8382*%
%ADD48C,0.7112*%
D18*
X767430Y425743D02*
D03*
Y435743D02*
D03*
D21*
X941640Y384810D02*
D03*
X974790Y551180D02*
D03*
X1001330D02*
D03*
D23*
X1007850Y471170D02*
D03*
X973350Y471170D02*
D03*
D25*
X976630Y493290D02*
D03*
X976630Y527790D02*
D03*
D31*
X822929Y571500D02*
D03*
X832929D02*
D03*
D32*
X814190Y386080D02*
D03*
X778390D02*
D03*
X946200Y446938D02*
D03*
X910400D02*
D03*
D33*
X790220Y422611D02*
D03*
X802920D02*
D03*
X815620D02*
D03*
X828320D02*
D03*
X790220Y479111D02*
D03*
X802920D02*
D03*
X815620D02*
D03*
X828320D02*
D03*
X888660Y480543D02*
D03*
X875960D02*
D03*
X863260D02*
D03*
X850560D02*
D03*
X888660Y424043D02*
D03*
X875960D02*
D03*
X863260D02*
D03*
X850560D02*
D03*
X954750Y567997D02*
D03*
X942050D02*
D03*
X929350D02*
D03*
X916650D02*
D03*
X954750Y511497D02*
D03*
X942050D02*
D03*
X929350D02*
D03*
X916650D02*
D03*
X894410Y568072D02*
D03*
X881710D02*
D03*
X869010D02*
D03*
X856310D02*
D03*
X894410Y511572D02*
D03*
X881710D02*
D03*
X869010D02*
D03*
X856310D02*
D03*
D34*
X846879Y391160D02*
D03*
X873419D02*
D03*
X940370Y412750D02*
D03*
X913830D02*
D03*
X915100Y384810D02*
D03*
D35*
X1004090Y444500D02*
D03*
X974090D02*
D03*
X1002953Y417559D02*
D03*
X972953D02*
D03*
X912100Y477520D02*
D03*
X942100D02*
D03*
D36*
X1003300Y495540D02*
D03*
Y525540D02*
D03*
D37*
X837270Y530860D02*
D03*
X816270D02*
D03*
X815350Y506730D02*
D03*
X836350D02*
D03*
D38*
X769620D02*
D03*
X740120D02*
D03*
D39*
X711200Y524020D02*
D03*
Y494520D02*
D03*
Y570520D02*
D03*
Y541020D02*
D03*
D40*
X742840Y572733D02*
D03*
Y560033D02*
D03*
Y547333D02*
D03*
Y534633D02*
D03*
X792140D02*
D03*
Y547333D02*
D03*
Y560033D02*
D03*
Y572733D02*
D03*
D41*
X817208Y550887D02*
D03*
X834208D02*
D03*
D42*
X706769Y403530D02*
D03*
X905510Y631190D02*
D03*
D43*
X706769Y454330D02*
D03*
D44*
X1023620Y654050D02*
D03*
X844550Y655320D02*
D03*
X1022350Y365760D02*
D03*
X681990Y363220D02*
D03*
X678180Y601980D02*
D03*
D45*
X989439Y389069D02*
D03*
X711200Y595630D02*
D03*
X1002110Y578401D02*
D03*
X792860Y506730D02*
D03*
X826798Y597490D02*
D03*
D46*
X956310Y631190D02*
D03*
D47*
X828040Y405130D02*
D03*
X989330Y510540D02*
D03*
X965700Y539747D02*
D03*
X957580Y469900D02*
D03*
X905360Y498322D02*
D03*
X812281Y567210D02*
D03*
X725170Y553720D02*
D03*
X754380Y435610D02*
D03*
X767080Y461010D02*
D03*
X838656Y408747D02*
D03*
X830580Y375920D02*
D03*
X867410Y368300D02*
D03*
X795020Y367030D02*
D03*
X765810Y473710D02*
D03*
X901700Y400050D02*
D03*
X839470Y424180D02*
D03*
X887730Y496570D02*
D03*
X955040Y388620D02*
D03*
X863600Y407670D02*
D03*
X878840D02*
D03*
X928370Y495300D02*
D03*
X795753Y592627D02*
D03*
X869085Y578231D02*
D03*
X915670Y494030D02*
D03*
X989243Y456887D02*
D03*
X806450Y407670D02*
D03*
X981710Y570230D02*
D03*
X899160Y426720D02*
D03*
X969010Y392430D02*
D03*
X839470Y461010D02*
D03*
D48*
X767106Y448226D02*
D03*
M02*
