G04*
G04 #@! TF.GenerationSoftware,Altium Limited,Altium Designer,25.3.3 (18)*
G04*
G04 Layer_Color=16711935*
%FSLAX44Y44*%
%MOMM*%
G71*
G04*
G04 #@! TF.SameCoordinates,5CFDE4A5-D111-4E67-9A72-851D34BF8442*
G04*
G04*
G04 #@! TF.FilePolarity,Positive*
G04*
G01*
G75*
%ADD13C,0.2000*%
%ADD14C,0.1270*%
%ADD58C,0.1000*%
D13*
X695069Y454330D02*
G03*
X695069Y454330I-1000J0D01*
G01*
X957310Y643890D02*
G03*
X957310Y643890I-1000J0D01*
G01*
D14*
X665769Y479730D02*
X747769D01*
X665769Y378130D02*
Y479730D01*
Y378130D02*
X747769D01*
Y479730D01*
X880110Y590190D02*
X981710D01*
X880110D02*
Y672190D01*
X981710D01*
Y590190D02*
Y672190D01*
D58*
X798270Y439861D02*
G03*
X798270Y439861I-5000J0D01*
G01*
X858610Y441293D02*
G03*
X858610Y441293I-5000J0D01*
G01*
X924700Y528747D02*
G03*
X924700Y528747I-5000J0D01*
G01*
X864360Y528822D02*
G03*
X864360Y528822I-5000J0D01*
G01*
X822429Y568500D02*
Y574500D01*
X833429Y568500D02*
Y574500D01*
X822429D02*
X833429D01*
X822429Y568500D02*
X833429D01*
X764430Y425243D02*
X770430D01*
X764430Y436244D02*
X770430D01*
X764430Y425243D02*
Y436244D01*
X770430Y425243D02*
Y436244D01*
X784270Y430861D02*
X834270D01*
X784270Y470861D02*
X834270D01*
X784270Y430861D02*
Y470861D01*
X834270Y430861D02*
Y470861D01*
X972090Y435500D02*
X1006090D01*
X972090Y453500D02*
X1006090D01*
Y435500D02*
Y453500D01*
X972090Y435500D02*
Y453500D01*
X970953Y408559D02*
X1004953D01*
X970953Y426559D02*
X1004953D01*
Y408559D02*
Y426559D01*
X970953Y408559D02*
Y426559D01*
X894610Y432293D02*
Y472293D01*
X844610Y432293D02*
Y472293D01*
X894610D01*
X844610Y432293D02*
X894610D01*
X910100Y486520D02*
X944100D01*
X910100Y468520D02*
X944100D01*
X910100D02*
Y486520D01*
X944100Y468520D02*
Y486520D01*
X994300Y493540D02*
Y527540D01*
X1012300Y493540D02*
Y527540D01*
X994300Y493540D02*
X1012300D01*
X994300Y527540D02*
X1012300D01*
X960700Y519747D02*
Y559747D01*
X910700Y519747D02*
Y559747D01*
X960700D01*
X910700Y519747D02*
X960700D01*
X900360Y519822D02*
Y559822D01*
X850360Y519822D02*
Y559822D01*
X900360D01*
X850360Y519822D02*
X900360D01*
M02*
