G04*
G04 #@! TF.GenerationSoftware,Altium Limited,Altium Designer,25.3.3 (18)*
G04*
G04 Layer_Color=8388736*
%FSLAX44Y44*%
%MOMM*%
G71*
G04*
G04 #@! TF.SameCoordinates,5CFDE4A5-D111-4E67-9A72-851D34BF8442*
G04*
G04*
G04 #@! TF.FilePolarity,Positive*
G04*
G01*
G75*
%ADD12C,0.1500*%
%ADD13C,0.2000*%
D12*
X1002889Y389069D02*
G03*
X1002889Y389069I-13450J0D01*
G01*
X724650Y595630D02*
G03*
X724650Y595630I-13450J0D01*
G01*
X1015560Y578401D02*
G03*
X1015560Y578401I-13450J0D01*
G01*
X806310Y506730D02*
G03*
X806310Y506730I-13450J0D01*
G01*
X840248Y597490D02*
G03*
X840248Y597490I-13450J0D01*
G01*
D13*
X773790Y372130D02*
Y400030D01*
Y372130D02*
X818790D01*
Y400030D01*
X773790D02*
X818790D01*
X875649Y383410D02*
Y398910D01*
X844649D02*
X875649D01*
X844649Y383410D02*
Y398910D01*
Y383410D02*
X875649D01*
X911600Y405000D02*
X942600D01*
X911600D02*
Y420500D01*
X942600D01*
Y405000D02*
Y420500D01*
X905800Y432988D02*
X950800D01*
X905800D02*
Y460888D01*
X950800D01*
Y432988D02*
Y460888D01*
X912870Y392560D02*
X943870D01*
Y377060D02*
Y392560D01*
X912870Y377060D02*
X943870D01*
X912870D02*
Y392560D01*
X974600Y462920D02*
X1006600D01*
X974600D02*
Y479420D01*
X1006600D01*
Y462920D02*
Y479420D01*
X972560Y558930D02*
X1003560D01*
Y543430D02*
Y558930D01*
X972560Y543430D02*
X1003560D01*
X972560D02*
Y558930D01*
X968380Y494540D02*
Y526540D01*
X984880D01*
Y494540D02*
Y526540D01*
X968380Y494540D02*
X984880D01*
X816270Y524110D02*
X837270D01*
X816270D02*
Y537610D01*
X837270D01*
Y524110D02*
Y537610D01*
X815350Y513480D02*
X836350D01*
Y499980D02*
Y513480D01*
X815350Y499980D02*
X836350D01*
X815350D02*
Y513480D01*
X737870Y497730D02*
X771870D01*
X737870D02*
Y515730D01*
X771870D01*
Y497730D02*
Y515730D01*
X720200Y492270D02*
Y526270D01*
X702200Y492270D02*
X720200D01*
X702200D02*
Y526270D01*
X720200D01*
X747490Y578683D02*
X787490D01*
Y528683D02*
Y578683D01*
X747490Y528683D02*
X787490D01*
X747490D02*
Y578683D01*
X720200Y538770D02*
Y572770D01*
X702200Y538770D02*
X720200D01*
X702200D02*
Y572770D01*
X720200D01*
X834208Y546387D02*
Y555387D01*
X817208D02*
X834208D01*
X817208Y546387D02*
Y555387D01*
Y546387D02*
X834208D01*
M02*
