M48
;Layer_Color=9474304
;FILE_FORMAT=4:4
METRIC,LZ
;TYPE=PLATED
T01F00S00C0.2540
T02F00S00C0.4064
T03F00S00C1.0160
T04F00S00C1.1000
T05F00S00C2.0000
%
T01
X00767106Y00448226
T02
X0079502Y0036703
X0083058Y0037592
X0086741Y003683
X0095504Y0038862
X0096901Y0039243
X009017Y0040005
X0089916Y0042672
X0087884Y0040767
X008636
X00838656Y00408747
X0082804Y0040513
X0080645Y0040767
X0083947Y0042418
Y0046101
X0088773Y0049657
X0090536Y00498322
X0091567Y0049403
X0092837Y004953
X0095758Y004699
X00989243Y00456887
X0098933Y0051054
X009657Y00539747
X0098171Y0057023
X00869085Y00578231
X00812281Y0056721
X00795753Y00592627
X0072517Y0055372
X0076581Y0047371
X0076708Y0046101
X0075438Y0043561
T03
X00989439Y00389069
X0100211Y00578401
X00826798Y0059749
X007112Y0059563
X0079286Y0050673
T04
X0090551Y0063119
X0095631
X00706769Y0045433
Y0040353
T05
X0068199Y0036322
X0102235Y0036576
X0102362Y0065405
X0084455Y0065532
X0067818Y0060198
M30
